error_15_fix_square_corner_misalignments.ufo
<glyph name="ety001_cid01962_EL" format="1">
  <advance width="1000"/>
  <outline>
    <contour>
      <point x="497" y="382" type="line"/>
      <point x="217" y="382" type="line"/>
      <point x="217" y="352" type="line"/>
      <point x="497" y="352" type="line"/>
    </contour>
    <contour>
      <point x="487" y="752" type="line"/>
      <point x="203" y="752" type="line"/>
      <point x="203" y="353" type="line"/>
      <point x="233" y="353" type="line"/>
      <point x="233" y="722" type="line"/>
      <point x="487" y="722" type="line"/>
    </contour>
  </outline>
</glyph>
<glyph name="ety002_cid01963_EL" format="1">
  <advance width="1000"/>
  <outline>
    <contour>
      <point x="497" y="382" type="line"/>
      <point x="223" y="382" type="line"/>
      <point x="223" y="353" type="line"/>
      <point x="497" y="353" type="line"/>
    </contour>
    <contour>
      <point x="487" y="745" type="line"/>
      <point x="209" y="745" type="line"/>
      <point x="209" y="354" type="line"/>
      <point x="238" y="354" type="line"/>
      <point x="238" y="716" type="line"/>
      <point x="487" y="716" type="line"/>
    </contour>
  </outline>
</glyph>
<glyph name="ety004_cid02741_H" format="1">
  <advance width="1000"/>
  <outline>
    <contour>
      <point x="500" y="422" type="line"/>
      <point x="181" y="422" type="line"/>
      <point x="181" y="354" type="line"/>
      <point x="385" y="354" type="line"/>
      <point x="385" y="323" type="line"/>
      <point x="181" y="323" type="line"/>
      <point x="181" y="255" type="line"/>
      <point x="500" y="255" type="line"/>
    </contour>
    <contour>
      <point x="228" y="616" type="line"/>
      <point x="114" y="616" type="line"/>
      <point x="114" y="256" type="line"/>
      <point x="228" y="256" type="line"/>
    </contour>
  </outline>
</glyph>
<glyph name="ety005_cid02776_H" format="1">
  <advance width="1000"/>
  <outline>
    <contour>
      <point x="392" y="599" type="line"/>
      <point x="276" y="630" type="line"/>
      <point x="276" y="275" type="line"/>
      <point x="392" y="275" type="line"/>
    </contour>
    <contour>
      <point x="757" y="369" type="line"/>
      <point x="277" y="369" type="line"/>
      <point x="277" y="266" type="line"/>
      <point x="876" y="266" type="line"/>
      <point x="876" y="657" type="line"/>
      <point x="661" y="657" type="line"/>
      <point x="661" y="554" type="line"/>
      <point x="757" y="554" type="line"/>
    </contour>
  </outline>
</glyph>
<glyph name="ety006_cid02777_H" format="1">
  <advance width="1000"/>
  <outline>
    <contour>
      <point x="542" y="488" type="line"/>
      <point x="297" y="488" type="line"/>
      <point x="297" y="409" type="line"/>
      <point x="433" y="409" type="line"/>
      <point x="433" y="299" type="line"/>
      <point x="297" y="299" type="line"/>
      <point x="297" y="219" type="line"/>
      <point x="542" y="219" type="line"/>
    </contour>
    <contour>
      <point x="245" y="39" type="curve"/>
      <point x="245" y="74"/>
      <point x="358" y="123"/>
      <point x="358" y="123" type="curve"/>
      <point x="358" y="487" type="line"/>
      <point x="239" y="487" type="line"/>
      <point x="239" y="194" type="line"/>
      <point x="239" y="157"/>
      <point x="222" y="141"/>
      <point x="205" y="132" type="curve"/>
      <point x="221" y="112"/>
      <point x="240" y="65"/>
    </contour>
  </outline>
</glyph>
<glyph name="ety008_cid02931_EL" format="1">
  <advance width="1000"/>
  <outline>
    <contour>
      <point x="859" y="215" type="line"/>
      <point x="519" y="215" type="line"/>
      <point x="504" y="185" type="line"/>
      <point x="859" y="185" type="line"/>
    </contour>
    <contour>
      <point x="572" y="328" type="curve"/>
      <point x="543" y="333" type="line"/>
      <point x="527" y="285"/>
      <point x="507" y="228"/>
      <point x="488" y="186" type="curve"/>
      <point x="519" y="186" type="line"/>
      <point x="535" y="225"/>
      <point x="556" y="279"/>
    </contour>
  </outline>
</glyph>
<glyph name="ety009_cid02982_H" format="1">
  <advance width="1000"/>
  <outline>
    <contour>
      <point x="329" y="792" type="line"/>
      <point x="148" y="792" type="line"/>
      <point x="148" y="679" type="line"/>
      <point x="219" y="679" type="line"/>
      <point x="219" y="250" type="line"/>
      <point x="148" y="250" type="line"/>
      <point x="148" y="136" type="line"/>
      <point x="329" y="136" type="line"/>
    </contour>
    <contour>
      <point x="172" y="791" type="line"/>
      <point x="63" y="791" type="line"/>
      <point x="63" y="57" type="line"/>
      <point x="172" y="57" type="line"/>
    </contour>
  </outline>
</glyph>
<glyph name="ety010_cid02990_H" format="1">
  <advance width="1000"/>
  <outline>
    <contour>
      <point x="304" y="774" type="line"/>
      <point x="116" y="774" type="line"/>
      <point x="116" y="649" type="line"/>
      <point x="196" y="649" type="line"/>
      <point x="196" y="291" type="line"/>
      <point x="116" y="291" type="line"/>
      <point x="116" y="166" type="line"/>
      <point x="304" y="166" type="line"/>
    </contour>
    <contour>
      <point x="167" y="773" type="line"/>
      <point x="59" y="773" type="line"/>
      <point x="59" y="80" type="line"/>
      <point x="167" y="80" type="line"/>
    </contour>
  </outline>
</glyph>
<glyph name="ety012_cid03109_H" format="1">
  <advance width="1000"/>
  <outline>
    <contour>
      <point x="428" y="600" type="curve"/>
      <point x="318" y="600" type="line"/>
      <point x="318" y="486"/>
      <point x="313" y="341"/>
      <point x="304" y="248" type="curve"/>
      <point x="416" y="248" type="line"/>
      <point x="423" y="338"/>
      <point x="427" y="483"/>
    </contour>
    <contour>
      <point x="438" y="599" type="line"/>
      <point x="360" y="599" type="line"/>
      <point x="360" y="491" type="line"/>
      <point x="549" y="491" type="line"/>
      <point x="549" y="827" type="line"/>
      <point x="307" y="827" type="line"/>
      <point x="307" y="719" type="line"/>
      <point x="438" y="719" type="line"/>
    </contour>
  </outline>
</glyph>
<glyph name="ety013_cid03315_EL" format="1">
  <advance width="1000"/>
  <outline>
    <contour>
      <point x="883" y="748" type="line"/>
      <point x="667" y="748" type="line"/>
      <point x="667" y="719" type="line"/>
      <point x="854" y="719" type="line"/>
      <point x="854" y="367" type="line"/>
      <point x="883" y="367" type="line"/>
    </contour>
    <contour>
      <point x="449" y="726" type="line"/>
      <point x="420" y="726" type="line"/>
      <point x="420" y="366" type="line"/>
      <point x="873" y="366" type="line"/>
      <point x="873" y="395" type="line"/>
      <point x="449" y="395" type="line"/>
    </contour>
  </outline>
</glyph>
<glyph name="ety014_cid03412_EL" format="1">
  <advance width="1000"/>
  <outline>
    <contour>
      <point x="875" y="117" type="line"/>
      <point x="650" y="117" type="line"/>
      <point x="650" y="87" type="line"/>
      <point x="875" y="87" type="line"/>
    </contour>
    <contour>
      <point x="697" y="211" type="curve"/>
      <point x="667" y="211" type="line"/>
      <point x="659" y="170"/>
      <point x="647" y="124"/>
      <point x="636" y="88" type="curve"/>
      <point x="665" y="88" type="line"/>
      <point x="675" y="121"/>
      <point x="687" y="168"/>
    </contour>
  </outline>
</glyph>
<glyph name="ety016_cid03426_EL" format="1">
  <advance width="1000"/>
  <outline>
    <contour>
      <point x="779" y="86" type="line"/>
      <point x="426" y="86" type="line"/>
      <point x="426" y="-30" type="line"/>
      <point x="455" y="-30" type="line"/>
      <point x="455" y="57" type="line"/>
      <point x="779" y="57" type="line"/>
    </contour>
    <contour>
      <point x="794" y="2" type="curve"/>
      <point x="794" y="87" type="line"/>
      <point x="765" y="87" type="line"/>
      <point x="765" y="2" type="line"/>
      <point x="765" y="-6"/>
      <point x="763" y="-9"/>
      <point x="754" y="-9" type="curve"/>
      <point x="744" y="-10"/>
      <point x="720" y="-10"/>
      <point x="680" y="-9" type="curve"/>
      <point x="686" y="-17"/>
      <point x="692" y="-27"/>
      <point x="694" y="-36" type="curve"/>
      <point x="736" y="-36"/>
      <point x="761" y="-36"/>
      <point x="775" y="-30" type="curve"/>
      <point x="791" y="-23"/>
      <point x="794" y="-15"/>
    </contour>
  </outline>
</glyph>
<glyph name="ety017_cid03479_H" format="1">
  <advance width="1000"/>
  <outline>
    <contour>
      <point x="849" y="366" type="line"/>
      <point x="623" y="366" type="line"/>
      <point x="623" y="233" type="line"/>
      <point x="849" y="233" type="line"/>
    </contour>
    <contour>
      <point x="761" y="529" type="curve"/>
      <point x="621" y="529" type="line"/>
      <point x="608" y="432"/>
      <point x="586" y="313"/>
      <point x="566" y="234" type="curve"/>
      <point x="704" y="234" type="line"/>
      <point x="722" y="310"/>
      <point x="745" y="428"/>
    </contour>
  </outline>
</glyph>
<glyph name="ety018_cid03603_H" format="1">
  <advance width="1000"/>
  <outline>
    <contour>
      <point x="488" y="614" type="line"/>
      <point x="368" y="614" type="line"/>
      <point x="368" y="338" type="line"/>
      <point x="582" y="338" type="line"/>
      <point x="582" y="433" type="line"/>
      <point x="488" y="433" type="line"/>
    </contour>
    <contour>
      <point x="639" y="434" type="line"/>
      <point x="518" y="434" type="line"/>
      <point x="518" y="132" type="line"/>
      <point x="639" y="132" type="line"/>
    </contour>
  </outline>
</glyph>
<glyph name="ety019_cid03646_H" format="1">
  <advance width="1000"/>
  <outline>
    <contour>
      <point x="828" y="567" type="line"/>
      <point x="80" y="567" type="line"/>
      <point x="80" y="-96" type="line"/>
      <point x="224" y="-96" type="line"/>
      <point x="224" y="428" type="line"/>
      <point x="828" y="428" type="line"/>
    </contour>
    <contour>
      <point x="926" y="63" type="curve"/>
      <point x="926" y="568" type="line"/>
      <point x="782" y="568" type="line"/>
      <point x="782" y="66" type="line"/>
      <point x="782" y="51"/>
      <point x="775" y="46"/>
      <point x="758" y="46" type="curve"/>
      <point x="740" y="46"/>
      <point x="673" y="45"/>
      <point x="623" y="49" type="curve"/>
      <point x="644" y="11"/>
      <point x="666" y="-53"/>
      <point x="673" y="-94" type="curve"/>
      <point x="756" y="-94"/>
      <point x="818" y="-91"/>
      <point x="865" y="-69" type="curve"/>
      <point x="912" y="-46"/>
      <point x="926" y="-7"/>
    </contour>
  </outline>
</glyph>
<glyph name="ety020_cid03667_H" format="1">
  <advance width="1000"/>
  <outline>
    <contour>
      <point x="352" y="674" type="line"/>
      <point x="40" y="674" type="line"/>
      <point x="40" y="111" type="line"/>
      <point x="133" y="111" type="line"/>
      <point x="133" y="547" type="line"/>
      <point x="352" y="547" type="line"/>
    </contour>
    <contour>
      <point x="402" y="239" type="curve"/>
      <point x="402" y="673" type="line"/>
      <point x="309" y="673" type="line"/>
      <point x="309" y="243" type="line"/>
      <point x="309" y="235"/>
      <point x="308" y="233"/>
      <point x="303" y="233" type="curve"/>
      <point x="298" y="233"/>
      <point x="287" y="233"/>
      <point x="276" y="233" type="curve"/>
      <point x="289" y="199"/>
      <point x="299" y="143"/>
      <point x="300" y="108" type="curve"/>
      <point x="332" y="108"/>
      <point x="355" y="111"/>
      <point x="377" y="133" type="curve"/>
      <point x="399" y="155"/>
      <point x="402" y="193"/>
    </contour>
  </outline>
</glyph>
<glyph name="ety021_cid03689_EL" format="1">
  <advance width="1000"/>
  <outline>
    <contour>
      <point x="886" y="643" type="line"/>
      <point x="418" y="643" type="line"/>
      <point x="418" y="614" type="line"/>
      <point x="862" y="614" type="line"/>
      <point x="862" y="527" type="line"/>
      <point x="418" y="527" type="line"/>
      <point x="418" y="498" type="line"/>
      <point x="886" y="498" type="line"/>
    </contour>
    <contour>
      <point x="429" y="393" type="curve"/>
      <point x="429" y="642" type="line"/>
      <point x="402" y="642" type="line"/>
      <point x="402" y="393" type="line"/>
      <point x="402" y="262"/>
      <point x="392" y="87"/>
      <point x="314" y="-41" type="curve"/>
      <point x="321" y="-45"/>
      <point x="330" y="-57"/>
      <point x="334" y="-65" type="curve"/>
      <point x="417" y="70"/>
      <point x="429" y="257"/>
    </contour>
  </outline>
</glyph>
<glyph name="ety022_cid03781_EL" format="1">
  <advance width="1000"/>
  <outline>
    <contour>
      <point x="908" y="325" type="line"/>
      <point x="704" y="325" type="line"/>
      <point x="704" y="295" type="line"/>
      <point x="908" y="295" type="line"/>
    </contour>
    <contour>
      <point x="734" y="551" type="curve"/>
      <point x="705" y="551" type="line"/>
      <point x="705" y="471"/>
      <point x="700" y="361"/>
      <point x="694" y="294" type="curve"/>
      <point x="723" y="294" type="line"/>
      <point x="728" y="359"/>
      <point x="732" y="469"/>
    </contour>
  </outline>
</glyph>
<glyph name="ety023_cid03784_EL" format="1">
  <advance width="1000"/>
  <outline>
    <contour>
      <point x="919" y="355" type="curve"/>
      <point x="919" y="673" type="line"/>
      <point x="890" y="673" type="line"/>
      <point x="890" y="354" type="line"/>
      <point x="890" y="346"/>
      <point x="888" y="344"/>
      <point x="879" y="344" type="curve"/>
      <point x="871" y="343"/>
      <point x="845" y="343"/>
      <point x="814" y="344" type="curve"/>
      <point x="819" y="336"/>
      <point x="823" y="326"/>
      <point x="825" y="318" type="curve"/>
      <point x="865" y="318"/>
      <point x="888" y="319"/>
      <point x="902" y="324" type="curve"/>
      <point x="916" y="328"/>
      <point x="919" y="337"/>
    </contour>
    <contour>
      <point x="898" y="672" type="line"/>
      <point x="382" y="672" type="line"/>
      <point x="382" y="323" type="line"/>
      <point x="412" y="323" type="line"/>
      <point x="412" y="643" type="line"/>
      <point x="898" y="643" type="line"/>
    </contour>
  </outline>
</glyph>
<glyph name="ety024_cid03784_H" format="1">
  <advance width="1000"/>
  <outline>
    <contour>
      <point x="928" y="371" type="curve"/>
      <point x="928" y="683" type="line"/>
      <point x="824" y="683" type="line"/>
      <point x="824" y="372" type="line"/>
      <point x="824" y="363"/>
      <point x="821" y="360"/>
      <point x="812" y="360" type="curve"/>
      <point x="804" y="360"/>
      <point x="776" y="359"/>
      <point x="753" y="361" type="curve"/>
      <point x="764" y="337"/>
      <point x="776" y="303"/>
      <point x="780" y="277" type="curve"/>
      <point x="829" y="277"/>
      <point x="865" y="278"/>
      <point x="893" y="291" type="curve"/>
      <point x="920" y="305"/>
      <point x="928" y="327"/>
    </contour>
    <contour>
      <point x="865" y="684" type="line"/>
      <point x="346" y="684" type="line"/>
      <point x="346" y="284" type="line"/>
      <point x="452" y="284" type="line"/>
      <point x="452" y="601" type="line"/>
      <point x="865" y="601" type="line"/>
    </contour>
  </outline>
</glyph>
<glyph name="ety025_cid03856_H" format="1">
  <advance width="1000"/>
  <outline>
    <contour>
      <point x="842" y="599" type="line"/>
      <point x="535" y="599" type="line"/>
      <point x="535" y="472" type="line"/>
      <point x="842" y="472" type="line"/>
    </contour>
    <contour>
      <point x="675" y="777" type="curve"/>
      <point x="538" y="777" type="line"/>
      <point x="520" y="678"/>
      <point x="490" y="555"/>
      <point x="464" y="473" type="curve"/>
      <point x="604" y="473" type="line"/>
      <point x="626" y="551"/>
      <point x="654" y="674"/>
    </contour>
  </outline>
</glyph>
<glyph name="ety026_cid03919_H" format="1">
  <advance width="1000"/>
  <outline>
    <contour>
      <point x="546" y="812" type="line"/>
      <point x="406" y="812" type="line"/>
      <point x="406" y="694" type="line"/>
      <point x="546" y="694" type="line"/>
    </contour>
    <contour>
      <point x="617" y="40" type="curve"/>
      <point x="617" y="811" type="line"/>
      <point x="496" y="811" type="line"/>
      <point x="496" y="43" type="line"/>
      <point x="496" y="33"/>
      <point x="493" y="29"/>
      <point x="485" y="29" type="curve"/>
      <point x="476" y="29"/>
      <point x="453" y="29"/>
      <point x="432" y="30" type="curve"/>
      <point x="449" y="-3"/>
      <point x="464" y="-62"/>
      <point x="467" y="-96" type="curve"/>
      <point x="516" y="-96"/>
      <point x="551" y="-92"/>
      <point x="581" y="-70" type="curve"/>
      <point x="611" y="-49"/>
      <point x="617" y="-12"/>
    </contour>
  </outline>
</glyph>
<glyph name="ety027_cid03919_H" format="1">
  <advance width="1000"/>
  <outline>
    <contour>
      <point x="546" y="812" type="line"/>
      <point x="406" y="812" type="line"/>
      <point x="406" y="694" type="line"/>
      <point x="546" y="694" type="line"/>
    </contour>
    <contour>
      <point x="458" y="419" type="curve"/>
      <point x="458" y="811" type="line"/>
      <point x="338" y="811" type="line"/>
      <point x="338" y="419" type="line"/>
      <point x="338" y="282"/>
      <point x="333" y="104"/>
      <point x="265" y="-16" type="curve"/>
      <point x="290" y="-30"/>
      <point x="341" y="-74"/>
      <point x="360" y="-98" type="curve"/>
      <point x="444" y="38"/>
      <point x="458" y="264"/>
    </contour>
  </outline>
</glyph>
<glyph name="ety028_cid03948_EL" format="1">
  <advance width="1000"/>
  <outline>
    <contour>
      <point x="861" y="783" type="line"/>
      <point x="139" y="783" type="line"/>
      <point x="139" y="234" type="line"/>
      <point x="169" y="234" type="line"/>
      <point x="169" y="754" type="line"/>
      <point x="861" y="754" type="line"/>
    </contour>
    <contour>
      <point x="885" y="263" type="line"/>
      <point x="152" y="263" type="line"/>
      <point x="152" y="233" type="line"/>
      <point x="885" y="233" type="line"/>
    </contour>
  </outline>
</glyph>
<glyph name="ety029_cid03959_EL" format="1">
  <advance width="1000"/>
  <outline>
    <contour>
      <point x="420" y="708" type="line"/>
      <point x="390" y="718" type="line"/>
      <point x="390" y="398" type="line"/>
      <point x="420" y="398" type="line"/>
    </contour>
    <contour>
      <point x="871" y="426" type="line"/>
      <point x="405" y="426" type="line"/>
      <point x="405" y="397" type="line"/>
      <point x="901" y="397" type="line"/>
      <point x="901" y="738" type="line"/>
      <point x="710" y="738" type="line"/>
      <point x="710" y="709" type="line"/>
      <point x="871" y="709" type="line"/>
    </contour>
  </outline>
</glyph>
<glyph name="ety030_cid04005_H" format="1">
  <advance width="1000"/>
  <outline>
    <contour>
      <point x="620" y="676" type="line"/>
      <point x="504" y="676" type="line"/>
      <point x="504" y="416" type="line"/>
      <point x="620" y="416" type="line"/>
    </contour>
    <contour>
      <point x="499" y="847" type="line"/>
      <point x="388" y="847" type="line"/>
      <point x="388" y="582" type="line"/>
      <point x="561" y="582" type="line"/>
      <point x="561" y="675" type="line"/>
      <point x="499" y="675" type="line"/>
    </contour>
  </outline>
</glyph>
<glyph name="ety031_cid04060_EL" format="1">
  <advance width="1000"/>
  <outline>
    <contour>
      <point x="926" y="6" type="curve"/>
      <point x="926" y="790" type="line"/>
      <point x="897" y="790" type="line"/>
      <point x="897" y="6" type="line"/>
      <point x="897" y="-13"/>
      <point x="891" y="-17"/>
      <point x="873" y="-18" type="curve"/>
      <point x="856" y="-19"/>
      <point x="794" y="-20"/>
      <point x="721" y="-18" type="curve"/>
      <point x="727" y="-28"/>
      <point x="732" y="-42"/>
      <point x="735" y="-51" type="curve"/>
      <point x="817" y="-51"/>
      <point x="868" y="-51"/>
      <point x="893" y="-45" type="curve"/>
      <point x="917" y="-39"/>
      <point x="926" y="-25"/>
    </contour>
    <contour>
      <point x="917" y="789" type="line"/>
      <point x="387" y="789" type="line"/>
      <point x="387" y="-68" type="line"/>
      <point x="417" y="-68" type="line"/>
      <point x="417" y="760" type="line"/>
      <point x="917" y="760" type="line"/>
    </contour>
  </outline>
</glyph>
<glyph name="ety032_cid04076_EL" format="1">
  <advance width="1000"/>
  <outline>
    <contour>
      <point x="926" y="762" type="line"/>
      <point x="538" y="762" type="line"/>
      <point x="538" y="-4" type="line"/>
      <point x="568" y="-4" type="line"/>
      <point x="568" y="732" type="line"/>
      <point x="926" y="732" type="line"/>
    </contour>
    <contour>
      <point x="945" y="27" type="line"/>
      <point x="547" y="27" type="line"/>
      <point x="547" y="-3" type="line"/>
      <point x="945" y="-3" type="line"/>
    </contour>
  </outline>
</glyph>
<glyph name="ety033_cid04133_EL" format="1">
  <advance width="1000"/>
  <outline>
    <contour>
      <point x="894" y="667" type="line"/>
      <point x="717" y="667" type="line"/>
      <point x="717" y="637" type="line"/>
      <point x="894" y="637" type="line"/>
    </contour>
    <contour>
      <point x="756" y="777" type="curve"/>
      <point x="726" y="777" type="line"/>
      <point x="720" y="732"/>
      <point x="709" y="677"/>
      <point x="698" y="638" type="curve"/>
      <point x="728" y="638" type="line"/>
      <point x="737" y="674"/>
      <point x="748" y="729"/>
    </contour>
  </outline>
</glyph>
<glyph name="ety034_cid04133_H" format="1">
  <advance width="1000"/>
  <outline>
    <contour>
      <point x="880" y="734" type="line"/>
      <point x="731" y="734" type="line"/>
      <point x="731" y="630" type="line"/>
      <point x="880" y="630" type="line"/>
    </contour>
    <contour>
      <point x="811" y="824" type="curve"/>
      <point x="684" y="824" type="line"/>
      <point x="677" y="760"/>
      <point x="665" y="684"/>
      <point x="653" y="631" type="curve"/>
      <point x="780" y="631" type="line"/>
      <point x="791" y="682"/>
      <point x="802" y="758"/>
    </contour>
  </outline>
</glyph>
<glyph name="ety035_cid04217_H" format="1">
  <advance width="1000"/>
  <outline>
    <contour>
      <point x="607" y="648" type="line"/>
      <point x="305" y="648" type="line"/>
      <point x="305" y="312" type="line"/>
      <point x="405" y="312" type="line"/>
      <point x="405" y="566" type="line"/>
      <point x="607" y="566" type="line"/>
    </contour>
    <contour>
      <point x="665" y="647" type="line"/>
      <point x="572" y="647" type="line"/>
      <point x="572" y="314" type="line"/>
      <point x="665" y="314" type="line"/>
    </contour>
  </outline>
</glyph>
<glyph name="ety036_cid04231_H" format="1">
  <advance width="1000"/>
  <outline>
    <contour>
      <point x="426" y="690" type="curve"/>
      <point x="351" y="690" type="line"/>
      <point x="346" y="595"/>
      <point x="335" y="473"/>
      <point x="325" y="395" type="curve"/>
      <point x="401" y="395" type="line"/>
      <point x="410" y="470"/>
      <point x="419" y="592"/>
    </contour>
    <contour>
      <point x="640" y="464" type="line"/>
      <point x="360" y="464" type="line"/>
      <point x="360" y="394" type="line"/>
      <point x="640" y="394" type="line"/>
    </contour>
  </outline>
</glyph>
<glyph name="ety037_cid04435_EL" format="1">
  <advance width="1000"/>
  <outline>
    <contour>
      <point x="877" y="15" type="curve"/>
      <point x="877" y="368" type="line"/>
      <point x="848" y="368" type="line"/>
      <point x="848" y="28" type="line"/>
      <point x="848" y="-31"/>
      <point x="849" y="-42"/>
      <point x="858" y="-51" type="curve"/>
      <point x="866" y="-60"/>
      <point x="877" y="-63"/>
      <point x="888" y="-63" type="curve"/>
      <point x="893" y="-63"/>
      <point x="904" y="-63"/>
      <point x="911" y="-63" type="curve"/>
      <point x="920" y="-63"/>
      <point x="929" y="-60"/>
      <point x="935" y="-55" type="curve"/>
      <point x="943" y="-50"/>
      <point x="949" y="-41"/>
      <point x="952" y="-25" type="curve"/>
      <point x="955" y="-11"/>
      <point x="957" y="38"/>
      <point x="957" y="81" type="curve"/>
      <point x="947" y="83"/>
      <point x="936" y="88"/>
      <point x="928" y="95" type="curve"/>
      <point x="928" y="48"/>
      <point x="927" y="13"/>
      <point x="925" y="-4" type="curve"/>
      <point x="923" y="-17"/>
      <point x="920" y="-26"/>
      <point x="918" y="-30" type="curve"/>
      <point x="916" y="-34"/>
      <point x="911" y="-35"/>
      <point x="906" y="-35" type="curve"/>
      <point x="901" y="-35"/>
      <point x="894" y="-35"/>
      <point x="890" y="-35" type="curve"/>
      <point x="885" y="-35"/>
      <point x="882" y="-34"/>
      <point x="880" y="-31" type="curve"/>
      <point x="877" y="-27"/>
      <point x="877" y="-10"/>
    </contour>
    <contour>
      <point x="865" y="369" type="line"/>
      <point x="731" y="369" type="line"/>
      <point x="731" y="339" type="line"/>
      <point x="865" y="339" type="line"/>
    </contour>
  </outline>
</glyph>
<glyph name="ety038_cid04435_H" format="1">
  <advance width="1000"/>
  <outline>
    <contour>
      <point x="920" y="29" type="curve"/>
      <point x="920" y="358" type="line"/>
      <point x="844" y="358" type="line"/>
      <point x="844" y="31" type="line"/>
      <point x="844" y="-28"/>
      <point x="847" y="-45"/>
      <point x="858" y="-59" type="curve"/>
      <point x="868" y="-72"/>
      <point x="885" y="-77"/>
      <point x="901" y="-77" type="curve"/>
      <point x="908" y="-77"/>
      <point x="918" y="-77"/>
      <point x="926" y="-77" type="curve"/>
      <point x="938" y="-77"/>
      <point x="949" y="-74"/>
      <point x="957" y="-67" type="curve"/>
      <point x="966" y="-60"/>
      <point x="972" y="-50"/>
      <point x="976" y="-35" type="curve"/>
      <point x="980" y="-21"/>
      <point x="983" y="17"/>
      <point x="984" y="49" type="curve"/>
      <point x="968" y="55"/>
      <point x="950" y="65"/>
      <point x="938" y="75" type="curve"/>
      <point x="937" y="46"/>
      <point x="936" y="23"/>
      <point x="934" y="13" type="curve"/>
      <point x="933" y="3"/>
      <point x="932" y="-2"/>
      <point x="930" y="-5" type="curve"/>
      <point x="929" y="-7"/>
      <point x="928" y="-8"/>
      <point x="926" y="-8" type="curve"/>
      <point x="925" y="-8"/>
      <point x="925" y="-8"/>
      <point x="924" y="-8" type="curve"/>
      <point x="922" y="-8"/>
      <point x="921" y="-7"/>
      <point x="920" y="-4" type="curve"/>
      <point x="919" y="0"/>
      <point x="920" y="10"/>
    </contour>
    <contour>
      <point x="896" y="359" type="line"/>
      <point x="717" y="359" type="line"/>
      <point x="717" y="268" type="line"/>
      <point x="896" y="268" type="line"/>
    </contour>
  </outline>
</glyph>
<glyph name="ety039_cid04464_EL" format="1">
  <advance width="1000"/>
  <outline>
    <contour>
      <point x="889" y="4" type="curve"/>
      <point x="889" y="790" type="line"/>
      <point x="860" y="790" type="line"/>
      <point x="860" y="4" type="line"/>
      <point x="860" y="-13"/>
      <point x="855" y="-17"/>
      <point x="838" y="-18" type="curve"/>
      <point x="822" y="-19"/>
      <point x="767" y="-19"/>
      <point x="702" y="-18" type="curve"/>
      <point x="708" y="-28"/>
      <point x="713" y="-42"/>
      <point x="716" y="-51" type="curve"/>
      <point x="789" y="-51"/>
      <point x="835" y="-51"/>
      <point x="858" y="-45" type="curve"/>
      <point x="880" y="-39"/>
      <point x="889" y="-25"/>
    </contour>
    <contour>
      <point x="871" y="789" type="line"/>
      <point x="387" y="789" type="line"/>
      <point x="387" y="-68" type="line"/>
      <point x="417" y="-68" type="line"/>
      <point x="417" y="760" type="line"/>
      <point x="871" y="760" type="line"/>
    </contour>
  </outline>
</glyph>
<glyph name="ety042_cid04582_H" format="1">
  <advance width="1000"/>
  <outline>
    <contour>
      <point x="602" y="735" type="line"/>
      <point x="403" y="735" type="line"/>
      <point x="403" y="622" type="line"/>
      <point x="602" y="622" type="line"/>
    </contour>
    <contour>
      <point x="617" y="39" type="curve"/>
      <point x="617" y="736" type="line"/>
      <point x="520" y="736" type="line"/>
      <point x="520" y="40" type="line"/>
      <point x="520" y="28"/>
      <point x="516" y="24"/>
      <point x="504" y="23" type="curve"/>
      <point x="493" y="23"/>
      <point x="455" y="23"/>
      <point x="421" y="25" type="curve"/>
      <point x="433" y="0"/>
      <point x="446" y="-41"/>
      <point x="449" y="-67" type="curve"/>
      <point x="509" y="-67"/>
      <point x="550" y="-65"/>
      <point x="579" y="-50" type="curve"/>
      <point x="608" y="-34"/>
      <point x="617" y="-8"/>
    </contour>
  </outline>
</glyph>
<glyph name="ety043_cid04660_EL" format="1">
  <advance width="1000"/>
  <outline>
    <contour>
      <point x="586" y="349" type="line"/>
      <point x="322" y="349" type="line"/>
      <point x="322" y="-8" type="line"/>
      <point x="351" y="-8" type="line"/>
      <point x="351" y="320" type="line"/>
      <point x="586" y="320" type="line"/>
    </contour>
    <contour>
      <point x="587" y="53" type="curve"/>
      <point x="587" y="333" type="line"/>
      <point x="559" y="333" type="line"/>
      <point x="559" y="52" type="line"/>
      <point x="559" y="44"/>
      <point x="557" y="42"/>
      <point x="548" y="41" type="curve"/>
      <point x="539" y="41"/>
      <point x="514" y="41"/>
      <point x="478" y="42" type="curve"/>
      <point x="483" y="33"/>
      <point x="489" y="23"/>
      <point x="490" y="15" type="curve"/>
      <point x="530" y="15"/>
      <point x="555" y="15"/>
      <point x="570" y="21" type="curve"/>
      <point x="583" y="27"/>
      <point x="587" y="35"/>
    </contour>
  </outline>
</glyph>
<glyph name="ety044_cid04662_EL" format="1">
  <advance width="1000"/>
  <outline>
    <contour>
      <point x="900" y="572" type="line"/>
      <point x="505" y="572" type="line"/>
      <point x="505" y="78" type="line"/>
      <point x="534" y="78" type="line"/>
      <point x="534" y="542" type="line"/>
      <point x="900" y="542" type="line"/>
    </contour>
    <contour>
      <point x="914" y="121" type="curve"/>
      <point x="914" y="571" type="line"/>
      <point x="884" y="571" type="line"/>
      <point x="884" y="120" type="line"/>
      <point x="884" y="110"/>
      <point x="881" y="106"/>
      <point x="870" y="106" type="curve"/>
      <point x="858" y="105"/>
      <point x="821" y="105"/>
      <point x="773" y="106" type="curve"/>
      <point x="778" y="96"/>
      <point x="783" y="83"/>
      <point x="785" y="75" type="curve"/>
      <point x="838" y="75"/>
      <point x="873" y="75"/>
      <point x="891" y="81" type="curve"/>
      <point x="909" y="87"/>
      <point x="914" y="98"/>
    </contour>
  </outline>
</glyph>
<glyph name="ety045_cid04674_EL" format="1">
  <advance width="1000"/>
  <outline>
    <contour>
      <point x="900" y="408" type="line"/>
      <point x="670" y="408" type="line"/>
      <point x="670" y="44" type="line"/>
      <point x="699" y="44" type="line"/>
      <point x="699" y="378" type="line"/>
      <point x="900" y="378" type="line"/>
    </contour>
    <contour>
      <point x="912" y="84" type="curve"/>
      <point x="912" y="409" type="line"/>
      <point x="882" y="409" type="line"/>
      <point x="882" y="83" type="line"/>
      <point x="882" y="74"/>
      <point x="879" y="72"/>
      <point x="868" y="71" type="curve"/>
      <point x="858" y="71"/>
      <point x="822" y="70"/>
      <point x="777" y="71" type="curve"/>
      <point x="782" y="63"/>
      <point x="787" y="52"/>
      <point x="789" y="45" type="curve"/>
      <point x="844" y="45"/>
      <point x="874" y="45"/>
      <point x="891" y="50" type="curve"/>
      <point x="907" y="56"/>
      <point x="912" y="65"/>
    </contour>
  </outline>
</glyph>
<glyph name="ety046_cid04719_EL" format="1">
  <advance width="1000"/>
  <outline>
    <contour>
      <point x="550" y="781" type="line"/>
      <point x="100" y="781" type="line"/>
      <point x="100" y="-28" type="line"/>
      <point x="130" y="-28" type="line"/>
      <point x="130" y="752" type="line"/>
      <point x="550" y="752" type="line"/>
    </contour>
    <contour>
      <point x="527" y="0" type="line"/>
      <point x="121" y="0" type="line"/>
      <point x="121" y="-29" type="line"/>
      <point x="527" y="-29" type="line"/>
    </contour>
  </outline>
</glyph>
<glyph name="ety047_cid04719_H" format="1">
  <advance width="1000"/>
  <outline>
    <contour>
      <point x="557" y="826" type="line"/>
      <point x="47" y="826" type="line"/>
      <point x="47" y="-54" type="line"/>
      <point x="160" y="-54" type="line"/>
      <point x="160" y="702" type="line"/>
      <point x="557" y="702" type="line"/>
    </contour>
    <contour>
      <point x="536" y="68" type="line"/>
      <point x="119" y="68" type="line"/>
      <point x="119" y="-55" type="line"/>
      <point x="536" y="-55" type="line"/>
    </contour>
  </outline>
</glyph>
<glyph name="ety048_cid04853_H" format="1">
  <advance width="1000"/>
  <outline>
    <contour>
      <point x="960" y="712" type="line"/>
      <point x="437" y="712" type="line"/>
      <point x="437" y="575" type="line"/>
      <point x="960" y="575" type="line"/>
    </contour>
    <contour>
      <point x="489" y="455" type="curve"/>
      <point x="489" y="711" type="line"/>
      <point x="348" y="711" type="line"/>
      <point x="348" y="455" type="line"/>
      <point x="348" y="313"/>
      <point x="340" y="112"/>
      <point x="239" y="-23" type="curve"/>
      <point x="273" y="-38"/>
      <point x="334" y="-78"/>
      <point x="360" y="-102" type="curve"/>
      <point x="470" y="47"/>
      <point x="489" y="291"/>
    </contour>
  </outline>
</glyph>
<glyph name="ety049_cid04970_EL" format="1">
  <advance width="1000"/>
  <outline>
    <contour>
      <point x="562" y="463" type="line"/>
      <point x="318" y="463" type="line"/>
      <point x="318" y="-65" type="line"/>
      <point x="347" y="-65" type="line"/>
      <point x="347" y="433" type="line"/>
      <point x="562" y="433" type="line"/>
    </contour>
    <contour>
      <point x="581" y="-16" type="curve"/>
      <point x="581" y="464" type="line"/>
      <point x="552" y="464" type="line"/>
      <point x="552" y="-17" type="line"/>
      <point x="552" y="-27"/>
      <point x="550" y="-30"/>
      <point x="539" y="-31" type="curve"/>
      <point x="527" y="-32"/>
      <point x="494" y="-32"/>
      <point x="450" y="-30" type="curve"/>
      <point x="456" y="-40"/>
      <point x="461" y="-54"/>
      <point x="463" y="-62" type="curve"/>
      <point x="511" y="-62"/>
      <point x="543" y="-62"/>
      <point x="560" y="-56" type="curve"/>
      <point x="576" y="-50"/>
      <point x="581" y="-39"/>
    </contour>
  </outline>
</glyph>
<glyph name="ety050_cid05023_H" format="1">
  <advance width="1000"/>
  <outline>
    <contour>
      <point x="613" y="341" type="line"/>
      <point x="437" y="341" type="line"/>
      <point x="437" y="227" type="line"/>
      <point x="613" y="227" type="line"/>
    </contour>
    <contour>
      <point x="569" y="-18" type="curve"/>
      <point x="569" y="18"/>
      <point x="659" y="95"/>
      <point x="659" y="95" type="curve"/>
      <point x="659" y="340" type="line"/>
      <point x="558" y="340" type="line"/>
      <point x="558" y="156" type="line"/>
      <point x="558" y="103"/>
      <point x="533" y="68"/>
      <point x="514" y="52" type="curve"/>
      <point x="531" y="37"/>
      <point x="559" y="2"/>
    </contour>
  </outline>
</glyph>
<glyph name="ety051_cid05025_H" format="1">
  <advance width="1000"/>
  <outline>
    <contour>
      <point x="548" y="86" type="line"/>
      <point x="431" y="86" type="line"/>
      <point x="431" y="-67" type="line"/>
      <point x="548" y="-67" type="line"/>
    </contour>
    <contour>
      <point x="860" y="32" type="line"/>
      <point x="510" y="32" type="line"/>
      <point x="510" y="-68" type="line"/>
      <point x="860" y="-68" type="line"/>
    </contour>
  </outline>
</glyph>
<glyph name="ety052_cid05041_EL" format="1">
  <advance width="1000"/>
  <outline>
    <contour>
      <point x="913" y="670" type="line"/>
      <point x="811" y="670" type="line"/>
      <point x="811" y="641" type="line"/>
      <point x="913" y="641" type="line"/>
    </contour>
    <contour>
      <point x="848" y="781" type="curve"/>
      <point x="819" y="781" type="line"/>
      <point x="812" y="736"/>
      <point x="801" y="681"/>
      <point x="790" y="642" type="curve"/>
      <point x="820" y="642" type="line"/>
      <point x="829" y="678"/>
      <point x="840" y="733"/>
    </contour>
  </outline>
</glyph>
<glyph name="ety053_cid05096_H" format="1">
  <advance width="1000"/>
  <outline>
    <contour>
      <point x="504" y="367" type="line"/>
      <point x="241" y="367" type="line"/>
      <point x="241" y="259" type="line"/>
      <point x="504" y="259" type="line"/>
    </contour>
    <contour>
      <point x="546" y="816" type="line"/>
      <point x="242" y="816" type="line"/>
      <point x="242" y="296" type="line"/>
      <point x="337" y="296" type="line"/>
      <point x="337" y="703" type="line"/>
      <point x="546" y="703" type="line"/>
    </contour>
  </outline>
</glyph>
<glyph name="ety054_cid05138_H" format="1">
  <advance width="1000"/>
  <outline>
    <contour>
      <point x="541" y="776" type="line"/>
      <point x="400" y="776" type="line"/>
      <point x="400" y="209" type="line"/>
      <point x="541" y="209" type="line"/>
    </contour>
    <contour>
      <point x="899" y="775" type="line"/>
      <point x="470" y="775" type="line"/>
      <point x="470" y="670" type="line"/>
      <point x="758" y="670" type="line"/>
      <point x="758" y="632" type="line"/>
      <point x="470" y="632" type="line"/>
      <point x="470" y="526" type="line"/>
      <point x="899" y="526" type="line"/>
    </contour>
  </outline>
</glyph>
<glyph name="ety055_cid05154_EL" format="1">
  <advance width="1000"/>
  <outline>
    <contour>
      <point x="887" y="748" type="line"/>
      <point x="671" y="748" type="line"/>
      <point x="671" y="719" type="line"/>
      <point x="858" y="719" type="line"/>
      <point x="858" y="367" type="line"/>
      <point x="887" y="367" type="line"/>
    </contour>
    <contour>
      <point x="443" y="726" type="line"/>
      <point x="414" y="726" type="line"/>
      <point x="414" y="366" type="line"/>
      <point x="877" y="366" type="line"/>
      <point x="877" y="395" type="line"/>
      <point x="443" y="395" type="line"/>
    </contour>
  </outline>
</glyph>
<glyph name="ety056_cid05170_H" format="1">
  <advance width="1000"/>
  <outline>
    <contour>
      <point x="732" y="746" type="line"/>
      <point x="605" y="746" type="line"/>
      <point x="605" y="80" type="line"/>
      <point x="732" y="80" type="line"/>
    </contour>
    <contour>
      <point x="951" y="402" type="line"/>
      <point x="648" y="402" type="line"/>
      <point x="648" y="288" type="line"/>
      <point x="824" y="288" type="line"/>
      <point x="824" y="193" type="line"/>
      <point x="648" y="193" type="line"/>
      <point x="648" y="79" type="line"/>
      <point x="951" y="79" type="line"/>
    </contour>
  </outline>
</glyph>
<glyph name="ety058_cid05182_H" format="1">
  <advance width="1000"/>
  <outline>
    <contour>
      <point x="757" y="462" type="curve"/>
      <point x="757" y="642" type="line"/>
      <point x="630" y="642" type="line"/>
      <point x="630" y="460" type="line"/>
      <point x="630" y="356"/>
      <point x="658" y="324"/>
      <point x="761" y="324" type="curve"/>
      <point x="781" y="324"/>
      <point x="825" y="324"/>
      <point x="847" y="324" type="curve"/>
      <point x="927" y="324"/>
      <point x="961" y="353"/>
      <point x="975" y="466" type="curve"/>
      <point x="940" y="473"/>
      <point x="885" y="492"/>
      <point x="861" y="509" type="curve"/>
      <point x="857" y="441"/>
      <point x="853" y="433"/>
      <point x="833" y="433" type="curve"/>
      <point x="822" y="433"/>
      <point x="791" y="433"/>
      <point x="782" y="433" type="curve"/>
      <point x="760" y="433"/>
      <point x="757" y="436"/>
    </contour>
    <contour>
      <point x="921" y="833" type="line"/>
      <point x="630" y="833" type="line"/>
      <point x="630" y="730" type="line"/>
      <point x="799" y="730" type="line"/>
      <point x="799" y="641" type="line"/>
      <point x="647" y="641" type="line"/>
      <point x="647" y="538" type="line"/>
      <point x="921" y="538" type="line"/>
    </contour>
  </outline>
</glyph>
<glyph name="ety059_cid05203_H" format="1">
  <advance width="1000"/>
  <outline>
    <contour>
      <point x="192" y="606" type="line"/>
      <point x="73" y="606" type="line"/>
      <point x="73" y="341" type="line"/>
      <point x="192" y="341" type="line"/>
    </contour>
    <contour>
      <point x="388" y="404" type="line"/>
      <point x="74" y="404" type="line"/>
      <point x="74" y="317" type="line"/>
      <point x="508" y="317" type="line"/>
      <point x="508" y="624" type="line"/>
      <point x="302" y="624" type="line"/>
      <point x="302" y="536" type="line"/>
      <point x="388" y="536" type="line"/>
    </contour>
  </outline>
</glyph>
<glyph name="ety060_cid05396_H" format="1">
  <advance width="1000"/>
  <outline>
    <contour>
      <point x="858" y="660" type="line"/>
      <point x="740" y="660" type="line"/>
      <point x="723" y="542" type="line"/>
      <point x="858" y="542" type="line"/>
    </contour>
    <contour>
      <point x="788" y="805" type="curve"/>
      <point x="649" y="805" type="line"/>
      <point x="639" y="718"/>
      <point x="622" y="612"/>
      <point x="605" y="541" type="curve"/>
      <point x="741" y="541" type="line"/>
      <point x="757" y="610"/>
      <point x="775" y="715"/>
    </contour>
  </outline>
</glyph>
<glyph name="ety061_cid05436_H" format="1">
  <advance width="1000"/>
  <outline>
    <contour>
      <point x="940" y="817" type="line"/>
      <point x="451" y="817" type="line"/>
      <point x="451" y="699" type="line"/>
      <point x="808" y="699" type="line"/>
      <point x="808" y="638" type="line"/>
      <point x="448" y="638" type="line"/>
      <point x="448" y="520" type="line"/>
      <point x="940" y="520" type="line"/>
    </contour>
    <contour>
      <point x="500" y="489" type="curve"/>
      <point x="500" y="815" type="line"/>
      <point x="371" y="815" type="line"/>
      <point x="371" y="489" type="line"/>
      <point x="371" y="335"/>
      <point x="364" y="122"/>
      <point x="274" y="-20" type="curve"/>
      <point x="304" y="-34"/>
      <point x="360" y="-76"/>
      <point x="382" y="-100" type="curve"/>
      <point x="484" y="57"/>
      <point x="500" y="317"/>
    </contour>
  </outline>
</glyph>
<glyph name="ety062_cid05552_EL" format="1">
  <advance width="1000"/>
  <outline>
    <contour>
      <point x="821" y="561" type="line"/>
      <point x="605" y="561" type="line"/>
      <point x="602" y="531" type="line"/>
      <point x="821" y="531" type="line"/>
    </contour>
    <contour>
      <point x="837" y="24" type="curve"/>
      <point x="837" y="560" type="line"/>
      <point x="808" y="560" type="line"/>
      <point x="808" y="38" type="line"/>
      <point x="808" y="-27"/>
      <point x="810" y="-39"/>
      <point x="820" y="-48" type="curve"/>
      <point x="830" y="-56"/>
      <point x="844" y="-59"/>
      <point x="857" y="-59" type="curve"/>
      <point x="863" y="-59"/>
      <point x="883" y="-59"/>
      <point x="891" y="-59" type="curve"/>
      <point x="905" y="-59"/>
      <point x="917" y="-56"/>
      <point x="924" y="-50" type="curve"/>
      <point x="932" y="-43"/>
      <point x="938" y="-32"/>
      <point x="941" y="-15" type="curve"/>
      <point x="944" y="1"/>
      <point x="946" y="53"/>
      <point x="946" y="96" type="curve"/>
      <point x="937" y="98"/>
      <point x="929" y="102"/>
      <point x="921" y="109" type="curve"/>
      <point x="921" y="58"/>
      <point x="919" y="20"/>
      <point x="917" y="2" type="curve"/>
      <point x="916" y="-13"/>
      <point x="913" y="-21"/>
      <point x="908" y="-25" type="curve"/>
      <point x="904" y="-29"/>
      <point x="895" y="-30"/>
      <point x="887" y="-30" type="curve"/>
      <point x="878" y="-30"/>
      <point x="866" y="-30"/>
      <point x="859" y="-30" type="curve"/>
      <point x="853" y="-30"/>
      <point x="847" y="-29"/>
      <point x="843" y="-26" type="curve"/>
      <point x="838" y="-22"/>
      <point x="837" y="-5"/>
    </contour>
  </outline>
</glyph>
<glyph name="ety063_cid05557_H" format="1">
  <advance width="1000"/>
  <outline>
    <contour>
      <point x="447" y="342" type="line"/>
      <point x="283" y="342" type="line"/>
      <point x="283" y="244" type="line"/>
      <point x="447" y="244" type="line"/>
    </contour>
    <contour>
      <point x="516" y="32" type="curve"/>
      <point x="516" y="341" type="line"/>
      <point x="401" y="341" type="line"/>
      <point x="401" y="34" type="line"/>
      <point x="401" y="25"/>
      <point x="398" y="22"/>
      <point x="390" y="22" type="curve"/>
      <point x="382" y="22"/>
      <point x="359" y="22"/>
      <point x="339" y="23" type="curve"/>
      <point x="352" y="-5"/>
      <point x="368" y="-50"/>
      <point x="373" y="-82" type="curve"/>
      <point x="417" y="-82"/>
      <point x="451" y="-80"/>
      <point x="480" y="-63" type="curve"/>
      <point x="509" y="-45"/>
      <point x="516" y="-16"/>
    </contour>
  </outline>
</glyph>
<glyph name="ety064_cid05606_EL" format="1">
  <advance width="1000"/>
  <outline>
    <contour>
      <point x="827" y="324" type="line"/>
      <point x="403" y="324" type="line"/>
      <point x="403" y="293" type="line"/>
      <point x="827" y="293" type="line"/>
    </contour>
    <contour>
      <point x="490" y="537" type="curve"/>
      <point x="460" y="537" type="line"/>
      <point x="440" y="461"/>
      <point x="409" y="358"/>
      <point x="385" y="294" type="curve"/>
      <point x="415" y="294" type="line"/>
      <point x="437" y="355"/>
      <point x="468" y="458"/>
    </contour>
  </outline>
</glyph>
<glyph name="ety065_cid05636_H" format="1">
  <advance width="1000"/>
  <outline>
    <contour>
      <point x="944" y="603" type="line"/>
      <point x="660" y="603" type="line"/>
      <point x="660" y="152" type="line"/>
      <point x="775" y="152" type="line"/>
      <point x="775" y="489" type="line"/>
      <point x="823" y="489" type="line"/>
      <point x="823" y="-87" type="line"/>
      <point x="944" y="-87" type="line"/>
    </contour>
    <contour>
      <point x="774" y="264" type="line"/>
      <point x="503" y="264" type="line"/>
      <point x="503" y="151" type="line"/>
      <point x="774" y="151" type="line"/>
    </contour>
  </outline>
</glyph>
<glyph name="ety067_cid05712_H" format="1">
  <advance width="1000"/>
  <outline>
    <contour>
      <point x="972" y="788" type="line"/>
      <point x="247" y="788" type="line"/>
      <point x="247" y="683" type="line"/>
      <point x="972" y="683" type="line"/>
    </contour>
    <contour>
      <point x="280" y="465" type="curve"/>
      <point x="280" y="787" type="line"/>
      <point x="158" y="787" type="line"/>
      <point x="158" y="465" type="line"/>
      <point x="158" y="315"/>
      <point x="148" y="113"/>
      <point x="32" y="-23" type="curve"/>
      <point x="61" y="-36"/>
      <point x="113" y="-72"/>
      <point x="134" y="-94" type="curve"/>
      <point x="260" y="54"/>
      <point x="280" y="296"/>
    </contour>
  </outline>
</glyph>
<glyph name="ety068_cid05715_EL" format="1">
  <advance width="1000"/>
  <outline>
    <contour>
      <point x="495" y="267" type="line"/>
      <point x="326" y="267" type="line"/>
      <point x="326" y="237" type="line"/>
      <point x="495" y="237" type="line"/>
    </contour>
    <contour>
      <point x="463" y="-26" type="curve"/>
      <point x="463" y="-11"/>
      <point x="503" y="18"/>
      <point x="503" y="18" type="curve"/>
      <point x="503" y="266" type="line"/>
      <point x="473" y="266" type="line"/>
      <point x="473" y="65" type="line"/>
      <point x="473" y="26"/>
      <point x="455" y="10"/>
      <point x="444" y="4" type="curve"/>
      <point x="451" y="-4"/>
      <point x="460" y="-17"/>
    </contour>
  </outline>
</glyph>
<glyph name="ety069_cid05737_EL" format="1">
  <advance width="1000"/>
  <outline>
    <contour>
      <point x="835" y="613" type="curve"/>
      <point x="806" y="613" type="line"/>
      <point x="806" y="223"/>
      <point x="813" y="-62"/>
      <point x="900" y="-64" type="curve"/>
      <point x="922" y="-64"/>
      <point x="939" y="-28"/>
      <point x="949" y="79" type="curve"/>
      <point x="942" y="81"/>
      <point x="931" y="84"/>
      <point x="924" y="90" type="curve"/>
      <point x="919" y="17"/>
      <point x="908" y="-29"/>
      <point x="897" y="-29" type="curve"/>
      <point x="847" y="-28"/>
      <point x="830" y="218"/>
    </contour>
    <contour>
      <point x="819" y="614" type="line"/>
      <point x="526" y="614" type="line"/>
      <point x="526" y="584" type="line"/>
      <point x="819" y="584" type="line"/>
    </contour>
  </outline>
</glyph>
<glyph name="ety073_cid06250_H" format="1">
  <advance width="1000"/>
  <outline>
    <contour>
      <point x="947" y="637" type="line"/>
      <point x="550" y="637" type="line"/>
      <point x="550" y="536" type="line"/>
      <point x="947" y="536" type="line"/>
    </contour>
    <contour>
      <point x="624" y="686" type="curve"/>
      <point x="513" y="696" type="line"/>
      <point x="505" y="643"/>
      <point x="492" y="579"/>
      <point x="480" y="535" type="curve"/>
      <point x="591" y="535" type="line"/>
      <point x="602" y="575"/>
      <point x="615" y="635"/>
    </contour>
  </outline>
</glyph>
<glyph name="ety075_cid06399_H" format="1">
  <advance width="1000"/>
  <outline>
    <contour>
      <point x="593" y="231" type="line"/>
      <point x="340" y="231" type="line"/>
      <point x="340" y="138" type="line"/>
      <point x="593" y="138" type="line"/>
    </contour>
    <contour>
      <point x="489" y="-62" type="curve"/>
      <point x="489" y="-20"/>
      <point x="593" y="60"/>
      <point x="593" y="60" type="curve"/>
      <point x="593" y="232" type="line"/>
      <point x="484" y="232" type="line"/>
      <point x="484" y="116" type="line"/>
      <point x="484" y="67"/>
      <point x="464" y="40"/>
      <point x="446" y="25" type="curve"/>
      <point x="461" y="8"/>
      <point x="482" y="-37"/>
    </contour>
  </outline>
</glyph>
<glyph name="ety076_cid06403_H" format="1">
  <advance width="1000"/>
  <outline>
    <contour>
      <point x="272" y="564" type="line"/>
      <point x="144" y="585" type="line"/>
      <point x="144" y="335" type="line"/>
      <point x="272" y="335" type="line"/>
    </contour>
    <contour>
      <point x="740" y="378" type="line"/>
      <point x="143" y="378" type="line"/>
      <point x="143" y="284" type="line"/>
      <point x="870" y="284" type="line"/>
      <point x="870" y="607" type="line"/>
      <point x="532" y="607" type="line"/>
      <point x="532" y="514" type="line"/>
      <point x="740" y="514" type="line"/>
    </contour>
  </outline>
</glyph>
<glyph name="ety080_cid06447_EL" format="1">
  <advance width="1000"/>
  <outline>
    <contour>
      <point x="952" y="706" type="line"/>
      <point x="427" y="706" type="line"/>
      <point x="427" y="676" type="line"/>
      <point x="952" y="676" type="line"/>
    </contour>
    <contour>
      <point x="444" y="413" type="curve"/>
      <point x="444" y="705" type="line"/>
      <point x="415" y="705" type="line"/>
      <point x="415" y="414" type="line"/>
      <point x="415" y="274"/>
      <point x="406" y="86"/>
      <point x="323" y="-52" type="curve"/>
      <point x="329" y="-56"/>
      <point x="341" y="-65"/>
      <point x="346" y="-71" type="curve"/>
      <point x="432" y="72"/>
      <point x="444" y="270"/>
    </contour>
  </outline>
</glyph>
<glyph name="ety081_cid06463_H" format="1">
  <advance width="1000"/>
  <outline>
    <contour>
      <point x="737" y="746" type="line"/>
      <point x="613" y="746" type="line"/>
      <point x="613" y="80" type="line"/>
      <point x="737" y="80" type="line"/>
    </contour>
    <contour>
      <point x="954" y="402" type="line"/>
      <point x="658" y="402" type="line"/>
      <point x="658" y="288" type="line"/>
      <point x="830" y="288" type="line"/>
      <point x="830" y="193" type="line"/>
      <point x="658" y="193" type="line"/>
      <point x="658" y="79" type="line"/>
      <point x="954" y="79" type="line"/>
    </contour>
  </outline>
</glyph>
<glyph name="ety082_cid06469_EL" format="1">
  <advance width="1000"/>
  <outline>
    <contour>
      <point x="432" y="803" type="line"/>
      <point x="132" y="803" type="line"/>
      <point x="132" y="773" type="line"/>
      <point x="403" y="773" type="line"/>
      <point x="403" y="593" type="line"/>
      <point x="134" y="593" type="line"/>
      <point x="134" y="564" type="line"/>
      <point x="432" y="564" type="line"/>
    </contour>
    <contour>
      <point x="96" y="388" type="curve"/>
      <point x="96" y="403"/>
      <point x="155" y="432"/>
      <point x="155" y="432" type="curve"/>
      <point x="155" y="802" type="line"/>
      <point x="125" y="802" type="line"/>
      <point x="125" y="478" type="line"/>
      <point x="125" y="441"/>
      <point x="94" y="425"/>
      <point x="79" y="419" type="curve"/>
      <point x="85" y="410"/>
      <point x="93" y="397"/>
    </contour>
  </outline>
</glyph>
<glyph name="ety083_cid06510_H" format="1">
  <advance width="1000"/>
  <outline>
    <contour>
      <point x="930" y="817" type="line"/>
      <point x="539" y="817" type="line"/>
      <point x="539" y="683" type="line"/>
      <point x="795" y="683" type="line"/>
      <point x="795" y="505" type="line"/>
      <point x="539" y="505" type="line"/>
      <point x="539" y="371" type="line"/>
      <point x="930" y="371" type="line"/>
    </contour>
    <contour>
      <point x="596" y="469" type="curve"/>
      <point x="596" y="816" type="line"/>
      <point x="455" y="816" type="line"/>
      <point x="455" y="468" type="line"/>
      <point x="455" y="317"/>
      <point x="448" y="110"/>
      <point x="357" y="-28" type="curve"/>
      <point x="392" y="-42"/>
      <point x="455" y="-81"/>
      <point x="481" y="-104" type="curve"/>
      <point x="581" y="47"/>
      <point x="596" y="298"/>
    </contour>
  </outline>
</glyph>
<glyph name="ety084_cid06514_H" format="1">
  <advance width="1000"/>
  <outline>
    <contour>
      <point x="931" y="823" type="line"/>
      <point x="499" y="823" type="line"/>
      <point x="499" y="698" type="line"/>
      <point x="797" y="698" type="line"/>
      <point x="797" y="613" type="line"/>
      <point x="499" y="613" type="line"/>
      <point x="499" y="488" type="line"/>
      <point x="931" y="488" type="line"/>
    </contour>
    <contour>
      <point x="440" y="-102" type="curve"/>
      <point x="440" y="-56"/>
      <point x="573" y="-8"/>
      <point x="573" y="-8" type="curve"/>
      <point x="573" y="822" type="line"/>
      <point x="436" y="822" type="line"/>
      <point x="436" y="80" type="line"/>
      <point x="436" y="41"/>
      <point x="417" y="25"/>
      <point x="396" y="16" type="curve"/>
      <point x="414" y="-11"/>
      <point x="434" y="-68"/>
    </contour>
  </outline>
</glyph>
<glyph name="ety085_cid06575_H" format="1">
  <advance width="1000"/>
  <outline>
    <contour>
      <point x="891" y="699" type="line"/>
      <point x="400" y="699" type="line"/>
      <point x="400" y="392" type="line"/>
      <point x="529" y="392" type="line"/>
      <point x="529" y="614" type="line"/>
      <point x="891" y="614" type="line"/>
    </contour>
    <contour>
      <point x="950" y="485" type="curve"/>
      <point x="950" y="700" type="line"/>
      <point x="834" y="700" type="line"/>
      <point x="834" y="487" type="line"/>
      <point x="834" y="475"/>
      <point x="829" y="472"/>
      <point x="816" y="472" type="curve"/>
      <point x="804" y="472"/>
      <point x="754" y="472"/>
      <point x="716" y="473" type="curve"/>
      <point x="729" y="447"/>
      <point x="744" y="409"/>
      <point x="749" y="381" type="curve"/>
      <point x="816" y="381"/>
      <point x="867" y="381"/>
      <point x="903" y="395" type="curve"/>
      <point x="940" y="410"/>
      <point x="950" y="435"/>
    </contour>
  </outline>
</glyph>
<glyph name="ety087_cid06626_EL" format="1">
  <advance width="1000"/>
  <outline>
    <contour>
      <point x="900" y="15" type="curve"/>
      <point x="900" y="368" type="line"/>
      <point x="870" y="368" type="line"/>
      <point x="870" y="28" type="line"/>
      <point x="870" y="-31"/>
      <point x="870" y="-42"/>
      <point x="878" y="-51" type="curve"/>
      <point x="885" y="-60"/>
      <point x="895" y="-63"/>
      <point x="904" y="-63" type="curve"/>
      <point x="909" y="-63"/>
      <point x="914" y="-63"/>
      <point x="919" y="-63" type="curve"/>
      <point x="927" y="-63"/>
      <point x="933" y="-60"/>
      <point x="938" y="-55" type="curve"/>
      <point x="944" y="-50"/>
      <point x="949" y="-41"/>
      <point x="952" y="-25" type="curve"/>
      <point x="955" y="-11"/>
      <point x="956" y="38"/>
      <point x="957" y="81" type="curve"/>
      <point x="947" y="83"/>
      <point x="936" y="88"/>
      <point x="928" y="95" type="curve"/>
      <point x="927" y="48"/>
      <point x="927" y="13"/>
      <point x="925" y="-4" type="curve"/>
      <point x="923" y="-17"/>
      <point x="922" y="-26"/>
      <point x="920" y="-30" type="curve"/>
      <point x="919" y="-34"/>
      <point x="917" y="-35"/>
      <point x="914" y="-35" type="curve"/>
      <point x="911" y="-35"/>
      <point x="909" y="-35"/>
      <point x="907" y="-35" type="curve"/>
      <point x="904" y="-35"/>
      <point x="902" y="-34"/>
      <point x="901" y="-31" type="curve"/>
      <point x="900" y="-27"/>
      <point x="900" y="-10"/>
    </contour>
    <contour>
      <point x="890" y="369" type="line"/>
      <point x="757" y="369" type="line"/>
      <point x="757" y="339" type="line"/>
      <point x="890" y="339" type="line"/>
    </contour>
  </outline>
</glyph>
<glyph name="ety088_cid06658_H" format="1">
  <advance width="1000"/>
  <outline>
    <contour>
      <point x="957" y="305" type="line"/>
      <point x="187" y="305" type="line"/>
      <point x="187" y="182" type="line"/>
      <point x="957" y="182" type="line"/>
    </contour>
    <contour>
      <point x="314" y="354" type="curve"/>
      <point x="160" y="369" type="line"/>
      <point x="147" y="307"/>
      <point x="126" y="232"/>
      <point x="108" y="181" type="curve"/>
      <point x="253" y="181" type="line"/>
      <point x="272" y="228"/>
      <point x="296" y="296"/>
    </contour>
  </outline>
</glyph>
<glyph name="ety089_cid06684_EL" format="1">
  <advance width="1000"/>
  <outline>
    <contour>
      <point x="543" y="782" type="curve"/>
      <point x="514" y="782" type="line"/>
      <point x="500" y="570"/>
      <point x="469" y="247"/>
      <point x="444" y="76" type="curve"/>
      <point x="476" y="76" type="line"/>
      <point x="498" y="244"/>
      <point x="526" y="566"/>
    </contour>
    <contour>
      <point x="921" y="106" type="line"/>
      <point x="465" y="106" type="line"/>
      <point x="465" y="77" type="line"/>
      <point x="921" y="77" type="line"/>
    </contour>
  </outline>
</glyph>
<glyph name="ety090_cid06721_EL" format="1">
  <advance width="1000"/>
  <outline>
    <contour>
      <point x="216" y="776" type="line"/>
      <point x="74" y="776" type="line"/>
      <point x="74" y="747" type="line"/>
      <point x="216" y="747" type="line"/>
    </contour>
    <contour>
      <point x="231" y="-11" type="curve"/>
      <point x="231" y="777" type="line"/>
      <point x="202" y="777" type="line"/>
      <point x="202" y="-11" type="line"/>
      <point x="202" y="-23"/>
      <point x="198" y="-26"/>
      <point x="187" y="-27" type="curve"/>
      <point x="176" y="-27"/>
      <point x="138" y="-28"/>
      <point x="95" y="-26" type="curve"/>
      <point x="100" y="-36"/>
      <point x="105" y="-51"/>
      <point x="107" y="-59" type="curve"/>
      <point x="157" y="-59"/>
      <point x="190" y="-58"/>
      <point x="208" y="-53" type="curve"/>
      <point x="225" y="-47"/>
      <point x="231" y="-35"/>
    </contour>
  </outline>
</glyph>
<glyph name="ety092_cid06797_EL" format="1">
  <advance width="1000"/>
  <outline>
    <contour>
      <point x="346" y="792" type="line"/>
      <point x="133" y="792" type="line"/>
      <point x="133" y="763" type="line"/>
      <point x="346" y="763" type="line"/>
    </contour>
    <contour>
      <point x="360" y="-15" type="curve"/>
      <point x="360" y="791" type="line"/>
      <point x="330" y="791" type="line"/>
      <point x="330" y="-15" type="line"/>
      <point x="330" y="-29"/>
      <point x="325" y="-34"/>
      <point x="311" y="-35" type="curve"/>
      <point x="297" y="-35"/>
      <point x="251" y="-36"/>
      <point x="194" y="-34" type="curve"/>
      <point x="199" y="-43"/>
      <point x="205" y="-56"/>
      <point x="207" y="-64" type="curve"/>
      <point x="276" y="-64"/>
      <point x="312" y="-64"/>
      <point x="332" y="-58" type="curve"/>
      <point x="351" y="-53"/>
      <point x="360" y="-41"/>
    </contour>
  </outline>
</glyph>
<glyph name="ety094_cid06946_H" format="1">
  <advance width="1000"/>
  <outline>
    <contour>
      <point x="620" y="148" type="curve"/>
      <point x="490" y="148" type="line"/>
      <point x="486" y="97"/>
      <point x="477" y="36"/>
      <point x="468" y="-7" type="curve"/>
      <point x="593" y="-7" type="line"/>
      <point x="603" y="34"/>
      <point x="613" y="95"/>
    </contour>
    <contour>
      <point x="961" y="87" type="line"/>
      <point x="497" y="87" type="line"/>
      <point x="497" y="-8" type="line"/>
      <point x="961" y="-8" type="line"/>
    </contour>
  </outline>
</glyph>
<glyph name="ety095_cid06948_H" format="1">
  <advance width="1000"/>
  <outline>
    <contour>
      <point x="374" y="736" type="line"/>
      <point x="171" y="736" type="line"/>
      <point x="171" y="625" type="line"/>
      <point x="374" y="625" type="line"/>
    </contour>
    <contour>
      <point x="463" y="44" type="curve"/>
      <point x="463" y="735" type="line"/>
      <point x="334" y="735" type="line"/>
      <point x="334" y="47" type="line"/>
      <point x="334" y="35"/>
      <point x="330" y="31"/>
      <point x="320" y="31" type="curve"/>
      <point x="309" y="31"/>
      <point x="278" y="31"/>
      <point x="251" y="32" type="curve"/>
      <point x="267" y="-1"/>
      <point x="285" y="-58"/>
      <point x="288" y="-94" type="curve"/>
      <point x="346" y="-94"/>
      <point x="388" y="-90"/>
      <point x="421" y="-69" type="curve"/>
      <point x="455" y="-47"/>
      <point x="463" y="-12"/>
    </contour>
  </outline>
</glyph>
<glyph name="ety096_cid06956_H" format="1">
  <advance width="1000"/>
  <outline>
    <contour>
      <point x="321" y="736" type="line"/>
      <point x="130" y="736" type="line"/>
      <point x="130" y="625" type="line"/>
      <point x="321" y="625" type="line"/>
    </contour>
    <contour>
      <point x="407" y="46" type="curve"/>
      <point x="407" y="738" type="line"/>
      <point x="298" y="738" type="line"/>
      <point x="298" y="47" type="line"/>
      <point x="298" y="34"/>
      <point x="294" y="30"/>
      <point x="282" y="30" type="curve"/>
      <point x="270" y="30"/>
      <point x="232" y="29"/>
      <point x="198" y="31" type="curve"/>
      <point x="213" y="1"/>
      <point x="228" y="-50"/>
      <point x="232" y="-82" type="curve"/>
      <point x="292" y="-82"/>
      <point x="335" y="-79"/>
      <point x="366" y="-60" type="curve"/>
      <point x="398" y="-41"/>
      <point x="407" y="-9"/>
    </contour>
  </outline>
</glyph>
<glyph name="ety097_cid06960_EL" format="1">
  <advance width="1000"/>
  <outline>
    <contour>
      <point x="355" y="704" type="line"/>
      <point x="128" y="704" type="line"/>
      <point x="128" y="674" type="line"/>
      <point x="355" y="674" type="line"/>
    </contour>
    <contour>
      <point x="148" y="333" type="curve"/>
      <point x="148" y="703" type="line"/>
      <point x="118" y="703" type="line"/>
      <point x="118" y="333" type="line"/>
      <point x="118" y="212"/>
      <point x="112" y="56"/>
      <point x="45" y="-54" type="curve"/>
      <point x="53" y="-58"/>
      <point x="65" y="-67"/>
      <point x="71" y="-73" type="curve"/>
      <point x="138" y="39"/>
      <point x="148" y="207"/>
    </contour>
  </outline>
</glyph>
<glyph name="ety098_cid06983_EL" format="1">
  <advance width="1000"/>
  <outline>
    <contour>
      <point x="325" y="694" type="line"/>
      <point x="128" y="694" type="line"/>
      <point x="128" y="665" type="line"/>
      <point x="325" y="665" type="line"/>
    </contour>
    <contour>
      <point x="341" y="-20" type="curve"/>
      <point x="341" y="693" type="line"/>
      <point x="314" y="693" type="line"/>
      <point x="314" y="-20" type="line"/>
      <point x="314" y="-32"/>
      <point x="310" y="-35"/>
      <point x="300" y="-35" type="curve"/>
      <point x="291" y="-36"/>
      <point x="261" y="-36"/>
      <point x="223" y="-35" type="curve"/>
      <point x="228" y="-43"/>
      <point x="232" y="-56"/>
      <point x="234" y="-64" type="curve"/>
      <point x="280" y="-64"/>
      <point x="306" y="-64"/>
      <point x="321" y="-58" type="curve"/>
      <point x="335" y="-53"/>
      <point x="341" y="-42"/>
    </contour>
  </outline>
</glyph>
<glyph name="ety099_cid07019_H" format="1">
  <advance width="1000"/>
  <outline>
    <contour>
      <point x="236" y="421" type="curve"/>
      <point x="109" y="421" type="line"/>
      <point x="103" y="323"/>
      <point x="89" y="203"/>
      <point x="76" y="122" type="curve"/>
      <point x="204" y="122" type="line"/>
      <point x="216" y="200"/>
      <point x="228" y="320"/>
    </contour>
    <contour>
      <point x="444" y="245" type="line"/>
      <point x="151" y="245" type="line"/>
      <point x="137" y="123" type="line"/>
      <point x="444" y="123" type="line"/>
    </contour>
  </outline>
</glyph>
<glyph name="ety100_cid07129_H" format="1">
  <advance width="1000"/>
  <outline>
    <contour>
      <point x="787" y="434" type="line"/>
      <point x="283" y="434" type="line"/>
      <point x="283" y="357" type="line"/>
      <point x="650" y="357" type="line"/>
      <point x="650" y="216" type="line"/>
      <point x="283" y="216" type="line"/>
      <point x="283" y="138" type="line"/>
      <point x="787" y="138" type="line"/>
    </contour>
    <contour>
      <point x="224" y="-90" type="curve"/>
      <point x="224" y="-44"/>
      <point x="356" y="37"/>
      <point x="356" y="37" type="curve"/>
      <point x="356" y="435" type="line"/>
      <point x="215" y="435" type="line"/>
      <point x="215" y="107" type="line"/>
      <point x="215" y="59"/>
      <point x="188" y="28"/>
      <point x="164" y="12" type="curve"/>
      <point x="185" y="-9"/>
      <point x="215" y="-61"/>
    </contour>
  </outline>
</glyph>
<glyph name="ety101_cid07133_H" format="1">
  <advance width="1000"/>
  <outline>
    <contour>
      <point x="846" y="360" type="line"/>
      <point x="575" y="360" type="line"/>
      <point x="575" y="239" type="line"/>
      <point x="846" y="239" type="line"/>
    </contour>
    <contour>
      <point x="918" y="604" type="line"/>
      <point x="494" y="604" type="line"/>
      <point x="494" y="483" type="line"/>
      <point x="776" y="483" type="line"/>
      <point x="776" y="240" type="line"/>
      <point x="918" y="240" type="line"/>
    </contour>
  </outline>
</glyph>
<glyph name="ety102_cid07254_H" format="1">
  <advance width="1000"/>
  <outline>
    <contour>
      <point x="522" y="335" type="line"/>
      <point x="273" y="335" type="line"/>
      <point x="273" y="259" type="line"/>
      <point x="413" y="259" type="line"/>
      <point x="413" y="151" type="line"/>
      <point x="522" y="151" type="line"/>
    </contour>
    <contour>
      <point x="447" y="234" type="line"/>
      <point x="308" y="234" type="line"/>
      <point x="291" y="152" type="line"/>
      <point x="447" y="152" type="line"/>
    </contour>
  </outline>
</glyph>
<glyph name="ety103_cid07254_H" format="1">
  <advance width="1000"/>
  <outline>
    <contour>
      <point x="448" y="130" type="line"/>
      <point x="289" y="130" type="line"/>
      <point x="273" y="54" type="line"/>
      <point x="448" y="54" type="line"/>
    </contour>
    <contour>
      <point x="365" y="234" type="curve"/>
      <point x="263" y="234" type="line"/>
      <point x="256" y="175"/>
      <point x="243" y="103"/>
      <point x="230" y="55" type="curve"/>
      <point x="335" y="55" type="line"/>
      <point x="345" y="102"/>
      <point x="356" y="173"/>
    </contour>
  </outline>
</glyph>
<glyph name="ety106_cid07387_H" format="1">
  <advance width="1000"/>
  <outline>
    <contour>
      <point x="820" y="635" type="line"/>
      <point x="599" y="635" type="line"/>
      <point x="599" y="525" type="line"/>
      <point x="820" y="525" type="line"/>
    </contour>
    <contour>
      <point x="877" y="511" type="curve"/>
      <point x="877" y="636" type="line"/>
      <point x="751" y="636" type="line"/>
      <point x="751" y="511" type="line"/>
      <point x="751" y="501"/>
      <point x="747" y="499"/>
      <point x="736" y="498" type="curve"/>
      <point x="726" y="498"/>
      <point x="686" y="498"/>
      <point x="658" y="500" type="curve"/>
      <point x="671" y="475"/>
      <point x="687" y="441"/>
      <point x="694" y="413" type="curve"/>
      <point x="751" y="413"/>
      <point x="797" y="413"/>
      <point x="831" y="426" type="curve"/>
      <point x="866" y="440"/>
      <point x="877" y="462"/>
    </contour>
  </outline>
</glyph>
<glyph name="ety107_cid07581_H" format="1">
  <advance width="1000"/>
  <outline>
    <contour>
      <point x="584" y="142" type="line"/>
      <point x="320" y="142" type="line"/>
      <point x="320" y="43" type="line"/>
      <point x="584" y="43" type="line"/>
    </contour>
    <contour>
      <point x="408" y="234" type="curve"/>
      <point x="316" y="240" type="line"/>
      <point x="310" y="176"/>
      <point x="299" y="95"/>
      <point x="289" y="42" type="curve"/>
      <point x="390" y="42" type="line"/>
      <point x="397" y="90"/>
      <point x="404" y="170"/>
    </contour>
  </outline>
</glyph>
<glyph name="ety108_cid07651_EL" format="1">
  <advance width="1000"/>
  <outline>
    <contour>
      <point x="868" y="625" type="line"/>
      <point x="515" y="625" type="line"/>
      <point x="515" y="596" type="line"/>
      <point x="868" y="596" type="line"/>
    </contour>
    <contour>
      <point x="597" y="773" type="curve"/>
      <point x="566" y="773" type="line"/>
      <point x="546" y="717"/>
      <point x="519" y="645"/>
      <point x="495" y="597" type="curve"/>
      <point x="527" y="597" type="line"/>
      <point x="548" y="642"/>
      <point x="575" y="714"/>
    </contour>
  </outline>
</glyph>
<glyph name="ety110_cid07699_EL" format="1">
  <advance width="1000"/>
  <outline>
    <contour>
      <point x="432" y="628" type="line"/>
      <point x="403" y="628" type="line"/>
      <point x="403" y="237" type="line"/>
      <point x="653" y="237" type="line"/>
      <point x="653" y="267" type="line"/>
      <point x="432" y="267" type="line"/>
    </contour>
    <contour>
      <point x="672" y="235" type="curve"/>
      <point x="672" y="266" type="line"/>
      <point x="642" y="266" type="line"/>
      <point x="642" y="235" type="line"/>
      <point x="642" y="160"/>
      <point x="629" y="37"/>
      <point x="357" y="-49" type="curve"/>
      <point x="364" y="-55"/>
      <point x="373" y="-65"/>
      <point x="378" y="-72" type="curve"/>
      <point x="655" y="24"/>
      <point x="672" y="153"/>
    </contour>
  </outline>
</glyph>
<glyph name="ety111_cid07699_H" format="1">
  <advance width="1000"/>
  <outline>
    <contour>
      <point x="515" y="723" type="line"/>
      <point x="402" y="723" type="line"/>
      <point x="402" y="202" type="line"/>
      <point x="729" y="202" type="line"/>
      <point x="729" y="305" type="line"/>
      <point x="515" y="305" type="line"/>
    </contour>
    <contour>
      <point x="746" y="202" type="curve"/>
      <point x="746" y="304" type="line"/>
      <point x="632" y="304" type="line"/>
      <point x="632" y="205" type="line"/>
      <point x="632" y="139"/>
      <point x="603" y="42"/>
      <point x="361" y="-16" type="curve"/>
      <point x="388" y="-37"/>
      <point x="422" y="-75"/>
      <point x="437" y="-100" type="curve"/>
      <point x="707" y="-22"/>
      <point x="746" y="100"/>
    </contour>
  </outline>
</glyph>
<glyph name="ety112_cid07716_H" format="1">
  <advance width="1000"/>
  <outline>
    <contour>
      <point x="640" y="554" type="line"/>
      <point x="640" y="652" type="line"/>
      <point x="400" y="652" type="line"/>
      <point x="400" y="416" type="line"/>
      <point x="640" y="416" type="line"/>
      <point x="640" y="513" type="line"/>
      <point x="513" y="513" type="line"/>
      <point x="513" y="554" type="line"/>
    </contour>
    <contour>
      <point x="639" y="477" type="line"/>
      <point x="517" y="477" type="line"/>
      <point x="517" y="310" type="line"/>
      <point x="639" y="310" type="line"/>
    </contour>
  </outline>
</glyph>
<glyph name="ety113_cid07829_EL" format="1">
  <advance width="1000"/>
  <outline>
    <contour>
      <point x="837" y="405" type="line"/>
      <point x="446" y="405" type="line"/>
      <point x="446" y="-68" type="line"/>
      <point x="476" y="-68" type="line"/>
      <point x="476" y="376" type="line"/>
      <point x="837" y="376" type="line"/>
    </contour>
    <contour>
      <point x="853" y="-18" type="curve"/>
      <point x="853" y="406" type="line"/>
      <point x="823" y="406" type="line"/>
      <point x="823" y="-19" type="line"/>
      <point x="823" y="-33"/>
      <point x="819" y="-37"/>
      <point x="803" y="-38" type="curve"/>
      <point x="787" y="-39"/>
      <point x="734" y="-39"/>
      <point x="664" y="-38" type="curve"/>
      <point x="669" y="-47"/>
      <point x="674" y="-59"/>
      <point x="676" y="-66" type="curve"/>
      <point x="756" y="-67"/>
      <point x="802" y="-67"/>
      <point x="824" y="-62" type="curve"/>
      <point x="847" y="-56"/>
      <point x="853" y="-44"/>
    </contour>
  </outline>
</glyph>
<glyph name="ety114_cid07860_H" format="1">
  <advance width="1000"/>
  <outline>
    <contour>
      <point x="868" y="439" type="line"/>
      <point x="548" y="439" type="line"/>
      <point x="548" y="313" type="line"/>
      <point x="868" y="313" type="line"/>
    </contour>
    <contour>
      <point x="606" y="643" type="line"/>
      <point x="486" y="643" type="line"/>
      <point x="486" y="314" type="line"/>
      <point x="606" y="314" type="line"/>
    </contour>
  </outline>
</glyph>
<glyph name="ety115_cid07876_H" format="1">
  <advance width="1000"/>
  <outline>
    <contour>
      <point x="948" y="808" type="line"/>
      <point x="468" y="808" type="line"/>
      <point x="468" y="97" type="line"/>
      <point x="592" y="97" type="line"/>
      <point x="592" y="675" type="line"/>
      <point x="948" y="675" type="line"/>
    </contour>
    <contour>
      <point x="946" y="221" type="line"/>
      <point x="536" y="221" type="line"/>
      <point x="536" y="98" type="line"/>
      <point x="946" y="98" type="line"/>
    </contour>
  </outline>
</glyph>
<glyph name="ety116_cid08029_H" format="1">
  <advance width="1000"/>
  <outline>
    <contour>
      <point x="329" y="753" type="line"/>
      <point x="76" y="753" type="line"/>
      <point x="76" y="286" type="line"/>
      <point x="191" y="286" type="line"/>
      <point x="191" y="659" type="line"/>
      <point x="329" y="659" type="line"/>
    </contour>
    <contour>
      <point x="374" y="29" type="curve"/>
      <point x="374" y="752" type="line"/>
      <point x="259" y="752" type="line"/>
      <point x="259" y="31" type="line"/>
      <point x="259" y="18"/>
      <point x="254" y="14"/>
      <point x="241" y="14" type="curve"/>
      <point x="227" y="13"/>
      <point x="185" y="13"/>
      <point x="144" y="15" type="curve"/>
      <point x="161" y="-12"/>
      <point x="178" y="-60"/>
      <point x="182" y="-88" type="curve"/>
      <point x="249" y="-88"/>
      <point x="296" y="-85"/>
      <point x="330" y="-68" type="curve"/>
      <point x="364" y="-50"/>
      <point x="374" y="-20"/>
    </contour>
  </outline>
</glyph>
<glyph name="ety117_cid08143_H" format="1">
  <advance width="1000"/>
  <outline>
    <contour>
      <point x="961" y="264" type="line"/>
      <point x="668" y="264" type="line"/>
      <point x="668" y="165" type="line"/>
      <point x="961" y="165" type="line"/>
    </contour>
    <contour>
      <point x="733" y="336" type="curve"/>
      <point x="641" y="336" type="line"/>
      <point x="638" y="280"/>
      <point x="631" y="213"/>
      <point x="623" y="166" type="curve"/>
      <point x="720" y="166" type="line"/>
      <point x="725" y="211"/>
      <point x="730" y="278"/>
    </contour>
  </outline>
</glyph>
<glyph name="ety119_cid08152_EL" format="1">
  <advance width="1000"/>
  <outline>
    <contour>
      <point x="427" y="773" type="line"/>
      <point x="167" y="773" type="line"/>
      <point x="167" y="744" type="line"/>
      <point x="427" y="744" type="line"/>
    </contour>
    <contour>
      <point x="393" y="60" type="curve"/>
      <point x="393" y="74"/>
      <point x="436" y="107"/>
      <point x="436" y="107" type="curve"/>
      <point x="436" y="772" type="line"/>
      <point x="407" y="772" type="line"/>
      <point x="407" y="153" type="line"/>
      <point x="407" y="113"/>
      <point x="386" y="95"/>
      <point x="375" y="88" type="curve"/>
      <point x="381" y="81"/>
      <point x="389" y="68"/>
    </contour>
  </outline>
</glyph>
<glyph name="ety120_cid08279_EL" format="1">
  <advance width="1000"/>
  <outline>
    <contour>
      <point x="907" y="626" type="line"/>
      <point x="447" y="626" type="line"/>
      <point x="447" y="597" type="line"/>
      <point x="907" y="597" type="line"/>
    </contour>
    <contour>
      <point x="918" y="790" type="line"/>
      <point x="889" y="790" type="line"/>
      <point x="889" y="596" type="line"/>
      <point x="918" y="596" type="line"/>
    </contour>
  </outline>
</glyph>
<glyph name="ety121_cid08279_EL" format="1">
  <advance width="1000"/>
  <outline>
    <contour>
      <point x="907" y="626" type="line"/>
      <point x="447" y="626" type="line"/>
      <point x="447" y="597" type="line"/>
      <point x="907" y="597" type="line"/>
    </contour>
    <contour>
      <point x="465" y="790" type="line"/>
      <point x="435" y="790" type="line"/>
      <point x="435" y="596" type="line"/>
      <point x="465" y="596" type="line"/>
    </contour>
  </outline>
</glyph>
<glyph name="ety122_cid08339_EL" format="1">
  <advance width="1000"/>
  <outline>
    <contour>
      <point x="715" y="286" type="line"/>
      <point x="487" y="286" type="line"/>
      <point x="487" y="257" type="line"/>
      <point x="685" y="257" type="line"/>
      <point x="685" y="152" type="line"/>
      <point x="487" y="152" type="line"/>
      <point x="487" y="123" type="line"/>
      <point x="715" y="123" type="line"/>
    </contour>
    <contour>
      <point x="501" y="14" type="curve"/>
      <point x="501" y="287" type="line"/>
      <point x="472" y="287" type="line"/>
      <point x="472" y="14" type="line"/>
      <point x="472" y="-43"/>
      <point x="498" y="-53"/>
      <point x="588" y="-53" type="curve"/>
      <point x="608" y="-53"/>
      <point x="836" y="-53"/>
      <point x="857" y="-53" type="curve"/>
      <point x="938" y="-53"/>
      <point x="952" y="-25"/>
      <point x="959" y="92" type="curve"/>
      <point x="949" y="95"/>
      <point x="937" y="99"/>
      <point x="929" y="106" type="curve"/>
      <point x="924" y="-6"/>
      <point x="915" y="-23"/>
      <point x="857" y="-23" type="curve"/>
      <point x="811" y="-23"/>
      <point x="618" y="-23"/>
      <point x="584" y="-23" type="curve"/>
      <point x="514" y="-23"/>
      <point x="501" y="-16"/>
    </contour>
  </outline>
</glyph>
<glyph name="ety123_cid08339_H" format="1">
  <advance width="1000"/>
  <outline>
    <contour>
      <point x="725" y="285" type="line"/>
      <point x="545" y="285" type="line"/>
      <point x="545" y="203" type="line"/>
      <point x="636" y="203" type="line"/>
      <point x="636" y="177" type="line"/>
      <point x="545" y="177" type="line"/>
      <point x="545" y="95" type="line"/>
      <point x="725" y="95" type="line"/>
    </contour>
    <contour>
      <point x="592" y="68" type="curve"/>
      <point x="592" y="284" type="line"/>
      <point x="481" y="284" type="line"/>
      <point x="481" y="67" type="line"/>
      <point x="481" y="-36"/>
      <point x="519" y="-64"/>
      <point x="649" y="-64" type="curve"/>
      <point x="677" y="-64"/>
      <point x="814" y="-64"/>
      <point x="843" y="-64" type="curve"/>
      <point x="945" y="-64"/>
      <point x="977" y="-35"/>
      <point x="990" y="79" type="curve"/>
      <point x="960" y="85"/>
      <point x="915" y="100"/>
      <point x="891" y="116" type="curve"/>
      <point x="886" y="42"/>
      <point x="877" y="30"/>
      <point x="833" y="30" type="curve"/>
      <point x="800" y="30"/>
      <point x="686" y="30"/>
      <point x="660" y="30" type="curve"/>
      <point x="602" y="30"/>
      <point x="592" y="35"/>
    </contour>
  </outline>
</glyph>
<glyph name="ety124_cid08360_H" format="1">
  <advance width="1000"/>
  <outline>
    <contour>
      <point x="273" y="563" type="line"/>
      <point x="74" y="563" type="line"/>
      <point x="35" y="481" type="line"/>
      <point x="273" y="481" type="line"/>
    </contour>
    <contour>
      <point x="180" y="685" type="curve"/>
      <point x="66" y="685" type="line"/>
      <point x="59" y="618"/>
      <point x="47" y="537"/>
      <point x="34" y="482" type="curve"/>
      <point x="149" y="482" type="line"/>
      <point x="160" y="535"/>
      <point x="171" y="616"/>
    </contour>
  </outline>
</glyph>
<glyph name="ety125_cid08400_H" format="1">
  <advance width="1000"/>
  <outline>
    <contour>
      <point x="928" y="42" type="curve"/>
      <point x="928" y="826" type="line"/>
      <point x="789" y="826" type="line"/>
      <point x="789" y="44" type="line"/>
      <point x="789" y="32"/>
      <point x="785" y="27"/>
      <point x="773" y="27" type="curve"/>
      <point x="762" y="27"/>
      <point x="728" y="26"/>
      <point x="701" y="28" type="curve"/>
      <point x="718" y="-5"/>
      <point x="735" y="-63"/>
      <point x="738" y="-98" type="curve"/>
      <point x="801" y="-98"/>
      <point x="848" y="-95"/>
      <point x="883" y="-74" type="curve"/>
      <point x="918" y="-52"/>
      <point x="928" y="-18"/>
    </contour>
    <contour>
      <point x="860" y="737" type="line"/>
      <point x="860" y="827" type="line"/>
      <point x="520" y="827" type="line"/>
      <point x="520" y="510" type="line"/>
      <point x="860" y="510" type="line"/>
      <point x="860" y="599" type="line"/>
      <point x="658" y="599" type="line"/>
      <point x="658" y="737" type="line"/>
    </contour>
  </outline>
</glyph>
<glyph name="ety126_cid08407_H" format="1">
  <advance width="1000"/>
  <outline>
    <contour>
      <point x="375" y="449" type="line"/>
      <point x="253" y="449" type="line"/>
      <point x="253" y="152" type="line"/>
      <point x="375" y="152" type="line"/>
    </contour>
    <contour>
      <point x="621" y="234" type="line"/>
      <point x="310" y="234" type="line"/>
      <point x="310" y="151" type="line"/>
      <point x="749" y="151" type="line"/>
      <point x="749" y="462" type="line"/>
      <point x="518" y="462" type="line"/>
      <point x="518" y="379" type="line"/>
      <point x="621" y="379" type="line"/>
    </contour>
  </outline>
</glyph>
<glyph name="ety128_cid08534_H" format="1">
  <advance width="1000"/>
  <outline>
    <contour>
      <point x="656" y="33" type="line"/>
      <point x="250" y="33" type="line"/>
      <point x="250" y="-53" type="line"/>
      <point x="656" y="-53" type="line"/>
    </contour>
    <contour>
      <point x="326" y="141" type="line"/>
      <point x="190" y="141" type="line"/>
      <point x="190" y="-54" type="line"/>
      <point x="326" y="-54" type="line"/>
    </contour>
  </outline>
</glyph>
<glyph name="ety129_cid08559_EL" format="1">
  <advance width="1000"/>
  <outline>
    <contour>
      <point x="876" y="442" type="line"/>
      <point x="847" y="442" type="line"/>
      <point x="847" y="170" type="line"/>
      <point x="581" y="170" type="line"/>
      <point x="581" y="140" type="line"/>
      <point x="876" y="140" type="line"/>
    </contour>
    <contour>
      <point x="604" y="169" type="line"/>
      <point x="574" y="169" type="line"/>
      <point x="574" y="-69" type="line"/>
      <point x="604" y="-69" type="line"/>
    </contour>
  </outline>
</glyph>
<glyph name="ety131_cid08633_H" format="1">
  <advance width="1000"/>
  <outline>
    <contour>
      <point x="609" y="659" type="line"/>
      <point x="494" y="659" type="line"/>
      <point x="494" y="249" type="line"/>
      <point x="609" y="249" type="line"/>
    </contour>
    <contour>
      <point x="911" y="449" type="line"/>
      <point x="532" y="449" type="line"/>
      <point x="532" y="361" type="line"/>
      <point x="800" y="361" type="line"/>
      <point x="800" y="338" type="line"/>
      <point x="532" y="338" type="line"/>
      <point x="532" y="250" type="line"/>
      <point x="911" y="250" type="line"/>
    </contour>
  </outline>
</glyph>
<glyph name="ety132_cid08811_EL" format="1">
  <advance width="1000"/>
  <outline>
    <contour>
      <point x="761" y="326" type="line"/>
      <point x="263" y="326" type="line"/>
      <point x="263" y="296" type="line"/>
      <point x="731" y="296" type="line"/>
      <point x="731" y="133" type="line"/>
      <point x="263" y="133" type="line"/>
      <point x="263" y="104" type="line"/>
      <point x="761" y="104" type="line"/>
    </contour>
    <contour>
      <point x="232" y="-73" type="curve"/>
      <point x="232" y="-59"/>
      <point x="276" y="-29"/>
      <point x="276" y="-29" type="curve"/>
      <point x="276" y="324" type="line"/>
      <point x="245" y="324" type="line"/>
      <point x="245" y="18" type="line"/>
      <point x="245" y="-21"/>
      <point x="226" y="-37"/>
      <point x="215" y="-43" type="curve"/>
      <point x="221" y="-51"/>
      <point x="230" y="-65"/>
    </contour>
  </outline>
</glyph>
<glyph name="ety135_cid08845_EL" format="1">
  <advance width="1000"/>
  <outline>
    <contour>
      <point x="750" y="93" type="line"/>
      <point x="497" y="93" type="line"/>
      <point x="497" y="64" type="line"/>
      <point x="750" y="64" type="line"/>
    </contour>
    <contour>
      <point x="770" y="295" type="line"/>
      <point x="483" y="295" type="line"/>
      <point x="483" y="10" type="line"/>
      <point x="515" y="10" type="line"/>
      <point x="515" y="266" type="line"/>
      <point x="738" y="266" type="line"/>
      <point x="738" y="65" type="line"/>
      <point x="770" y="65" type="line"/>
    </contour>
  </outline>
</glyph>
<glyph name="ety136_cid08845_H" format="1">
  <advance width="1000"/>
  <outline>
    <contour>
      <point x="757" y="140" type="line"/>
      <point x="510" y="140" type="line"/>
      <point x="510" y="42" type="line"/>
      <point x="757" y="42" type="line"/>
    </contour>
    <contour>
      <point x="791" y="312" type="line"/>
      <point x="468" y="312" type="line"/>
      <point x="468" y="8" type="line"/>
      <point x="569" y="8" type="line"/>
      <point x="569" y="203" type="line"/>
      <point x="684" y="203" type="line"/>
      <point x="684" y="43" type="line"/>
      <point x="791" y="43" type="line"/>
    </contour>
  </outline>
</glyph>
<glyph name="ety137_cid08850_H" format="1">
  <advance width="1000"/>
  <outline>
    <contour>
      <point x="792" y="303" type="line"/>
      <point x="288" y="303" type="line"/>
      <point x="288" y="237" type="line"/>
      <point x="655" y="237" type="line"/>
      <point x="655" y="136" type="line"/>
      <point x="288" y="136" type="line"/>
      <point x="288" y="71" type="line"/>
      <point x="792" y="71" type="line"/>
    </contour>
    <contour>
      <point x="224" y="-92" type="curve"/>
      <point x="224" y="-52"/>
      <point x="356" y="22"/>
      <point x="356" y="22" type="curve"/>
      <point x="356" y="302" type="line"/>
      <point x="215" y="302" type="line"/>
      <point x="215" y="85" type="line"/>
      <point x="215" y="41"/>
      <point x="188" y="14"/>
      <point x="164" y="0" type="curve"/>
      <point x="185" y="-20"/>
      <point x="215" y="-66"/>
    </contour>
  </outline>
</glyph>
<glyph name="ety139_cid08860_H" format="1">
  <advance width="1000"/>
  <outline>
    <contour>
      <point x="386" y="571" type="line"/>
      <point x="162" y="571" type="line"/>
      <point x="162" y="469" type="line"/>
      <point x="262" y="469" type="line"/>
      <point x="262" y="285" type="line"/>
      <point x="160" y="285" type="line"/>
      <point x="160" y="182" type="line"/>
      <point x="386" y="182" type="line"/>
    </contour>
    <contour>
      <point x="91" y="-94" type="curve"/>
      <point x="91" y="-51"/>
      <point x="199" y="4"/>
      <point x="199" y="4" type="curve"/>
      <point x="199" y="572" type="line"/>
      <point x="78" y="572" type="line"/>
      <point x="78" y="94" type="line"/>
      <point x="78" y="53"/>
      <point x="61" y="31"/>
      <point x="42" y="19" type="curve"/>
      <point x="61" y="-7"/>
      <point x="84" y="-62"/>
    </contour>
  </outline>
</glyph>
<glyph name="ety141_cid08905_EL" format="1">
  <advance width="1000"/>
  <outline>
    <contour>
      <point x="418" y="321" type="line"/>
      <point x="113" y="321" type="line"/>
      <point x="113" y="291" type="line"/>
      <point x="418" y="291" type="line"/>
    </contour>
    <contour>
      <point x="439" y="786" type="line"/>
      <point x="99" y="786" type="line"/>
      <point x="99" y="292" type="line"/>
      <point x="129" y="292" type="line"/>
      <point x="129" y="757" type="line"/>
      <point x="439" y="757" type="line"/>
    </contour>
  </outline>
</glyph>
<glyph name="ety142_cid08908_EL" format="1">
  <advance width="1000"/>
  <outline>
    <contour>
      <point x="418" y="320" type="line"/>
      <point x="113" y="320" type="line"/>
      <point x="113" y="290" type="line"/>
      <point x="418" y="290" type="line"/>
    </contour>
    <contour>
      <point x="432" y="785" type="line"/>
      <point x="99" y="785" type="line"/>
      <point x="99" y="291" type="line"/>
      <point x="129" y="291" type="line"/>
      <point x="129" y="756" type="line"/>
      <point x="432" y="756" type="line"/>
    </contour>
  </outline>
</glyph>
<glyph name="ety143_cid08913_EL" format="1">
  <advance width="1000"/>
  <outline>
    <contour>
      <point x="427" y="320" type="line"/>
      <point x="113" y="320" type="line"/>
      <point x="113" y="290" type="line"/>
      <point x="427" y="290" type="line"/>
    </contour>
    <contour>
      <point x="450" y="785" type="line"/>
      <point x="99" y="785" type="line"/>
      <point x="99" y="291" type="line"/>
      <point x="129" y="291" type="line"/>
      <point x="129" y="756" type="line"/>
      <point x="450" y="756" type="line"/>
    </contour>
  </outline>
</glyph>
<glyph name="ety144_cid08924_EL" format="1">
  <advance width="1000"/>
  <outline>
    <contour>
      <point x="414" y="320" type="line"/>
      <point x="113" y="320" type="line"/>
      <point x="113" y="290" type="line"/>
      <point x="414" y="290" type="line"/>
    </contour>
    <contour>
      <point x="422" y="785" type="line"/>
      <point x="98" y="785" type="line"/>
      <point x="98" y="291" type="line"/>
      <point x="128" y="291" type="line"/>
      <point x="128" y="756" type="line"/>
      <point x="422" y="756" type="line"/>
    </contour>
  </outline>
</glyph>
<glyph name="ety145_cid08934_EL" format="1">
  <advance width="1000"/>
  <outline>
    <contour>
      <point x="339" y="320" type="line"/>
      <point x="114" y="320" type="line"/>
      <point x="114" y="290" type="line"/>
      <point x="339" y="290" type="line"/>
    </contour>
    <contour>
      <point x="362" y="785" type="line"/>
      <point x="99" y="785" type="line"/>
      <point x="99" y="291" type="line"/>
      <point x="130" y="291" type="line"/>
      <point x="130" y="756" type="line"/>
      <point x="362" y="756" type="line"/>
    </contour>
  </outline>
</glyph>
<glyph name="ety147_cid08940_EL" format="1">
  <advance width="1000"/>
  <outline>
    <contour>
      <point x="396" y="320" type="line"/>
      <point x="113" y="320" type="line"/>
      <point x="113" y="290" type="line"/>
      <point x="396" y="290" type="line"/>
    </contour>
    <contour>
      <point x="409" y="785" type="line"/>
      <point x="99" y="785" type="line"/>
      <point x="99" y="291" type="line"/>
      <point x="129" y="291" type="line"/>
      <point x="129" y="756" type="line"/>
      <point x="409" y="756" type="line"/>
    </contour>
  </outline>
</glyph>
<glyph name="ety148_cid08958_H" format="1">
  <advance width="1000"/>
  <outline>
    <contour>
      <point x="378" y="353" type="line"/>
      <point x="139" y="353" type="line"/>
      <point x="139" y="245" type="line"/>
      <point x="378" y="245" type="line"/>
    </contour>
    <contour>
      <point x="417" y="820" type="line"/>
      <point x="69" y="820" type="line"/>
      <point x="69" y="247" type="line"/>
      <point x="179" y="247" type="line"/>
      <point x="179" y="704" type="line"/>
      <point x="417" y="704" type="line"/>
    </contour>
  </outline>
</glyph>
<glyph name="ety149_cid08963_H" format="1">
  <advance width="1000"/>
  <outline>
    <contour>
      <point x="840" y="137" type="line"/>
      <point x="191" y="137" type="line"/>
      <point x="191" y="63" type="line"/>
      <point x="840" y="63" type="line"/>
    </contour>
    <contour>
      <point x="830" y="407" type="line"/>
      <point x="192" y="407" type="line"/>
      <point x="192" y="79" type="line"/>
      <point x="331" y="79" type="line"/>
      <point x="331" y="333" type="line"/>
      <point x="830" y="333" type="line"/>
    </contour>
  </outline>
</glyph>
<glyph name="ety151_cid09065_H" format="1">
  <advance width="1000"/>
  <outline>
    <contour>
      <point x="376" y="259" type="line"/>
      <point x="261" y="259" type="line"/>
      <point x="261" y="65" type="line"/>
      <point x="376" y="65" type="line"/>
    </contour>
    <contour>
      <point x="742" y="259" type="line"/>
      <point x="330" y="259" type="line"/>
      <point x="330" y="202" type="line"/>
      <point x="622" y="202" type="line"/>
      <point x="622" y="123" type="line"/>
      <point x="330" y="123" type="line"/>
      <point x="330" y="66" type="line"/>
      <point x="742" y="66" type="line"/>
    </contour>
  </outline>
</glyph>
<glyph name="ety152_cid09072_H" format="1">
  <advance width="1000"/>
  <outline>
    <contour>
      <point x="165" y="733" type="curve"/>
      <point x="84" y="733" type="line"/>
      <point x="79" y="679"/>
      <point x="71" y="616"/>
      <point x="63" y="570" type="curve"/>
      <point x="146" y="570" type="line"/>
      <point x="153" y="614"/>
      <point x="160" y="677"/>
    </contour>
    <contour>
      <point x="275" y="638" type="line"/>
      <point x="112" y="638" type="line"/>
      <point x="94" y="571" type="line"/>
      <point x="275" y="571" type="line"/>
    </contour>
  </outline>
</glyph>
<glyph name="ety153_cid09072_H" format="1">
  <advance width="1000"/>
  <outline>
    <contour>
      <point x="767" y="733" type="curve"/>
      <point x="686" y="733" type="line"/>
      <point x="682" y="679"/>
      <point x="675" y="616"/>
      <point x="667" y="570" type="curve"/>
      <point x="750" y="570" type="line"/>
      <point x="756" y="614"/>
      <point x="762" y="677"/>
    </contour>
    <contour>
      <point x="877" y="638" type="line"/>
      <point x="714" y="638" type="line"/>
      <point x="696" y="571" type="line"/>
      <point x="877" y="571" type="line"/>
    </contour>
  </outline>
</glyph>
<glyph name="ety154_cid09088_H" format="1">
  <advance width="1000"/>
  <outline>
    <contour>
      <point x="416" y="688" type="line"/>
      <point x="62" y="688" type="line"/>
      <point x="62" y="402" type="line"/>
      <point x="161" y="402" type="line"/>
      <point x="161" y="578" type="line"/>
      <point x="416" y="578" type="line"/>
    </contour>
    <contour>
      <point x="490" y="509" type="curve"/>
      <point x="490" y="689" type="line"/>
      <point x="395" y="689" type="line"/>
      <point x="395" y="511" type="line"/>
      <point x="395" y="503"/>
      <point x="393" y="501"/>
      <point x="388" y="501" type="curve"/>
      <point x="383" y="501"/>
      <point x="370" y="501"/>
      <point x="359" y="502" type="curve"/>
      <point x="369" y="472"/>
      <point x="380" y="428"/>
      <point x="383" y="395" type="curve"/>
      <point x="415" y="395"/>
      <point x="441" y="396"/>
      <point x="463" y="414" type="curve"/>
      <point x="485" y="432"/>
      <point x="490" y="460"/>
    </contour>
  </outline>
</glyph>
<glyph name="ety155_cid09222_EL" format="1">
  <advance width="1000"/>
  <outline>
    <contour>
      <point x="442" y="275" type="line"/>
      <point x="102" y="275" type="line"/>
      <point x="102" y="245" type="line"/>
      <point x="442" y="245" type="line"/>
    </contour>
    <contour>
      <point x="131" y="737" type="line"/>
      <point x="101" y="737" type="line"/>
      <point x="101" y="256" type="line"/>
      <point x="131" y="256" type="line"/>
    </contour>
  </outline>
</glyph>
<glyph name="ety157_cid09275_H" format="1">
  <advance width="1000"/>
  <outline>
    <contour>
      <point x="889" y="288" type="line"/>
      <point x="514" y="288" type="line"/>
      <point x="514" y="185" type="line"/>
      <point x="889" y="185" type="line"/>
    </contour>
    <contour>
      <point x="635" y="763" type="line"/>
      <point x="513" y="763" type="line"/>
      <point x="513" y="241" type="line"/>
      <point x="635" y="241" type="line"/>
    </contour>
  </outline>
</glyph>
<glyph name="ety159_cid09490_H" format="1">
  <advance width="1000"/>
  <outline>
    <contour>
      <point x="930" y="772" type="line"/>
      <point x="382" y="772" type="line"/>
      <point x="382" y="681" type="line"/>
      <point x="815" y="681" type="line"/>
      <point x="815" y="636" type="line"/>
      <point x="682" y="636" type="line"/>
      <point x="682" y="545" type="line"/>
      <point x="930" y="545" type="line"/>
    </contour>
    <contour>
      <point x="753" y="637" type="line"/>
      <point x="659" y="637" type="line"/>
      <point x="659" y="-20" type="line"/>
      <point x="753" y="-20" type="line"/>
    </contour>
  </outline>
</glyph>
<glyph name="ety160_cid09491_H" format="1">
  <advance width="1000"/>
  <outline>
    <contour>
      <point x="424" y="611" type="line"/>
      <point x="331" y="611" type="line"/>
      <point x="331" y="-24" type="line"/>
      <point x="424" y="-24" type="line"/>
    </contour>
    <contour>
      <point x="583" y="760" type="line"/>
      <point x="100" y="760" type="line"/>
      <point x="100" y="675" type="line"/>
      <point x="455" y="675" type="line"/>
      <point x="455" y="612" type="line"/>
      <point x="370" y="612" type="line"/>
      <point x="370" y="527" type="line"/>
      <point x="583" y="527" type="line"/>
    </contour>
  </outline>
</glyph>
<glyph name="ety161_cid09492_EL" format="1">
  <advance width="1000"/>
  <outline>
    <contour>
      <point x="719" y="588" type="line"/>
      <point x="689" y="588" type="line"/>
      <point x="689" y="-52" type="line"/>
      <point x="719" y="-52" type="line"/>
    </contour>
    <contour>
      <point x="887" y="731" type="line"/>
      <point x="398" y="731" type="line"/>
      <point x="398" y="702" type="line"/>
      <point x="858" y="702" type="line"/>
      <point x="858" y="588" type="line"/>
      <point x="686" y="588" type="line"/>
      <point x="686" y="559" type="line"/>
      <point x="887" y="559" type="line"/>
    </contour>
  </outline>
</glyph>
<glyph name="ety162_cid09492_H" format="1">
  <advance width="1000"/>
  <outline>
    <contour>
      <point x="743" y="619" type="line"/>
      <point x="648" y="619" type="line"/>
      <point x="648" y="-16" type="line"/>
      <point x="743" y="-16" type="line"/>
    </contour>
    <contour>
      <point x="904" y="768" type="line"/>
      <point x="413" y="768" type="line"/>
      <point x="413" y="683" type="line"/>
      <point x="774" y="683" type="line"/>
      <point x="774" y="620" type="line"/>
      <point x="687" y="620" type="line"/>
      <point x="687" y="535" type="line"/>
      <point x="904" y="535" type="line"/>
    </contour>
  </outline>
</glyph>
<glyph name="ety163_cid09494_EL" format="1">
  <advance width="1000"/>
  <outline>
    <contour>
      <point x="820" y="487" type="line"/>
      <point x="630" y="487" type="line"/>
      <point x="630" y="458" type="line"/>
      <point x="820" y="458" type="line"/>
    </contour>
    <contour>
      <point x="825" y="27" type="curve"/>
      <point x="825" y="486" type="line"/>
      <point x="795" y="486" type="line"/>
      <point x="795" y="39" type="line"/>
      <point x="795" y="-23"/>
      <point x="798" y="-35"/>
      <point x="809" y="-44" type="curve"/>
      <point x="819" y="-53"/>
      <point x="835" y="-55"/>
      <point x="849" y="-55" type="curve"/>
      <point x="857" y="-55"/>
      <point x="880" y="-55"/>
      <point x="889" y="-55" type="curve"/>
      <point x="904" y="-55"/>
      <point x="917" y="-53"/>
      <point x="926" y="-47" type="curve"/>
      <point x="936" y="-41"/>
      <point x="943" y="-31"/>
      <point x="946" y="-14" type="curve"/>
      <point x="950" y="2"/>
      <point x="952" y="55"/>
      <point x="952" y="98" type="curve"/>
      <point x="943" y="101"/>
      <point x="933" y="106"/>
      <point x="925" y="112" type="curve"/>
      <point x="924" y="62"/>
      <point x="923" y="24"/>
      <point x="921" y="6" type="curve"/>
      <point x="918" y="-9"/>
      <point x="915" y="-17"/>
      <point x="910" y="-21" type="curve"/>
      <point x="905" y="-25"/>
      <point x="895" y="-27"/>
      <point x="885" y="-27" type="curve"/>
      <point x="874" y="-27"/>
      <point x="859" y="-27"/>
      <point x="852" y="-27" type="curve"/>
      <point x="843" y="-27"/>
      <point x="837" y="-25"/>
      <point x="832" y="-22" type="curve"/>
      <point x="827" y="-18"/>
      <point x="825" y="-1"/>
    </contour>
  </outline>
</glyph>
<glyph name="ety164_cid09494_EL" format="1">
  <advance width="1000"/>
  <outline>
    <contour>
      <point x="820" y="487" type="line"/>
      <point x="630" y="487" type="line"/>
      <point x="630" y="458" type="line"/>
      <point x="820" y="458" type="line"/>
    </contour>
    <contour>
      <point x="652" y="270" type="curve"/>
      <point x="652" y="486" type="line"/>
      <point x="620" y="486" type="line"/>
      <point x="620" y="270" type="line"/>
      <point x="620" y="171"/>
      <point x="608" y="44"/>
      <point x="524" y="-48" type="curve"/>
      <point x="531" y="-52"/>
      <point x="544" y="-62"/>
      <point x="549" y="-68" type="curve"/>
      <point x="636" y="28"/>
      <point x="652" y="165"/>
    </contour>
  </outline>
</glyph>
<glyph name="ety165_cid09720_EL" format="1">
  <advance width="1000"/>
  <outline>
    <contour>
      <point x="865" y="535" type="line"/>
      <point x="595" y="535" type="line"/>
      <point x="595" y="506" type="line"/>
      <point x="834" y="506" type="line"/>
      <point x="834" y="227" type="line"/>
      <point x="865" y="227" type="line"/>
    </contour>
    <contour>
      <point x="850" y="255" type="line"/>
      <point x="595" y="255" type="line"/>
      <point x="595" y="-13" type="line"/>
      <point x="624" y="-13" type="line"/>
      <point x="624" y="226" type="line"/>
      <point x="850" y="226" type="line"/>
    </contour>
  </outline>
</glyph>
<glyph name="ety166_cid09723_EL" format="1">
  <advance width="1000"/>
  <outline>
    <contour>
      <point x="528" y="634" type="line"/>
      <point x="374" y="634" type="line"/>
      <point x="374" y="605" type="line"/>
      <point x="528" y="605" type="line"/>
    </contour>
    <contour>
      <point x="424" y="762" type="curve"/>
      <point x="394" y="762" type="line"/>
      <point x="383" y="711"/>
      <point x="369" y="649"/>
      <point x="354" y="606" type="curve"/>
      <point x="384" y="606" type="line"/>
      <point x="396" y="646"/>
      <point x="412" y="709"/>
    </contour>
  </outline>
</glyph>
<glyph name="ety167_cid10072_EL" format="1">
  <advance width="1000"/>
  <outline>
    <contour>
      <point x="897" y="295" type="line"/>
      <point x="366" y="295" type="line"/>
      <point x="366" y="266" type="line"/>
      <point x="897" y="266" type="line"/>
    </contour>
    <contour>
      <point x="415" y="439" type="curve"/>
      <point x="385" y="439" type="line"/>
      <point x="376" y="383"/>
      <point x="361" y="314"/>
      <point x="348" y="267" type="curve"/>
      <point x="378" y="267" type="line"/>
      <point x="389" y="311"/>
      <point x="404" y="381"/>
    </contour>
  </outline>
</glyph>
<glyph name="ety168_cid10306_H" format="1">
  <advance width="1000"/>
  <outline>
    <contour>
      <point x="539" y="811" type="line"/>
      <point x="399" y="811" type="line"/>
      <point x="399" y="693" type="line"/>
      <point x="539" y="693" type="line"/>
    </contour>
    <contour>
      <point x="613" y="42" type="curve"/>
      <point x="613" y="812" type="line"/>
      <point x="492" y="812" type="line"/>
      <point x="492" y="44" type="line"/>
      <point x="492" y="34"/>
      <point x="489" y="30"/>
      <point x="480" y="30" type="curve"/>
      <point x="471" y="30"/>
      <point x="447" y="30"/>
      <point x="424" y="31" type="curve"/>
      <point x="441" y="-2"/>
      <point x="456" y="-61"/>
      <point x="459" y="-95" type="curve"/>
      <point x="510" y="-95"/>
      <point x="546" y="-91"/>
      <point x="576" y="-70" type="curve"/>
      <point x="606" y="-48"/>
      <point x="613" y="-11"/>
    </contour>
  </outline>
</glyph>
<glyph name="ety169_cid10416_EL" format="1">
  <advance width="1000"/>
  <outline>
    <contour>
      <point x="836" y="215" type="line"/>
      <point x="496" y="215" type="line"/>
      <point x="481" y="185" type="line"/>
      <point x="836" y="185" type="line"/>
    </contour>
    <contour>
      <point x="549" y="328" type="curve"/>
      <point x="521" y="333" type="line"/>
      <point x="505" y="285"/>
      <point x="484" y="228"/>
      <point x="466" y="186" type="curve"/>
      <point x="496" y="186" type="line"/>
      <point x="513" y="225"/>
      <point x="533" y="279"/>
    </contour>
  </outline>
</glyph>
<glyph name="ety171_cid10784_H" format="1">
  <advance width="1000"/>
  <outline>
    <contour>
      <point x="930" y="255" type="line"/>
      <point x="542" y="255" type="line"/>
      <point x="542" y="174" type="line"/>
      <point x="806" y="174" type="line"/>
      <point x="806" y="150" type="line"/>
      <point x="542" y="150" type="line"/>
      <point x="542" y="69" type="line"/>
      <point x="930" y="69" type="line"/>
    </contour>
    <contour>
      <point x="624" y="457" type="line"/>
      <point x="494" y="457" type="line"/>
      <point x="494" y="70" type="line"/>
      <point x="624" y="70" type="line"/>
    </contour>
  </outline>
</glyph>
<glyph name="ety172_cid10890_EL" format="1">
  <advance width="1000"/>
  <outline>
    <contour>
      <point x="846" y="791" type="line"/>
      <point x="597" y="791" type="line"/>
      <point x="597" y="552" type="line"/>
      <point x="626" y="552" type="line"/>
      <point x="626" y="762" type="line"/>
      <point x="817" y="762" type="line"/>
      <point x="817" y="324" type="line"/>
      <point x="846" y="324" type="line"/>
    </contour>
    <contour>
      <point x="627" y="570" type="line"/>
      <point x="371" y="570" type="line"/>
      <point x="371" y="540" type="line"/>
      <point x="627" y="540" type="line"/>
    </contour>
  </outline>
</glyph>
<glyph name="ety173_cid10890_H" format="1">
  <advance width="1000"/>
  <outline>
    <contour>
      <point x="874" y="824" type="line"/>
      <point x="533" y="824" type="line"/>
      <point x="533" y="524" type="line"/>
      <point x="667" y="524" type="line"/>
      <point x="667" y="690" type="line"/>
      <point x="734" y="690" type="line"/>
      <point x="734" y="284" type="line"/>
      <point x="874" y="284" type="line"/>
    </contour>
    <contour>
      <point x="669" y="642" type="line"/>
      <point x="326" y="642" type="line"/>
      <point x="326" y="507" type="line"/>
      <point x="669" y="507" type="line"/>
    </contour>
  </outline>
</glyph>
<glyph name="ety174_cid10928_EL" format="1">
  <advance width="1000"/>
  <outline>
    <contour>
      <point x="456" y="456" type="line"/>
      <point x="146" y="456" type="line"/>
      <point x="146" y="-69" type="line"/>
      <point x="176" y="-69" type="line"/>
      <point x="176" y="426" type="line"/>
      <point x="456" y="426" type="line"/>
    </contour>
    <contour>
      <point x="468" y="-25" type="curve"/>
      <point x="468" y="458" type="line"/>
      <point x="438" y="458" type="line"/>
      <point x="438" y="-25" type="line"/>
      <point x="438" y="-37"/>
      <point x="435" y="-41"/>
      <point x="423" y="-41" type="curve"/>
      <point x="411" y="-42"/>
      <point x="371" y="-42"/>
      <point x="320" y="-41" type="curve"/>
      <point x="326" y="-50"/>
      <point x="330" y="-62"/>
      <point x="332" y="-70" type="curve"/>
      <point x="391" y="-70"/>
      <point x="426" y="-70"/>
      <point x="444" y="-65" type="curve"/>
      <point x="462" y="-59"/>
      <point x="468" y="-48"/>
    </contour>
  </outline>
</glyph>
<glyph name="ety175_cid11074_H" format="1">
  <advance width="1000"/>
  <outline>
    <contour>
      <point x="797" y="421" type="line"/>
      <point x="345" y="421" type="line"/>
      <point x="345" y="-92" type="line"/>
      <point x="490" y="-92" type="line"/>
      <point x="490" y="316" type="line"/>
      <point x="797" y="316" type="line"/>
    </contour>
    <contour>
      <point x="901" y="42" type="curve"/>
      <point x="901" y="420" type="line"/>
      <point x="751" y="420" type="line"/>
      <point x="751" y="44" type="line"/>
      <point x="751" y="32"/>
      <point x="746" y="28"/>
      <point x="731" y="27" type="curve"/>
      <point x="718" y="27"/>
      <point x="666" y="27"/>
      <point x="631" y="29" type="curve"/>
      <point x="648" y="-5"/>
      <point x="667" y="-57"/>
      <point x="673" y="-94" type="curve"/>
      <point x="744" y="-94"/>
      <point x="801" y="-93"/>
      <point x="844" y="-74" type="curve"/>
      <point x="887" y="-54"/>
      <point x="901" y="-22"/>
    </contour>
  </outline>
</glyph>
<glyph name="ety177_cid11651_EL" format="1">
  <advance width="1000"/>
  <outline>
    <contour>
      <point x="923" y="798" type="line"/>
      <point x="103" y="798" type="line"/>
      <point x="103" y="-47" type="line"/>
      <point x="133" y="-47" type="line"/>
      <point x="133" y="768" type="line"/>
      <point x="923" y="768" type="line"/>
    </contour>
    <contour>
      <point x="945" y="-16" type="line"/>
      <point x="124" y="-16" type="line"/>
      <point x="124" y="-46" type="line"/>
      <point x="945" y="-46" type="line"/>
    </contour>
  </outline>
</glyph>
<glyph name="ety178_cid11651_H" format="1">
  <advance width="1000"/>
  <outline>
    <contour>
      <point x="935" y="827" type="line"/>
      <point x="68" y="827" type="line"/>
      <point x="68" y="-76" type="line"/>
      <point x="198" y="-76" type="line"/>
      <point x="198" y="727" type="line"/>
      <point x="935" y="727" type="line"/>
    </contour>
    <contour>
      <point x="960" y="32" type="line"/>
      <point x="163" y="32" type="line"/>
      <point x="163" y="-77" type="line"/>
      <point x="960" y="-77" type="line"/>
    </contour>
  </outline>
</glyph>
<glyph name="ety179_cid11696_EL" format="1">
  <advance width="1000"/>
  <outline>
    <contour>
      <point x="501" y="29" type="line"/>
      <point x="113" y="29" type="line"/>
      <point x="113" y="-2" type="line"/>
      <point x="501" y="-2" type="line"/>
    </contour>
    <contour>
      <point x="892" y="754" type="line"/>
      <point x="484" y="754" type="line"/>
      <point x="484" y="-1" type="line"/>
      <point x="513" y="-1" type="line"/>
      <point x="513" y="724" type="line"/>
      <point x="892" y="724" type="line"/>
    </contour>
  </outline>
</glyph>
<glyph name="ety180_cid11857_EL" format="1">
  <advance width="1000"/>
  <outline>
    <contour>
      <point x="688" y="705" type="line"/>
      <point x="114" y="705" type="line"/>
      <point x="114" y="675" type="line"/>
      <point x="688" y="675" type="line"/>
    </contour>
    <contour>
      <point x="704" y="411" type="curve"/>
      <point x="704" y="704" type="line"/>
      <point x="674" y="704" type="line"/>
      <point x="674" y="412" type="line"/>
      <point x="674" y="365"/>
      <point x="690" y="356"/>
      <point x="747" y="356" type="curve"/>
      <point x="759" y="356"/>
      <point x="868" y="356"/>
      <point x="880" y="356" type="curve"/>
      <point x="934" y="356"/>
      <point x="943" y="382"/>
      <point x="947" y="498" type="curve"/>
      <point x="938" y="501"/>
      <point x="926" y="505"/>
      <point x="918" y="512" type="curve"/>
      <point x="916" y="400"/>
      <point x="911" y="385"/>
      <point x="878" y="385" type="curve"/>
      <point x="855" y="385"/>
      <point x="763" y="385"/>
      <point x="746" y="385" type="curve"/>
      <point x="710" y="385"/>
      <point x="704" y="389"/>
    </contour>
  </outline>
</glyph>
<glyph name="ety181_cid12039_EL" format="1">
  <advance width="1000"/>
  <outline>
    <contour>
      <point x="666" y="330" type="line"/>
      <point x="418" y="330" type="line"/>
      <point x="418" y="301" type="line"/>
      <point x="666" y="301" type="line"/>
    </contour>
    <contour>
      <point x="465" y="557" type="curve"/>
      <point x="435" y="557" type="line"/>
      <point x="429" y="476"/>
      <point x="419" y="367"/>
      <point x="408" y="300" type="curve"/>
      <point x="438" y="300" type="line"/>
      <point x="447" y="365"/>
      <point x="458" y="474"/>
    </contour>
  </outline>
</glyph>
<glyph name="ety182_cid12252_H" format="1">
  <advance width="1000"/>
  <outline>
    <contour>
      <point x="802" y="495" type="line"/>
      <point x="690" y="495" type="line"/>
      <point x="690" y="81" type="line"/>
      <point x="802" y="81" type="line"/>
    </contour>
    <contour>
      <point x="498" y="495" type="line"/>
      <point x="386" y="495" type="line"/>
      <point x="386" y="80" type="line"/>
      <point x="766" y="80" type="line"/>
      <point x="766" y="196" type="line"/>
      <point x="498" y="196" type="line"/>
    </contour>
  </outline>
</glyph>
<glyph name="ety183_cid12693_EL" format="1">
  <advance width="1000"/>
  <outline>
    <contour>
      <point x="435" y="714" type="line"/>
      <point x="406" y="726" type="line"/>
      <point x="406" y="391" type="line"/>
      <point x="435" y="391" type="line"/>
    </contour>
    <contour>
      <point x="889" y="422" type="line"/>
      <point x="421" y="422" type="line"/>
      <point x="421" y="392" type="line"/>
      <point x="889" y="392" type="line"/>
    </contour>
  </outline>
</glyph>
<glyph name="ety184_cid12693_H" format="1">
  <advance width="1000"/>
  <outline>
    <contour>
      <point x="497" y="715" type="line"/>
      <point x="376" y="753" type="line"/>
      <point x="376" y="358" type="line"/>
      <point x="497" y="358" type="line"/>
    </contour>
    <contour>
      <point x="947" y="470" type="line"/>
      <point x="451" y="470" type="line"/>
      <point x="451" y="359" type="line"/>
      <point x="947" y="359" type="line"/>
    </contour>
  </outline>
</glyph>
<glyph name="ety185_cid12828_EL" format="1">
  <advance width="1000"/>
  <outline>
    <contour>
      <point x="927" y="539" type="line"/>
      <point x="706" y="539" type="line"/>
      <point x="706" y="509" type="line"/>
      <point x="927" y="509" type="line"/>
    </contour>
    <contour>
      <point x="938" y="-18" type="curve"/>
      <point x="938" y="538" type="line"/>
      <point x="909" y="538" type="line"/>
      <point x="909" y="-18" type="line"/>
      <point x="909" y="-29"/>
      <point x="906" y="-32"/>
      <point x="895" y="-33" type="curve"/>
      <point x="884" y="-33"/>
      <point x="851" y="-33"/>
      <point x="809" y="-32" type="curve"/>
      <point x="814" y="-42"/>
      <point x="819" y="-55"/>
      <point x="820" y="-63" type="curve"/>
      <point x="868" y="-63"/>
      <point x="900" y="-63"/>
      <point x="917" y="-57" type="curve"/>
      <point x="933" y="-51"/>
      <point x="938" y="-40"/>
    </contour>
  </outline>
</glyph>
<glyph name="ety186_cid12828_EL" format="1">
  <advance width="1000"/>
  <outline>
    <contour>
      <point x="407" y="290" type="curve"/>
      <point x="407" y="538" type="line"/>
      <point x="378" y="538" type="line"/>
      <point x="378" y="290" type="line"/>
      <point x="378" y="184"/>
      <point x="368" y="46"/>
      <point x="289" y="-54" type="curve"/>
      <point x="296" y="-57"/>
      <point x="308" y="-65"/>
      <point x="313" y="-70" type="curve"/>
      <point x="393" y="32"/>
      <point x="407" y="180"/>
    </contour>
    <contour>
      <point x="601" y="539" type="line"/>
      <point x="393" y="539" type="line"/>
      <point x="393" y="509" type="line"/>
      <point x="601" y="509" type="line"/>
    </contour>
  </outline>
</glyph>
<glyph name="ety187_cid12828_EL" format="1">
  <advance width="1000"/>
  <outline>
    <contour>
      <point x="720" y="290" type="curve"/>
      <point x="720" y="538" type="line"/>
      <point x="690" y="538" type="line"/>
      <point x="690" y="290" type="line"/>
      <point x="690" y="185"/>
      <point x="682" y="47"/>
      <point x="613" y="-54" type="curve"/>
      <point x="621" y="-57"/>
      <point x="632" y="-65"/>
      <point x="637" y="-70" type="curve"/>
      <point x="708" y="33"/>
      <point x="720" y="181"/>
    </contour>
    <contour>
      <point x="927" y="539" type="line"/>
      <point x="706" y="539" type="line"/>
      <point x="706" y="509" type="line"/>
      <point x="927" y="509" type="line"/>
    </contour>
  </outline>
</glyph>
<glyph name="ety188_cid12870_H" format="1">
  <advance width="1000"/>
  <outline>
    <contour>
      <point x="633" y="822" type="line"/>
      <point x="414" y="822" type="line"/>
      <point x="414" y="733" type="line"/>
      <point x="525" y="733" type="line"/>
      <point x="525" y="699" type="line"/>
      <point x="414" y="699" type="line"/>
      <point x="414" y="610" type="line"/>
      <point x="633" y="610" type="line"/>
    </contour>
    <contour>
      <point x="369" y="432" type="curve"/>
      <point x="369" y="466"/>
      <point x="472" y="509"/>
      <point x="472" y="509" type="curve"/>
      <point x="472" y="821" type="line"/>
      <point x="362" y="821" type="line"/>
      <point x="362" y="582" type="line"/>
      <point x="362" y="546"/>
      <point x="349" y="533"/>
      <point x="333" y="525" type="curve"/>
      <point x="348" y="505"/>
      <point x="365" y="458"/>
    </contour>
  </outline>
</glyph>
<glyph name="ety189_cid12872_H" format="1">
  <advance width="1000"/>
  <outline>
    <contour>
      <point x="627" y="769" type="line"/>
      <point x="499" y="769" type="line"/>
      <point x="499" y="616" type="line"/>
      <point x="627" y="616" type="line"/>
    </contour>
    <contour>
      <point x="626" y="554" type="line"/>
      <point x="626" y="652" type="line"/>
      <point x="376" y="652" type="line"/>
      <point x="376" y="416" type="line"/>
      <point x="626" y="416" type="line"/>
      <point x="626" y="513" type="line"/>
      <point x="493" y="513" type="line"/>
      <point x="493" y="554" type="line"/>
    </contour>
  </outline>
</glyph>
<glyph name="ety191_cid13700_H" format="1">
  <advance width="1000"/>
  <outline>
    <contour>
      <point x="960" y="636" type="line"/>
      <point x="556" y="636" type="line"/>
      <point x="556" y="530" type="line"/>
      <point x="960" y="530" type="line"/>
    </contour>
    <contour>
      <point x="631" y="687" type="curve"/>
      <point x="518" y="698" type="line"/>
      <point x="510" y="643"/>
      <point x="497" y="575"/>
      <point x="484" y="529" type="curve"/>
      <point x="598" y="529" type="line"/>
      <point x="609" y="571"/>
      <point x="622" y="634"/>
    </contour>
  </outline>
</glyph>
<glyph name="ety193_cid14252_H" format="1">
  <advance width="1000"/>
  <outline>
    <contour>
      <point x="82" y="-78" type="curve"/>
      <point x="82" y="-31"/>
      <point x="209" y="21"/>
      <point x="209" y="21" type="curve"/>
      <point x="209" y="493" type="line"/>
      <point x="70" y="493" type="line"/>
      <point x="70" y="133" type="line"/>
      <point x="70" y="95"/>
      <point x="53" y="77"/>
      <point x="32" y="66" type="curve"/>
      <point x="54" y="31"/>
      <point x="75" y="-38"/>
    </contour>
    <contour>
      <point x="420" y="779" type="line"/>
      <point x="64" y="779" type="line"/>
      <point x="64" y="648" type="line"/>
      <point x="281" y="648" type="line"/>
      <point x="281" y="494" type="line"/>
      <point x="87" y="494" type="line"/>
      <point x="87" y="363" type="line"/>
      <point x="420" y="363" type="line"/>
    </contour>
  </outline>
</glyph>
<glyph name="ety195_cid14612_EL" format="1">
  <advance width="1000"/>
  <outline>
    <contour>
      <point x="932" y="89" type="line"/>
      <point x="428" y="89" type="line"/>
      <point x="428" y="60" type="line"/>
      <point x="932" y="60" type="line"/>
    </contour>
    <contour>
      <point x="509" y="549" type="curve"/>
      <point x="479" y="549" type="line"/>
      <point x="465" y="400"/>
      <point x="435" y="180"/>
      <point x="414" y="59" type="curve"/>
      <point x="444" y="59" type="line"/>
      <point x="465" y="178"/>
      <point x="492" y="397"/>
    </contour>
  </outline>
</glyph>
<glyph name="ety197_cid15014_H" format="1">
  <advance width="1000"/>
  <outline>
    <contour>
      <point x="542" y="-19" type="curve"/>
      <point x="542" y="17"/>
      <point x="636" y="74"/>
      <point x="636" y="74" type="curve"/>
      <point x="636" y="325" type="line"/>
      <point x="529" y="325" type="line"/>
      <point x="529" y="165" type="line"/>
      <point x="529" y="124"/>
      <point x="514" y="102"/>
      <point x="497" y="91" type="curve"/>
      <point x="514" y="66"/>
      <point x="535" y="11"/>
    </contour>
    <contour>
      <point x="599" y="326" type="line"/>
      <point x="388" y="326" type="line"/>
      <point x="388" y="216" type="line"/>
      <point x="599" y="216" type="line"/>
    </contour>
  </outline>
</glyph>
<glyph name="ety198_cid15097_EL" format="1">
  <advance width="1000"/>
  <outline>
    <contour>
      <point x="792" y="797" type="line"/>
      <point x="593" y="797" type="line"/>
      <point x="593" y="768" type="line"/>
      <point x="792" y="768" type="line"/>
    </contour>
    <contour>
      <point x="808" y="678" type="curve"/>
      <point x="808" y="796" type="line"/>
      <point x="778" y="796" type="line"/>
      <point x="778" y="688" type="line"/>
      <point x="778" y="649"/>
      <point x="780" y="638"/>
      <point x="791" y="630" type="curve"/>
      <point x="801" y="622"/>
      <point x="819" y="621"/>
      <point x="833" y="621" type="curve"/>
      <point x="840" y="621"/>
      <point x="868" y="621"/>
      <point x="876" y="621" type="curve"/>
      <point x="888" y="621"/>
      <point x="905" y="621"/>
      <point x="913" y="624" type="curve"/>
      <point x="923" y="627"/>
      <point x="932" y="634"/>
      <point x="937" y="645" type="curve"/>
      <point x="941" y="655"/>
      <point x="943" y="686"/>
      <point x="944" y="717" type="curve"/>
      <point x="935" y="719"/>
      <point x="924" y="723"/>
      <point x="917" y="729" type="curve"/>
      <point x="916" y="699"/>
      <point x="916" y="676"/>
      <point x="913" y="666" type="curve"/>
      <point x="910" y="657"/>
      <point x="904" y="651"/>
      <point x="899" y="649" type="curve"/>
      <point x="895" y="646"/>
      <point x="883" y="646"/>
      <point x="872" y="646" type="curve"/>
      <point x="861" y="646"/>
      <point x="843" y="646"/>
      <point x="834" y="646" type="curve"/>
      <point x="824" y="646"/>
      <point x="818" y="646"/>
      <point x="814" y="649" type="curve"/>
      <point x="809" y="652"/>
      <point x="808" y="662"/>
    </contour>
  </outline>
</glyph>
<glyph name="ety199_cid15170_H" format="1">
  <advance width="1000"/>
  <outline>
    <contour>
      <point x="862" y="387" type="line"/>
      <point x="681" y="387" type="line"/>
      <point x="681" y="290" type="line"/>
      <point x="862" y="290" type="line"/>
    </contour>
    <contour>
      <point x="724" y="386" type="line"/>
      <point x="613" y="386" type="line"/>
      <point x="613" y="-91" type="line"/>
      <point x="724" y="-91" type="line"/>
    </contour>
  </outline>
</glyph>
<glyph name="ety200_cid15454_H" format="1">
  <advance width="1000"/>
  <outline>
    <contour>
      <point x="481" y="495" type="line"/>
      <point x="166" y="495" type="line"/>
      <point x="166" y="434" type="line"/>
      <point x="377" y="434" type="line"/>
      <point x="377" y="409" type="line"/>
      <point x="166" y="409" type="line"/>
      <point x="166" y="347" type="line"/>
      <point x="481" y="347" type="line"/>
    </contour>
    <contour>
      <point x="210" y="648" type="line"/>
      <point x="106" y="648" type="line"/>
      <point x="106" y="346" type="line"/>
      <point x="210" y="346" type="line"/>
    </contour>
  </outline>
</glyph>
<glyph name="ety201_cid15739_H" format="1">
  <advance width="1000"/>
  <outline>
    <contour>
      <point x="302" y="575" type="line"/>
      <point x="121" y="575" type="line"/>
      <point x="121" y="451" type="line"/>
      <point x="302" y="451" type="line"/>
    </contour>
    <contour>
      <point x="188" y="806" type="line"/>
      <point x="63" y="806" type="line"/>
      <point x="63" y="450" type="line"/>
      <point x="188" y="450" type="line"/>
    </contour>
  </outline>
</glyph>
<glyph name="ety204_cid15910_EL" format="1">
  <advance width="1000"/>
  <outline>
    <contour>
      <point x="511" y="804" type="line"/>
      <point x="210" y="804" type="line"/>
      <point x="210" y="774" type="line"/>
      <point x="511" y="774" type="line"/>
    </contour>
    <contour>
      <point x="524" y="803" type="curve"/>
      <point x="497" y="803" type="line"/>
      <point x="497" y="706"/>
      <point x="520" y="452"/>
      <point x="899" y="306" type="curve"/>
      <point x="903" y="313"/>
      <point x="912" y="323"/>
      <point x="917" y="327" type="curve"/>
      <point x="543" y="471"/>
      <point x="524" y="712"/>
    </contour>
  </outline>
</glyph>
<glyph name="ety205_cid16018_EL" format="1">
  <advance width="1000"/>
  <outline>
    <contour>
      <point x="894" y="211" type="line"/>
      <point x="134" y="211" type="line"/>
      <point x="134" y="181" type="line"/>
      <point x="894" y="181" type="line"/>
    </contour>
    <contour>
      <point x="194" y="359" type="curve"/>
      <point x="164" y="359" type="line"/>
      <point x="150" y="302"/>
      <point x="130" y="230"/>
      <point x="112" y="182" type="curve"/>
      <point x="143" y="182" type="line"/>
      <point x="159" y="228"/>
      <point x="179" y="299"/>
    </contour>
  </outline>
</glyph>
<glyph name="ety208_cid16318_EL" format="1">
  <advance width="1000"/>
  <outline>
    <contour>
      <point x="862" y="215" type="line"/>
      <point x="522" y="215" type="line"/>
      <point x="507" y="185" type="line"/>
      <point x="862" y="185" type="line"/>
    </contour>
    <contour>
      <point x="574" y="328" type="curve"/>
      <point x="546" y="333" type="line"/>
      <point x="530" y="285"/>
      <point x="510" y="228"/>
      <point x="491" y="186" type="curve"/>
      <point x="522" y="186" type="line"/>
      <point x="538" y="225"/>
      <point x="559" y="279"/>
    </contour>
  </outline>
</glyph>
<glyph name="ety212_cid16690_EL" format="1">
  <advance width="1000"/>
  <outline>
    <contour>
      <point x="151" y="425" type="curve"/>
      <point x="151" y="780" type="line"/>
      <point x="122" y="780" type="line"/>
      <point x="122" y="425" type="line"/>
      <point x="122" y="372"/>
      <point x="142" y="362"/>
      <point x="213" y="362" type="curve"/>
      <point x="228" y="362"/>
      <point x="392" y="362"/>
      <point x="409" y="362" type="curve"/>
      <point x="469" y="362"/>
      <point x="480" y="385"/>
      <point x="484" y="478" type="curve"/>
      <point x="476" y="480"/>
      <point x="464" y="485"/>
      <point x="456" y="491" type="curve"/>
      <point x="452" y="405"/>
      <point x="446" y="391"/>
      <point x="408" y="391" type="curve"/>
      <point x="375" y="391"/>
      <point x="234" y="391"/>
      <point x="211" y="391" type="curve"/>
      <point x="160" y="391"/>
      <point x="151" y="398"/>
    </contour>
    <contour>
      <point x="464" y="781" type="line"/>
      <point x="136" y="781" type="line"/>
      <point x="136" y="752" type="line"/>
      <point x="434" y="752" type="line"/>
      <point x="434" y="602" type="line"/>
      <point x="136" y="602" type="line"/>
      <point x="136" y="572" type="line"/>
      <point x="464" y="572" type="line"/>
    </contour>
  </outline>
</glyph>
<glyph name="ety213_cid16690_EL" format="1">
  <advance width="1000"/>
  <outline>
    <contour>
      <point x="591" y="413" type="curve"/>
      <point x="591" y="780" type="line"/>
      <point x="562" y="780" type="line"/>
      <point x="562" y="414" type="line"/>
      <point x="562" y="360"/>
      <point x="582" y="350"/>
      <point x="653" y="350" type="curve"/>
      <point x="669" y="350"/>
      <point x="831" y="350"/>
      <point x="848" y="350" type="curve"/>
      <point x="910" y="350"/>
      <point x="920" y="376"/>
      <point x="925" y="474" type="curve"/>
      <point x="916" y="475"/>
      <point x="904" y="480"/>
      <point x="896" y="486" type="curve"/>
      <point x="892" y="394"/>
      <point x="886" y="379"/>
      <point x="847" y="379" type="curve"/>
      <point x="814" y="379"/>
      <point x="674" y="379"/>
      <point x="651" y="379" type="curve"/>
      <point x="600" y="379"/>
      <point x="591" y="386"/>
    </contour>
    <contour>
      <point x="904" y="781" type="line"/>
      <point x="576" y="781" type="line"/>
      <point x="576" y="752" type="line"/>
      <point x="874" y="752" type="line"/>
      <point x="874" y="599" type="line"/>
      <point x="576" y="599" type="line"/>
      <point x="576" y="570" type="line"/>
      <point x="904" y="570" type="line"/>
    </contour>
  </outline>
</glyph>
<glyph name="ety214_cid16732_H" format="1">
  <advance width="1000"/>
  <outline>
    <contour>
      <point x="840" y="393" type="line"/>
      <point x="130" y="393" type="line"/>
      <point x="130" y="-25" type="line"/>
      <point x="285" y="-25" type="line"/>
      <point x="285" y="260" type="line"/>
      <point x="840" y="260" type="line"/>
    </contour>
    <contour>
      <point x="893" y="106" type="curve"/>
      <point x="893" y="391" type="line"/>
      <point x="742" y="391" type="line"/>
      <point x="742" y="109" type="line"/>
      <point x="742" y="97"/>
      <point x="736" y="94"/>
      <point x="720" y="94" type="curve"/>
      <point x="705" y="94"/>
      <point x="642" y="94"/>
      <point x="601" y="96" type="curve"/>
      <point x="620" y="57"/>
      <point x="640" y="-4"/>
      <point x="646" y="-46" type="curve"/>
      <point x="723" y="-46"/>
      <point x="784" y="-45"/>
      <point x="831" y="-23" type="curve"/>
      <point x="879" y="-2"/>
      <point x="893" y="38"/>
    </contour>
  </outline>
</glyph>
<glyph name="ety215_cid17035_H" format="1">
  <advance width="1000"/>
  <outline>
    <contour>
      <point x="428" y="570" type="line"/>
      <point x="302" y="601" type="line"/>
      <point x="302" y="271" type="line"/>
      <point x="428" y="271" type="line"/>
    </contour>
    <contour>
      <point x="857" y="360" type="line"/>
      <point x="370" y="360" type="line"/>
      <point x="370" y="270" type="line"/>
      <point x="857" y="270" type="line"/>
    </contour>
  </outline>
</glyph>
<glyph name="ety218_cid17742_H" format="1">
  <advance width="1000"/>
  <outline>
    <contour>
      <point x="796" y="545" type="line"/>
      <point x="687" y="545" type="line"/>
      <point x="687" y="77" type="line"/>
      <point x="796" y="77" type="line"/>
    </contour>
    <contour>
      <point x="455" y="526" type="line"/>
      <point x="343" y="526" type="line"/>
      <point x="343" y="76" type="line"/>
      <point x="723" y="76" type="line"/>
      <point x="723" y="192" type="line"/>
      <point x="455" y="192" type="line"/>
    </contour>
  </outline>
</glyph>
<glyph name="ety220_cid17785_EL" format="1">
  <advance width="1000"/>
  <outline>
    <contour>
      <point x="434" y="18" type="curve"/>
      <point x="434" y="244" type="line"/>
      <point x="405" y="244" type="line"/>
      <point x="405" y="18" type="line"/>
      <point x="405" y="-40"/>
      <point x="433" y="-50"/>
      <point x="534" y="-50" type="curve"/>
      <point x="556" y="-50"/>
      <point x="818" y="-50"/>
      <point x="840" y="-50" type="curve"/>
      <point x="929" y="-50"/>
      <point x="944" y="-22"/>
      <point x="951" y="94" type="curve"/>
      <point x="942" y="96"/>
      <point x="929" y="100"/>
      <point x="921" y="107" type="curve"/>
      <point x="916" y="-3"/>
      <point x="906" y="-20"/>
      <point x="840" y="-20" type="curve"/>
      <point x="788" y="-20"/>
      <point x="567" y="-20"/>
      <point x="529" y="-20" type="curve"/>
      <point x="449" y="-20"/>
      <point x="434" y="-13"/>
    </contour>
    <contour>
      <point x="870" y="243" type="line"/>
      <point x="426" y="243" type="line"/>
      <point x="426" y="214" type="line"/>
      <point x="900" y="214" type="line"/>
      <point x="900" y="444" type="line"/>
      <point x="394" y="444" type="line"/>
      <point x="394" y="415" type="line"/>
      <point x="870" y="415" type="line"/>
    </contour>
  </outline>
</glyph>
<glyph name="ety221_cid17896_H" format="1">
  <advance width="1000"/>
  <outline>
    <contour>
      <point x="354" y="651" type="line"/>
      <point x="215" y="651" type="line"/>
      <point x="215" y="171" type="line"/>
      <point x="354" y="171" type="line"/>
    </contour>
    <contour>
      <point x="823" y="402" type="line"/>
      <point x="296" y="402" type="line"/>
      <point x="296" y="306" type="line"/>
      <point x="678" y="306" type="line"/>
      <point x="678" y="268" type="line"/>
      <point x="296" y="268" type="line"/>
      <point x="296" y="172" type="line"/>
      <point x="823" y="172" type="line"/>
    </contour>
  </outline>
</glyph>
<glyph name="ety224_cid18187_EL" format="1">
  <advance width="1000"/>
  <outline>
    <contour>
      <point x="194" y="670" type="curve"/>
      <point x="165" y="670" type="line"/>
      <point x="151" y="571"/>
      <point x="128" y="429"/>
      <point x="109" y="348" type="curve"/>
      <point x="138" y="348" type="line"/>
      <point x="156" y="427"/>
      <point x="179" y="568"/>
    </contour>
    <contour>
      <point x="521" y="376" type="line"/>
      <point x="132" y="376" type="line"/>
      <point x="132" y="347" type="line"/>
      <point x="521" y="347" type="line"/>
    </contour>
  </outline>
</glyph>
<glyph name="ety225_cid18202_H" format="1">
  <advance width="1000"/>
  <outline>
    <contour>
      <point x="812" y="833" type="line"/>
      <point x="600" y="833" type="line"/>
      <point x="600" y="732" type="line"/>
      <point x="812" y="732" type="line"/>
    </contour>
    <contour>
      <point x="857" y="743" type="curve"/>
      <point x="857" y="832" type="line"/>
      <point x="732" y="832" type="line"/>
      <point x="732" y="744" type="line"/>
      <point x="732" y="649"/>
      <point x="752" y="607"/>
      <point x="855" y="607" type="curve"/>
      <point x="870" y="607"/>
      <point x="893" y="607"/>
      <point x="907" y="607" type="curve"/>
      <point x="928" y="607"/>
      <point x="952" y="609"/>
      <point x="968" y="615" type="curve"/>
      <point x="964" y="646"/>
      <point x="962" y="688"/>
      <point x="959" y="720" type="curve"/>
      <point x="946" y="715"/>
      <point x="919" y="713"/>
      <point x="904" y="713" type="curve"/>
      <point x="895" y="713"/>
      <point x="879" y="713"/>
      <point x="871" y="713" type="curve"/>
      <point x="859" y="713"/>
      <point x="857" y="723"/>
    </contour>
  </outline>
</glyph>
<glyph name="ety226_cid18202_H" format="1">
  <advance width="1000"/>
  <outline>
    <contour>
      <point x="812" y="833" type="line"/>
      <point x="600" y="833" type="line"/>
      <point x="600" y="732" type="line"/>
      <point x="812" y="732" type="line"/>
    </contour>
    <contour>
      <point x="687" y="761" type="curve"/>
      <point x="687" y="832" type="line"/>
      <point x="563" y="832" type="line"/>
      <point x="563" y="765" type="line"/>
      <point x="563" y="725"/>
      <point x="555" y="688"/>
      <point x="482" y="656" type="curve"/>
      <point x="507" y="639"/>
      <point x="557" y="589"/>
      <point x="574" y="564" type="curve"/>
      <point x="667" y="611"/>
      <point x="687" y="688"/>
    </contour>
  </outline>
</glyph>
<glyph name="ety227_cid18203_H" format="1">
  <advance width="1000"/>
  <outline>
    <contour>
      <point x="812" y="830" type="line"/>
      <point x="600" y="830" type="line"/>
      <point x="600" y="730" type="line"/>
      <point x="812" y="730" type="line"/>
    </contour>
    <contour>
      <point x="857" y="742" type="curve"/>
      <point x="857" y="831" type="line"/>
      <point x="732" y="831" type="line"/>
      <point x="732" y="743" type="line"/>
      <point x="732" y="648"/>
      <point x="752" y="607"/>
      <point x="855" y="607" type="curve"/>
      <point x="870" y="607"/>
      <point x="893" y="607"/>
      <point x="907" y="607" type="curve"/>
      <point x="928" y="607"/>
      <point x="952" y="609"/>
      <point x="968" y="615" type="curve"/>
      <point x="964" y="645"/>
      <point x="962" y="688"/>
      <point x="959" y="719" type="curve"/>
      <point x="946" y="715"/>
      <point x="919" y="712"/>
      <point x="904" y="712" type="curve"/>
      <point x="895" y="712"/>
      <point x="879" y="712"/>
      <point x="871" y="712" type="curve"/>
      <point x="859" y="712"/>
      <point x="857" y="722"/>
    </contour>
  </outline>
</glyph>
<glyph name="ety228_cid18203_H" format="1">
  <advance width="1000"/>
  <outline>
    <contour>
      <point x="812" y="830" type="line"/>
      <point x="600" y="830" type="line"/>
      <point x="600" y="730" type="line"/>
      <point x="812" y="730" type="line"/>
    </contour>
    <contour>
      <point x="687" y="760" type="curve"/>
      <point x="687" y="831" type="line"/>
      <point x="563" y="831" type="line"/>
      <point x="563" y="764" type="line"/>
      <point x="563" y="724"/>
      <point x="555" y="688"/>
      <point x="482" y="655" type="curve"/>
      <point x="507" y="638"/>
      <point x="557" y="589"/>
      <point x="574" y="564" type="curve"/>
      <point x="667" y="611"/>
      <point x="687" y="688"/>
    </contour>
  </outline>
</glyph>
<glyph name="ety230_cid18871_EL" format="1">
  <advance width="1000"/>
  <outline>
    <contour>
      <point x="861" y="782" type="line"/>
      <point x="427" y="782" type="line"/>
      <point x="427" y="753" type="line"/>
      <point x="831" y="753" type="line"/>
      <point x="831" y="393" type="line"/>
      <point x="427" y="393" type="line"/>
      <point x="427" y="364" type="line"/>
      <point x="861" y="364" type="line"/>
    </contour>
    <contour>
      <point x="405" y="-64" type="curve"/>
      <point x="405" y="-52"/>
      <point x="435" y="-26"/>
      <point x="435" y="-26" type="curve"/>
      <point x="435" y="783" type="line"/>
      <point x="406" y="783" type="line"/>
      <point x="406" y="20" type="line"/>
      <point x="406" y="-17"/>
      <point x="396" y="-28"/>
      <point x="388" y="-33" type="curve"/>
      <point x="394" y="-41"/>
      <point x="402" y="-56"/>
    </contour>
  </outline>
</glyph>
<glyph name="ety231_cid18943_EL" format="1">
  <advance width="1000"/>
  <outline>
    <contour>
      <point x="898" y="295" type="line"/>
      <point x="378" y="295" type="line"/>
      <point x="378" y="266" type="line"/>
      <point x="898" y="266" type="line"/>
    </contour>
    <contour>
      <point x="426" y="439" type="curve"/>
      <point x="397" y="439" type="line"/>
      <point x="388" y="383"/>
      <point x="374" y="314"/>
      <point x="361" y="267" type="curve"/>
      <point x="390" y="267" type="line"/>
      <point x="401" y="311"/>
      <point x="415" y="381"/>
    </contour>
  </outline>
</glyph>
<glyph name="ety233_cid19069_EL" format="1">
  <advance width="1000"/>
  <outline>
    <contour>
      <point x="906" y="711" type="line"/>
      <point x="427" y="711" type="line"/>
      <point x="427" y="681" type="line"/>
      <point x="877" y="681" type="line"/>
      <point x="877" y="510" type="line"/>
      <point x="427" y="510" type="line"/>
      <point x="427" y="480" type="line"/>
      <point x="906" y="480" type="line"/>
    </contour>
    <contour>
      <point x="431" y="437" type="curve"/>
      <point x="431" y="710" type="line"/>
      <point x="403" y="710" type="line"/>
      <point x="403" y="437" type="line"/>
      <point x="403" y="291"/>
      <point x="389" y="101"/>
      <point x="275" y="-39" type="curve"/>
      <point x="281" y="-43"/>
      <point x="291" y="-54"/>
      <point x="296" y="-61" type="curve"/>
      <point x="415" y="84"/>
      <point x="431" y="286"/>
    </contour>
  </outline>
</glyph>
<glyph name="ety235_cid19491_H" format="1">
  <advance width="1000"/>
  <outline>
    <contour>
      <point x="955" y="21" type="curve"/>
      <point x="955" y="299" type="line"/>
      <point x="820" y="299" type="line"/>
      <point x="820" y="22" type="line"/>
      <point x="820" y="10"/>
      <point x="815" y="7"/>
      <point x="802" y="6" type="curve"/>
      <point x="791" y="6"/>
      <point x="743" y="6"/>
      <point x="710" y="8" type="curve"/>
      <point x="724" y="-20"/>
      <point x="740" y="-59"/>
      <point x="747" y="-90" type="curve"/>
      <point x="813" y="-90"/>
      <point x="865" y="-90"/>
      <point x="903" y="-75" type="curve"/>
      <point x="942" y="-59"/>
      <point x="955" y="-34"/>
    </contour>
    <contour>
      <point x="886" y="300" type="line"/>
      <point x="329" y="300" type="line"/>
      <point x="329" y="-93" type="line"/>
      <point x="464" y="-93" type="line"/>
      <point x="464" y="193" type="line"/>
      <point x="886" y="193" type="line"/>
    </contour>
  </outline>
</glyph>
<glyph name="ety237_cid19777_H" format="1">
  <advance width="1000"/>
  <outline>
    <contour>
      <point x="959" y="777" type="line"/>
      <point x="364" y="777" type="line"/>
      <point x="364" y="674" type="line"/>
      <point x="959" y="674" type="line"/>
    </contour>
    <contour>
      <point x="464" y="471" type="curve"/>
      <point x="464" y="778" type="line"/>
      <point x="347" y="778" type="line"/>
      <point x="347" y="471" type="line"/>
      <point x="347" y="320"/>
      <point x="340" y="108"/>
      <point x="251" y="-36" type="curve"/>
      <point x="280" y="-47"/>
      <point x="333" y="-77"/>
      <point x="355" y="-96" type="curve"/>
      <point x="450" y="59"/>
      <point x="464" y="304"/>
    </contour>
  </outline>
</glyph>
<glyph name="ety238_cid20014_H" format="1">
  <advance width="1000"/>
  <outline>
    <contour>
      <point x="461" y="648" type="line"/>
      <point x="63" y="648" type="line"/>
      <point x="63" y="312" type="line"/>
      <point x="176" y="312" type="line"/>
      <point x="176" y="566" type="line"/>
      <point x="461" y="566" type="line"/>
    </contour>
    <contour>
      <point x="552" y="647" type="line"/>
      <point x="430" y="647" type="line"/>
      <point x="430" y="314" type="line"/>
      <point x="552" y="314" type="line"/>
    </contour>
  </outline>
</glyph>
<glyph name="ety240_cid20069_H" format="1">
  <advance width="1000"/>
  <outline>
    <contour>
      <point x="605" y="697" type="line"/>
      <point x="498" y="697" type="line"/>
      <point x="498" y="282" type="line"/>
      <point x="956" y="282" type="line"/>
      <point x="956" y="743" type="line"/>
      <point x="844" y="743" type="line"/>
      <point x="844" y="388" type="line"/>
      <point x="605" y="388" type="line"/>
    </contour>
    <contour>
      <point x="930" y="744" type="line"/>
      <point x="803" y="744" type="line"/>
      <point x="803" y="628" type="line"/>
      <point x="930" y="628" type="line"/>
    </contour>
  </outline>
</glyph>
<glyph name="ety241_cid20360_EL" format="1">
  <advance width="1000"/>
  <outline>
    <contour>
      <point x="837" y="787" type="line"/>
      <point x="207" y="787" type="line"/>
      <point x="207" y="758" type="line"/>
      <point x="808" y="758" type="line"/>
      <point x="808" y="583" type="line"/>
      <point x="207" y="583" type="line"/>
      <point x="207" y="554" type="line"/>
      <point x="837" y="554" type="line"/>
    </contour>
    <contour>
      <point x="217" y="628" type="curve"/>
      <point x="217" y="786" type="line"/>
      <point x="187" y="786" type="line"/>
      <point x="187" y="629" type="line"/>
      <point x="187" y="525"/>
      <point x="166" y="394"/>
      <point x="45" y="297" type="curve"/>
      <point x="51" y="292"/>
      <point x="61" y="281"/>
      <point x="65" y="275" type="curve"/>
      <point x="192" y="376"/>
      <point x="217" y="519"/>
    </contour>
  </outline>
</glyph>
<glyph name="ety243_cid20573_H" format="1">
  <advance width="1000"/>
  <outline>
    <contour>
      <point x="947" y="648" type="line"/>
      <point x="550" y="648" type="line"/>
      <point x="550" y="552" type="line"/>
      <point x="947" y="552" type="line"/>
    </contour>
    <contour>
      <point x="624" y="693" type="curve"/>
      <point x="513" y="703" type="line"/>
      <point x="505" y="653"/>
      <point x="492" y="593"/>
      <point x="480" y="551" type="curve"/>
      <point x="591" y="551" type="line"/>
      <point x="602" y="589"/>
      <point x="615" y="645"/>
    </contour>
  </outline>
</glyph>
<glyph name="ety244_cid21046_H" format="1">
  <advance width="1000"/>
  <outline>
    <contour>
      <point x="972" y="67" type="line"/>
      <point x="400" y="67" type="line"/>
      <point x="400" y="-67" type="line"/>
      <point x="972" y="-67" type="line"/>
    </contour>
    <contour>
      <point x="955" y="824" type="line"/>
      <point x="401" y="824" type="line"/>
      <point x="401" y="-23" type="line"/>
      <point x="537" y="-23" type="line"/>
      <point x="537" y="689" type="line"/>
      <point x="955" y="689" type="line"/>
    </contour>
  </outline>
</glyph>
<glyph name="ety245_cid21166_EL" format="1">
  <advance width="1000"/>
  <outline>
    <contour>
      <point x="856" y="-25" type="curve"/>
      <point x="856" y="562" type="line"/>
      <point x="826" y="562" type="line"/>
      <point x="826" y="-26" type="line"/>
      <point x="826" y="-36"/>
      <point x="823" y="-39"/>
      <point x="814" y="-39" type="curve"/>
      <point x="804" y="-40"/>
      <point x="774" y="-40"/>
      <point x="737" y="-39" type="curve"/>
      <point x="742" y="-48"/>
      <point x="747" y="-61"/>
      <point x="749" y="-68" type="curve"/>
      <point x="793" y="-68"/>
      <point x="820" y="-68"/>
      <point x="835" y="-63" type="curve"/>
      <point x="851" y="-57"/>
      <point x="856" y="-47"/>
    </contour>
    <contour>
      <point x="845" y="561" type="line"/>
      <point x="461" y="561" type="line"/>
      <point x="461" y="530" type="line"/>
      <point x="845" y="530" type="line"/>
    </contour>
  </outline>
</glyph>
<glyph name="ety247_cid21343_H" format="1">
  <advance width="1000"/>
  <outline>
    <contour>
      <point x="904" y="677" type="line"/>
      <point x="431" y="677" type="line"/>
      <point x="431" y="553" type="line"/>
      <point x="904" y="553" type="line"/>
    </contour>
    <contour>
      <point x="945" y="806" type="line"/>
      <point x="809" y="806" type="line"/>
      <point x="809" y="554" type="line"/>
      <point x="945" y="554" type="line"/>
    </contour>
  </outline>
</glyph>
<glyph name="ety248_cid21343_H" format="1">
  <advance width="1000"/>
  <outline>
    <contour>
      <point x="904" y="677" type="line"/>
      <point x="431" y="677" type="line"/>
      <point x="431" y="553" type="line"/>
      <point x="904" y="553" type="line"/>
    </contour>
    <contour>
      <point x="518" y="806" type="line"/>
      <point x="387" y="806" type="line"/>
      <point x="387" y="554" type="line"/>
      <point x="518" y="554" type="line"/>
    </contour>
  </outline>
</glyph>
<glyph name="ety249_cid21662_H" format="1">
  <advance width="1000"/>
  <outline>
    <contour>
      <point x="633" y="808" type="line"/>
      <point x="409" y="808" type="line"/>
      <point x="409" y="686" type="line"/>
      <point x="527" y="686" type="line"/>
      <point x="527" y="443" type="line"/>
      <point x="409" y="443" type="line"/>
      <point x="409" y="320" type="line"/>
      <point x="633" y="320" type="line"/>
    </contour>
    <contour>
      <point x="353" y="-53" type="curve"/>
      <point x="353" y="-5"/>
      <point x="457" y="70"/>
      <point x="457" y="70" type="curve"/>
      <point x="457" y="809" type="line"/>
      <point x="337" y="809" type="line"/>
      <point x="337" y="160" type="line"/>
      <point x="337" y="112"/>
      <point x="308" y="73"/>
      <point x="286" y="56" type="curve"/>
      <point x="308" y="32"/>
      <point x="342" y="-22"/>
    </contour>
  </outline>
</glyph>
<glyph name="ety250_cid21723_H" format="1">
  <advance width="1000"/>
  <outline>
    <contour>
      <point x="537" y="581" type="line"/>
      <point x="452" y="581" type="line"/>
      <point x="452" y="225" type="line"/>
      <point x="537" y="225" type="line"/>
    </contour>
    <contour>
      <point x="520" y="321" type="line"/>
      <point x="366" y="321" type="line"/>
      <point x="366" y="223" type="line"/>
      <point x="520" y="223" type="line"/>
    </contour>
  </outline>
</glyph>
<glyph name="ety251_cid21916_EL" format="1">
  <advance width="1000"/>
  <outline>
    <contour>
      <point x="472" y="429" type="line"/>
      <point x="441" y="429" type="line"/>
      <point x="441" y="107" type="line"/>
      <point x="472" y="107" type="line"/>
    </contour>
    <contour>
      <point x="905" y="429" type="line"/>
      <point x="448" y="429" type="line"/>
      <point x="448" y="397" type="line"/>
      <point x="875" y="397" type="line"/>
      <point x="875" y="140" type="line"/>
      <point x="448" y="140" type="line"/>
      <point x="448" y="108" type="line"/>
      <point x="905" y="108" type="line"/>
    </contour>
  </outline>
</glyph>
<glyph name="ety252_cid21916_H" format="1">
  <advance width="1000"/>
  <outline>
    <contour>
      <point x="550" y="451" type="line"/>
      <point x="420" y="451" type="line"/>
      <point x="420" y="91" type="line"/>
      <point x="550" y="91" type="line"/>
    </contour>
    <contour>
      <point x="939" y="451" type="line"/>
      <point x="506" y="451" type="line"/>
      <point x="506" y="349" type="line"/>
      <point x="816" y="349" type="line"/>
      <point x="816" y="192" type="line"/>
      <point x="506" y="192" type="line"/>
      <point x="506" y="90" type="line"/>
      <point x="939" y="90" type="line"/>
    </contour>
  </outline>
</glyph>
<glyph name="ety256_cid22496_H" format="1">
  <advance width="1000"/>
  <outline>
    <contour>
      <point x="480" y="301" type="line"/>
      <point x="156" y="301" type="line"/>
      <point x="156" y="229" type="line"/>
      <point x="349" y="229" type="line"/>
      <point x="349" y="129" type="line"/>
      <point x="156" y="129" type="line"/>
      <point x="156" y="57" type="line"/>
      <point x="480" y="57" type="line"/>
    </contour>
    <contour>
      <point x="123" y="-94" type="curve"/>
      <point x="123" y="-55"/>
      <point x="244" y="5"/>
      <point x="244" y="5" type="curve"/>
      <point x="244" y="300" type="line"/>
      <point x="118" y="300" type="line"/>
      <point x="118" y="72" type="line"/>
      <point x="118" y="29"/>
      <point x="99" y="9"/>
      <point x="79" y="-2" type="curve"/>
      <point x="96" y="-21"/>
      <point x="117" y="-67"/>
    </contour>
  </outline>
</glyph>
<glyph name="ety257_cid22590_H" format="1">
  <advance width="1000"/>
  <outline>
    <contour>
      <point x="540" y="80" type="line"/>
      <point x="121" y="80" type="line"/>
      <point x="121" y="-42" type="line"/>
      <point x="540" y="-42" type="line"/>
    </contour>
    <contour>
      <point x="540" y="820" type="line"/>
      <point x="56" y="820" type="line"/>
      <point x="56" y="-41" type="line"/>
      <point x="178" y="-41" type="line"/>
      <point x="178" y="699" type="line"/>
      <point x="540" y="699" type="line"/>
    </contour>
  </outline>
</glyph>
<glyph name="ety258_cid22609_EL" format="1">
  <advance width="1000"/>
  <outline>
    <contour>
      <point x="241" y="328" type="line"/>
      <point x="51" y="328" type="line"/>
      <point x="51" y="299" type="line"/>
      <point x="241" y="299" type="line"/>
    </contour>
    <contour>
      <point x="254" y="-18" type="curve"/>
      <point x="254" y="329" type="line"/>
      <point x="225" y="329" type="line"/>
      <point x="225" y="-18" type="line"/>
      <point x="225" y="-30"/>
      <point x="222" y="-33"/>
      <point x="209" y="-34" type="curve"/>
      <point x="196" y="-35"/>
      <point x="154" y="-35"/>
      <point x="100" y="-33" type="curve"/>
      <point x="105" y="-42"/>
      <point x="110" y="-54"/>
      <point x="112" y="-62" type="curve"/>
      <point x="176" y="-62"/>
      <point x="212" y="-62"/>
      <point x="231" y="-56" type="curve"/>
      <point x="249" y="-50"/>
      <point x="254" y="-40"/>
    </contour>
  </outline>
</glyph>
<glyph name="ety259_cid22610_EL" format="1">
  <advance width="1000"/>
  <outline>
    <contour>
      <point x="247" y="328" type="line"/>
      <point x="57" y="328" type="line"/>
      <point x="57" y="299" type="line"/>
      <point x="247" y="299" type="line"/>
    </contour>
    <contour>
      <point x="260" y="-18" type="curve"/>
      <point x="260" y="329" type="line"/>
      <point x="231" y="329" type="line"/>
      <point x="231" y="-18" type="line"/>
      <point x="231" y="-30"/>
      <point x="228" y="-33"/>
      <point x="215" y="-34" type="curve"/>
      <point x="202" y="-35"/>
      <point x="160" y="-35"/>
      <point x="106" y="-33" type="curve"/>
      <point x="111" y="-42"/>
      <point x="116" y="-54"/>
      <point x="118" y="-62" type="curve"/>
      <point x="182" y="-62"/>
      <point x="218" y="-62"/>
      <point x="236" y="-56" type="curve"/>
      <point x="255" y="-50"/>
      <point x="260" y="-40"/>
    </contour>
  </outline>
</glyph>
<glyph name="ety260_cid22817_EL" format="1">
  <advance width="1000"/>
  <outline>
    <contour>
      <point x="428" y="419" type="line"/>
      <point x="88" y="419" type="line"/>
      <point x="88" y="389" type="line"/>
      <point x="428" y="389" type="line"/>
    </contour>
    <contour>
      <point x="446" y="737" type="line"/>
      <point x="284" y="737" type="line"/>
      <point x="284" y="708" type="line"/>
      <point x="417" y="708" type="line"/>
      <point x="417" y="390" type="line"/>
      <point x="446" y="390" type="line"/>
    </contour>
  </outline>
</glyph>
<glyph name="ety262_cid22830_EL" format="1">
  <advance width="1000"/>
  <outline>
    <contour>
      <point x="123" y="747" type="line"/>
      <point x="93" y="758" type="line"/>
      <point x="93" y="442" type="line"/>
      <point x="123" y="442" type="line"/>
    </contour>
    <contour>
      <point x="446" y="473" type="line"/>
      <point x="106" y="473" type="line"/>
      <point x="106" y="443" type="line"/>
      <point x="446" y="443" type="line"/>
    </contour>
  </outline>
</glyph>
<glyph name="ety266_cid23013_EL" format="1">
  <advance width="1000"/>
  <outline>
    <contour>
      <point x="610" y="213" type="line"/>
      <point x="170" y="213" type="line"/>
      <point x="170" y="-68" type="line"/>
      <point x="199" y="-68" type="line"/>
      <point x="199" y="183" type="line"/>
      <point x="610" y="183" type="line"/>
    </contour>
    <contour>
      <point x="627" y="-19" type="curve"/>
      <point x="627" y="214" type="line"/>
      <point x="598" y="214" type="line"/>
      <point x="598" y="-20" type="line"/>
      <point x="598" y="-30"/>
      <point x="595" y="-34"/>
      <point x="582" y="-34" type="curve"/>
      <point x="570" y="-35"/>
      <point x="530" y="-35"/>
      <point x="475" y="-34" type="curve"/>
      <point x="479" y="-44"/>
      <point x="485" y="-54"/>
      <point x="487" y="-63" type="curve"/>
      <point x="549" y="-63"/>
      <point x="585" y="-64"/>
      <point x="605" y="-57" type="curve"/>
      <point x="623" y="-51"/>
      <point x="627" y="-41"/>
    </contour>
  </outline>
</glyph>
<glyph name="ety267_cid23154_H" format="1">
  <advance width="1000"/>
  <outline>
    <contour>
      <point x="630" y="743" type="curve"/>
      <point x="498" y="743" type="line"/>
      <point x="473" y="564"/>
      <point x="428" y="337"/>
      <point x="390" y="193" type="curve"/>
      <point x="535" y="224" type="line"/>
      <point x="564" y="352"/>
      <point x="602" y="566"/>
    </contour>
    <contour>
      <point x="825" y="314" type="line"/>
      <point x="449" y="314" type="line"/>
      <point x="390" y="193" type="line"/>
      <point x="825" y="193" type="line"/>
    </contour>
  </outline>
</glyph>
<glyph name="ety268_cid23176_H" format="1">
  <advance width="1000"/>
  <outline>
    <contour>
      <point x="883" y="616" type="line"/>
      <point x="450" y="616" type="line"/>
      <point x="450" y="478" type="line"/>
      <point x="883" y="478" type="line"/>
    </contour>
    <contour>
      <point x="882" y="854" type="line"/>
      <point x="740" y="854" type="line"/>
      <point x="740" y="552" type="line"/>
      <point x="882" y="552" type="line"/>
    </contour>
  </outline>
</glyph>
<glyph name="ety269_cid23353_H" format="1">
  <advance width="1000"/>
  <outline>
    <contour>
      <point x="456" y="754" type="line"/>
      <point x="324" y="754" type="line"/>
      <point x="324" y="340" type="line"/>
      <point x="456" y="340" type="line"/>
    </contour>
    <contour>
      <point x="910" y="464" type="line"/>
      <point x="390" y="464" type="line"/>
      <point x="390" y="339" type="line"/>
      <point x="767" y="339" type="line"/>
      <point x="767" y="201" type="line"/>
      <point x="910" y="201" type="line"/>
    </contour>
  </outline>
</glyph>
<glyph name="ety270_cid23440_H" format="1">
  <advance width="1000"/>
  <outline>
    <contour>
      <point x="900" y="792" type="line"/>
      <point x="456" y="792" type="line"/>
      <point x="456" y="665" type="line"/>
      <point x="761" y="665" type="line"/>
      <point x="761" y="583" type="line"/>
      <point x="456" y="583" type="line"/>
      <point x="456" y="456" type="line"/>
      <point x="900" y="456" type="line"/>
    </contour>
    <contour>
      <point x="499" y="633" type="curve"/>
      <point x="499" y="793" type="line"/>
      <point x="360" y="793" type="line"/>
      <point x="360" y="635" type="line"/>
      <point x="360" y="507"/>
      <point x="353" y="318"/>
      <point x="269" y="189" type="curve"/>
      <point x="299" y="172"/>
      <point x="359" y="118"/>
      <point x="382" y="90" type="curve"/>
      <point x="480" y="238"/>
      <point x="499" y="481"/>
    </contour>
  </outline>
</glyph>
<glyph name="ety271_cid23488_EL" format="1">
  <advance width="1000"/>
  <outline>
    <contour>
      <point x="820" y="466" type="line"/>
      <point x="383" y="466" type="line"/>
      <point x="383" y="436" type="line"/>
      <point x="820" y="436" type="line"/>
    </contour>
    <contour>
      <point x="396" y="467" type="line"/>
      <point x="367" y="467" type="line"/>
      <point x="367" y="-71" type="line"/>
      <point x="396" y="-71" type="line"/>
    </contour>
  </outline>
</glyph>
<glyph name="ety273_cid23996_H" format="1">
  <advance width="1000"/>
  <outline>
    <contour>
      <point x="503" y="-11" type="curve"/>
      <point x="503" y="25"/>
      <point x="597" y="82"/>
      <point x="597" y="82" type="curve"/>
      <point x="597" y="333" type="line"/>
      <point x="490" y="333" type="line"/>
      <point x="490" y="173" type="line"/>
      <point x="490" y="132"/>
      <point x="475" y="110"/>
      <point x="458" y="99" type="curve"/>
      <point x="475" y="74"/>
      <point x="496" y="19"/>
    </contour>
    <contour>
      <point x="548" y="334" type="line"/>
      <point x="337" y="334" type="line"/>
      <point x="337" y="224" type="line"/>
      <point x="548" y="224" type="line"/>
    </contour>
  </outline>
</glyph>
<glyph name="ety274_cid24021_EL" format="1">
  <advance width="1000"/>
  <outline>
    <contour>
      <point x="889" y="424" type="line"/>
      <point x="355" y="424" type="line"/>
      <point x="355" y="394" type="line"/>
      <point x="889" y="394" type="line"/>
    </contour>
    <contour>
      <point x="888" y="755" type="line"/>
      <point x="675" y="755" type="line"/>
      <point x="675" y="724" type="line"/>
      <point x="859" y="724" type="line"/>
      <point x="859" y="407" type="line"/>
      <point x="888" y="407" type="line"/>
    </contour>
  </outline>
</glyph>
<glyph name="ety275_cid24021_H" format="1">
  <advance width="1000"/>
  <outline>
    <contour>
      <point x="939" y="479" type="line"/>
      <point x="349" y="479" type="line"/>
      <point x="349" y="361" type="line"/>
      <point x="939" y="361" type="line"/>
    </contour>
    <contour>
      <point x="938" y="795" type="line"/>
      <point x="735" y="795" type="line"/>
      <point x="735" y="677" type="line"/>
      <point x="818" y="677" type="line"/>
      <point x="818" y="395" type="line"/>
      <point x="938" y="395" type="line"/>
    </contour>
  </outline>
</glyph>
<glyph name="ety276_cid24085_EL" format="1">
  <advance width="1000"/>
  <outline>
    <contour>
      <point x="953" y="483" type="line"/>
      <point x="625" y="483" type="line"/>
      <point x="625" y="454" type="line"/>
      <point x="953" y="454" type="line"/>
    </contour>
    <contour>
      <point x="697" y="677" type="curve"/>
      <point x="668" y="677" type="line"/>
      <point x="653" y="607"/>
      <point x="629" y="514"/>
      <point x="610" y="455" type="curve"/>
      <point x="638" y="455" type="line"/>
      <point x="656" y="511"/>
      <point x="679" y="605"/>
    </contour>
  </outline>
</glyph>
<glyph name="ety277_cid24164_EL" format="1">
  <advance width="1000"/>
  <outline>
    <contour>
      <point x="745" y="339" type="line"/>
      <point x="427" y="339" type="line"/>
      <point x="427" y="309" type="line"/>
      <point x="745" y="309" type="line"/>
    </contour>
    <contour>
      <point x="448" y="225" type="curve"/>
      <point x="448" y="338" type="line"/>
      <point x="419" y="338" type="line"/>
      <point x="419" y="226" type="line"/>
      <point x="419" y="139"/>
      <point x="395" y="33"/>
      <point x="279" y="-47" type="curve"/>
      <point x="285" y="-51"/>
      <point x="295" y="-61"/>
      <point x="300" y="-67" type="curve"/>
      <point x="421" y="15"/>
      <point x="448" y="132"/>
    </contour>
  </outline>
</glyph>
<glyph name="ety278_cid24453_H" format="1">
  <advance width="1000"/>
  <outline>
    <contour>
      <point x="533" y="390" type="line"/>
      <point x="437" y="390" type="line"/>
      <point x="437" y="160" type="line"/>
      <point x="533" y="160" type="line"/>
    </contour>
    <contour>
      <point x="898" y="236" type="line"/>
      <point x="499" y="236" type="line"/>
      <point x="499" y="161" type="line"/>
      <point x="785" y="161" type="line"/>
      <point x="785" y="89" type="line"/>
      <point x="898" y="89" type="line"/>
    </contour>
  </outline>
</glyph>
<glyph name="ety279_cid24723_H" format="1">
  <advance width="1000"/>
  <outline>
    <contour>
      <point x="217" y="720" type="curve"/>
      <point x="117" y="720" type="line"/>
      <point x="110" y="630"/>
      <point x="97" y="516"/>
      <point x="84" y="442" type="curve"/>
      <point x="185" y="442" type="line"/>
      <point x="197" y="513"/>
      <point x="209" y="627"/>
    </contour>
    <contour>
      <point x="514" y="508" type="line"/>
      <point x="131" y="508" type="line"/>
      <point x="131" y="441" type="line"/>
      <point x="514" y="441" type="line"/>
    </contour>
  </outline>
</glyph>
<glyph name="ety280_cid24732_H" format="1">
  <advance width="1000"/>
  <outline>
    <contour>
      <point x="947" y="27" type="curve"/>
      <point x="947" y="581" type="line"/>
      <point x="842" y="581" type="line"/>
      <point x="842" y="29" type="line"/>
      <point x="842" y="19"/>
      <point x="839" y="16"/>
      <point x="831" y="15" type="curve"/>
      <point x="823" y="15"/>
      <point x="799" y="15"/>
      <point x="779" y="17" type="curve"/>
      <point x="791" y="-13"/>
      <point x="803" y="-59"/>
      <point x="806" y="-91" type="curve"/>
      <point x="852" y="-91"/>
      <point x="886" y="-89"/>
      <point x="913" y="-71" type="curve"/>
      <point x="940" y="-53"/>
      <point x="947" y="-24"/>
    </contour>
    <contour>
      <point x="863" y="582" type="line"/>
      <point x="431" y="582" type="line"/>
      <point x="431" y="-93" type="line"/>
      <point x="536" y="-93" type="line"/>
      <point x="536" y="472" type="line"/>
      <point x="863" y="472" type="line"/>
    </contour>
  </outline>
</glyph>
<glyph name="ety281_cid24744_EL" format="1">
  <advance width="1000"/>
  <outline>
    <contour>
      <point x="523" y="27" type="line"/>
      <point x="266" y="27" type="line"/>
      <point x="266" y="-3" type="line"/>
      <point x="523" y="-3" type="line"/>
    </contour>
    <contour>
      <point x="521" y="767" type="line"/>
      <point x="256" y="767" type="line"/>
      <point x="256" y="-2" type="line"/>
      <point x="285" y="-2" type="line"/>
      <point x="285" y="737" type="line"/>
      <point x="521" y="737" type="line"/>
    </contour>
  </outline>
</glyph>
<glyph name="ety284_cid25106_EL" format="1">
  <advance width="1000"/>
  <outline>
    <contour>
      <point x="941" y="89" type="line"/>
      <point x="420" y="89" type="line"/>
      <point x="420" y="60" type="line"/>
      <point x="941" y="60" type="line"/>
    </contour>
    <contour>
      <point x="501" y="549" type="curve"/>
      <point x="471" y="549" type="line"/>
      <point x="456" y="400"/>
      <point x="427" y="180"/>
      <point x="404" y="59" type="curve"/>
      <point x="435" y="59" type="line"/>
      <point x="456" y="178"/>
      <point x="483" y="397"/>
    </contour>
  </outline>
</glyph>
<glyph name="ety285_cid25107_EL" format="1">
  <advance width="1000"/>
  <outline>
    <contour>
      <point x="936" y="89" type="line"/>
      <point x="420" y="89" type="line"/>
      <point x="420" y="60" type="line"/>
      <point x="936" y="60" type="line"/>
    </contour>
    <contour>
      <point x="501" y="549" type="curve"/>
      <point x="472" y="549" type="line"/>
      <point x="457" y="400"/>
      <point x="427" y="180"/>
      <point x="406" y="59" type="curve"/>
      <point x="436" y="59" type="line"/>
      <point x="457" y="178"/>
      <point x="484" y="397"/>
    </contour>
  </outline>
</glyph>
<glyph name="ety286_cid25358_EL" format="1">
  <advance width="1000"/>
  <outline>
    <contour>
      <point x="917" y="-27" type="curve"/>
      <point x="917" y="402" type="line"/>
      <point x="887" y="402" type="line"/>
      <point x="887" y="-27" type="line"/>
      <point x="887" y="-35"/>
      <point x="884" y="-37"/>
      <point x="876" y="-38" type="curve"/>
      <point x="868" y="-38"/>
      <point x="844" y="-38"/>
      <point x="814" y="-37" type="curve"/>
      <point x="819" y="-45"/>
      <point x="823" y="-57"/>
      <point x="825" y="-65" type="curve"/>
      <point x="863" y="-65"/>
      <point x="885" y="-64"/>
      <point x="899" y="-59" type="curve"/>
      <point x="913" y="-54"/>
      <point x="917" y="-45"/>
    </contour>
    <contour>
      <point x="906" y="401" type="line"/>
      <point x="473" y="401" type="line"/>
      <point x="473" y="-63" type="line"/>
      <point x="502" y="-63" type="line"/>
      <point x="502" y="372" type="line"/>
      <point x="906" y="372" type="line"/>
    </contour>
  </outline>
</glyph>
<glyph name="ety287_cid25388_EL" format="1">
  <advance width="1000"/>
  <outline>
    <contour>
      <point x="917" y="352" type="line"/>
      <point x="394" y="352" type="line"/>
      <point x="394" y="-70" type="line"/>
      <point x="424" y="-70" type="line"/>
      <point x="424" y="323" type="line"/>
      <point x="917" y="323" type="line"/>
    </contour>
    <contour>
      <point x="916" y="-31" type="curve"/>
      <point x="916" y="352" type="line"/>
      <point x="886" y="352" type="line"/>
      <point x="886" y="-31" type="line"/>
      <point x="886" y="-42"/>
      <point x="882" y="-45"/>
      <point x="871" y="-45" type="curve"/>
      <point x="861" y="-46"/>
      <point x="821" y="-46"/>
      <point x="774" y="-45" type="curve"/>
      <point x="779" y="-53"/>
      <point x="784" y="-64"/>
      <point x="786" y="-70" type="curve"/>
      <point x="845" y="-71"/>
      <point x="877" y="-71"/>
      <point x="894" y="-65" type="curve"/>
      <point x="911" y="-61"/>
      <point x="916" y="-51"/>
    </contour>
  </outline>
</glyph>
<glyph name="ety288_cid25693_EL" format="1">
  <advance width="1000"/>
  <outline>
    <contour>
      <point x="766" y="43" type="line"/>
      <point x="500" y="43" type="line"/>
      <point x="500" y="14" type="line"/>
      <point x="766" y="14" type="line"/>
    </contour>
    <contour>
      <point x="780" y="282" type="line"/>
      <point x="642" y="282" type="line"/>
      <point x="642" y="253" type="line"/>
      <point x="751" y="253" type="line"/>
      <point x="751" y="15" type="line"/>
      <point x="780" y="15" type="line"/>
    </contour>
  </outline>
</glyph>
<glyph name="ety289_cid25779_H" format="1">
  <advance width="1000"/>
  <outline>
    <contour>
      <point x="324" y="575" type="line"/>
      <point x="121" y="575" type="line"/>
      <point x="121" y="446" type="line"/>
      <point x="324" y="446" type="line"/>
    </contour>
    <contour>
      <point x="194" y="798" type="line"/>
      <point x="63" y="798" type="line"/>
      <point x="63" y="447" type="line"/>
      <point x="194" y="447" type="line"/>
    </contour>
  </outline>
</glyph>
<glyph name="ety291_cid25952_H" format="1">
  <advance width="1000"/>
  <outline>
    <contour>
      <point x="975" y="764" type="line"/>
      <point x="418" y="764" type="line"/>
      <point x="418" y="662" type="line"/>
      <point x="975" y="662" type="line"/>
    </contour>
    <contour>
      <point x="475" y="595" type="curve"/>
      <point x="475" y="765" type="line"/>
      <point x="359" y="765" type="line"/>
      <point x="359" y="594" type="line"/>
      <point x="359" y="421"/>
      <point x="354" y="144"/>
      <point x="282" y="-45" type="curve"/>
      <point x="313" y="-55"/>
      <point x="366" y="-82"/>
      <point x="391" y="-101" type="curve"/>
      <point x="463" y="101"/>
      <point x="475" y="408"/>
    </contour>
  </outline>
</glyph>
<glyph name="ety292_cid25988_H" format="1">
  <advance width="1000"/>
  <outline>
    <contour>
      <point x="322" y="587" type="line"/>
      <point x="119" y="587" type="line"/>
      <point x="119" y="458" type="line"/>
      <point x="322" y="458" type="line"/>
    </contour>
    <contour>
      <point x="192" y="810" type="line"/>
      <point x="61" y="810" type="line"/>
      <point x="61" y="459" type="line"/>
      <point x="192" y="459" type="line"/>
    </contour>
  </outline>
</glyph>
<glyph name="ety295_cid26255_H" format="1">
  <advance width="1000"/>
  <outline>
    <contour>
      <point x="867" y="323" type="line"/>
      <point x="370" y="323" type="line"/>
      <point x="370" y="-97" type="line"/>
      <point x="501" y="-97" type="line"/>
      <point x="501" y="217" type="line"/>
      <point x="867" y="217" type="line"/>
    </contour>
    <contour>
      <point x="950" y="34" type="curve"/>
      <point x="950" y="324" type="line"/>
      <point x="816" y="324" type="line"/>
      <point x="816" y="36" type="line"/>
      <point x="816" y="26"/>
      <point x="812" y="23"/>
      <point x="800" y="22" type="curve"/>
      <point x="789" y="22"/>
      <point x="750" y="22"/>
      <point x="720" y="24" type="curve"/>
      <point x="736" y="-8"/>
      <point x="755" y="-59"/>
      <point x="761" y="-94" type="curve"/>
      <point x="820" y="-94"/>
      <point x="865" y="-93"/>
      <point x="902" y="-74" type="curve"/>
      <point x="940" y="-54"/>
      <point x="950" y="-22"/>
    </contour>
  </outline>
</glyph>
<glyph name="ety297_cid26822_EL" format="1">
  <advance width="1000"/>
  <outline>
    <contour>
      <point x="855" y="787" type="curve"/>
      <point x="825" y="787" type="line"/>
      <point x="823" y="671"/>
      <point x="816" y="504"/>
      <point x="808" y="410" type="curve"/>
      <point x="836" y="410" type="line"/>
      <point x="844" y="502"/>
      <point x="851" y="669"/>
    </contour>
    <contour>
      <point x="837" y="786" type="line"/>
      <point x="677" y="786" type="line"/>
      <point x="677" y="757" type="line"/>
      <point x="837" y="757" type="line"/>
    </contour>
  </outline>
</glyph>
<glyph name="ety298_cid26822_H" format="1">
  <advance width="1000"/>
  <outline>
    <contour>
      <point x="897" y="824" type="curve"/>
      <point x="779" y="824" type="line"/>
      <point x="776" y="697"/>
      <point x="766" y="537"/>
      <point x="753" y="435" type="curve"/>
      <point x="869" y="435" type="line"/>
      <point x="880" y="534"/>
      <point x="891" y="694"/>
    </contour>
    <contour>
      <point x="821" y="823" type="line"/>
      <point x="690" y="823" type="line"/>
      <point x="690" y="728" type="line"/>
      <point x="821" y="728" type="line"/>
    </contour>
  </outline>
</glyph>
<glyph name="ety299_cid26871_H" format="1">
  <advance width="1000"/>
  <outline>
    <contour>
      <point x="180" y="677" type="curve"/>
      <point x="65" y="677" type="line"/>
      <point x="58" y="606"/>
      <point x="45" y="520"/>
      <point x="33" y="461" type="curve"/>
      <point x="149" y="461" type="line"/>
      <point x="160" y="517"/>
      <point x="172" y="603"/>
    </contour>
    <contour>
      <point x="252" y="548" type="line"/>
      <point x="94" y="548" type="line"/>
      <point x="94" y="460" type="line"/>
      <point x="252" y="460" type="line"/>
    </contour>
  </outline>
</glyph>
<glyph name="ety301_cid26975_H" format="1">
  <advance width="1000"/>
  <outline>
    <contour>
      <point x="830" y="589" type="line"/>
      <point x="622" y="589" type="line"/>
      <point x="611" y="462" type="line"/>
      <point x="830" y="462" type="line"/>
    </contour>
    <contour>
      <point x="871" y="66" type="curve"/>
      <point x="895" y="588" type="line"/>
      <point x="769" y="588" type="line"/>
      <point x="744" y="28" type="line"/>
      <point x="741" y="-56"/>
      <point x="773" y="-84"/>
      <point x="847" y="-84" type="curve"/>
      <point x="882" y="-84" type="line"/>
      <point x="971" y="-84"/>
      <point x="984" y="-25"/>
      <point x="995" y="131" type="curve"/>
      <point x="965" y="142"/>
      <point x="936" y="160"/>
      <point x="910" y="188" type="curve"/>
      <point x="905" y="65"/>
      <point x="901" y="32"/>
      <point x="884" y="32" type="curve"/>
      <point x="882" y="32" type="line"/>
      <point x="875" y="32"/>
      <point x="871" y="38"/>
    </contour>
  </outline>
</glyph>
<glyph name="ety304_cid27256_H" format="1">
  <advance width="1000"/>
  <outline>
    <contour>
      <point x="959" y="767" type="line"/>
      <point x="243" y="767" type="line"/>
      <point x="243" y="631" type="line"/>
      <point x="959" y="631" type="line"/>
    </contour>
    <contour>
      <point x="311" y="459" type="curve"/>
      <point x="311" y="766" type="line"/>
      <point x="169" y="766" type="line"/>
      <point x="169" y="459" type="line"/>
      <point x="169" y="317"/>
      <point x="159" y="130"/>
      <point x="39" y="7" type="curve"/>
      <point x="68" y="-12"/>
      <point x="126" y="-66"/>
      <point x="147" y="-94" type="curve"/>
      <point x="287" y="47"/>
      <point x="311" y="293"/>
    </contour>
  </outline>
</glyph>
<glyph name="ety305_cid27304_H" format="1">
  <advance width="1000"/>
  <outline>
    <contour>
      <point x="964" y="762" type="line"/>
      <point x="248" y="762" type="line"/>
      <point x="248" y="635" type="line"/>
      <point x="964" y="635" type="line"/>
    </contour>
    <contour>
      <point x="295" y="456" type="curve"/>
      <point x="295" y="764" type="line"/>
      <point x="160" y="764" type="line"/>
      <point x="160" y="456" type="line"/>
      <point x="160" y="314"/>
      <point x="151" y="126"/>
      <point x="39" y="0" type="curve"/>
      <point x="68" y="-16"/>
      <point x="123" y="-67"/>
      <point x="143" y="-94" type="curve"/>
      <point x="273" y="48"/>
      <point x="295" y="292"/>
    </contour>
  </outline>
</glyph>
<glyph name="ety307_cid27340_EL" format="1">
  <advance width="1000"/>
  <outline>
    <contour>
      <point x="938" y="713" type="line"/>
      <point x="223" y="713" type="line"/>
      <point x="223" y="683" type="line"/>
      <point x="938" y="683" type="line"/>
    </contour>
    <contour>
      <point x="238" y="419" type="curve"/>
      <point x="238" y="712" type="line"/>
      <point x="209" y="712" type="line"/>
      <point x="209" y="419" type="line"/>
      <point x="209" y="274"/>
      <point x="195" y="86"/>
      <point x="72" y="-49" type="curve"/>
      <point x="80" y="-53"/>
      <point x="90" y="-63"/>
      <point x="95" y="-68" type="curve"/>
      <point x="221" y="71"/>
      <point x="238" y="269"/>
    </contour>
  </outline>
</glyph>
<glyph name="ety308_cid27348_H" format="1">
  <advance width="1000"/>
  <outline>
    <contour>
      <point x="972" y="757" type="line"/>
      <point x="247" y="757" type="line"/>
      <point x="247" y="627" type="line"/>
      <point x="972" y="627" type="line"/>
    </contour>
    <contour>
      <point x="314" y="441" type="curve"/>
      <point x="314" y="752" type="line"/>
      <point x="172" y="752" type="line"/>
      <point x="172" y="442" type="line"/>
      <point x="172" y="298"/>
      <point x="164" y="104"/>
      <point x="55" y="-25" type="curve"/>
      <point x="89" y="-40"/>
      <point x="151" y="-83"/>
      <point x="176" y="-108" type="curve"/>
      <point x="295" y="35"/>
      <point x="314" y="275"/>
    </contour>
  </outline>
</glyph>
<glyph name="ety309_cid27350_EL" format="1">
  <advance width="1000"/>
  <outline>
    <contour>
      <point x="930" y="82" type="line"/>
      <point x="338" y="82" type="line"/>
      <point x="338" y="53" type="line"/>
      <point x="930" y="53" type="line"/>
    </contour>
    <contour>
      <point x="414" y="476" type="curve"/>
      <point x="384" y="476" type="line"/>
      <point x="370" y="348"/>
      <point x="342" y="159"/>
      <point x="321" y="54" type="curve"/>
      <point x="351" y="54" type="line"/>
      <point x="370" y="156"/>
      <point x="396" y="344"/>
    </contour>
  </outline>
</glyph>
<glyph name="ety310_cid27521_H" format="1">
  <advance width="1000"/>
  <outline>
    <contour>
      <point x="814" y="378" type="line"/>
      <point x="325" y="378" type="line"/>
      <point x="325" y="291" type="line"/>
      <point x="930" y="291" type="line"/>
      <point x="930" y="615" type="line"/>
      <point x="714" y="615" type="line"/>
      <point x="714" y="528" type="line"/>
      <point x="814" y="528" type="line"/>
    </contour>
    <contour>
      <point x="437" y="577" type="line"/>
      <point x="324" y="605" type="line"/>
      <point x="324" y="315" type="line"/>
      <point x="437" y="315" type="line"/>
    </contour>
  </outline>
</glyph>
<glyph name="ety311_cid27523_H" format="1">
  <advance width="1000"/>
  <outline>
    <contour>
      <point x="932" y="378" type="line"/>
      <point x="324" y="378" type="line"/>
      <point x="324" y="291" type="line"/>
      <point x="932" y="291" type="line"/>
    </contour>
    <contour>
      <point x="931" y="619" type="line"/>
      <point x="713" y="619" type="line"/>
      <point x="713" y="531" type="line"/>
      <point x="816" y="531" type="line"/>
      <point x="816" y="330" type="line"/>
      <point x="931" y="330" type="line"/>
    </contour>
  </outline>
</glyph>
<glyph name="ety313_cid27526_EL" format="1">
  <advance width="1000"/>
  <outline>
    <contour>
      <point x="869" y="-17" type="line"/>
      <point x="463" y="-17" type="line"/>
      <point x="463" y="-47" type="line"/>
      <point x="869" y="-47" type="line"/>
    </contour>
    <contour>
      <point x="863" y="215" type="line"/>
      <point x="447" y="215" type="line"/>
      <point x="447" y="-46" type="line"/>
      <point x="476" y="-46" type="line"/>
      <point x="476" y="185" type="line"/>
      <point x="863" y="185" type="line"/>
    </contour>
  </outline>
</glyph>
<glyph name="ety314_cid27636_H" format="1">
  <advance width="1000"/>
  <outline>
    <contour>
      <point x="965" y="781" type="line"/>
      <point x="231" y="781" type="line"/>
      <point x="231" y="667" type="line"/>
      <point x="965" y="667" type="line"/>
    </contour>
    <contour>
      <point x="273" y="457" type="curve"/>
      <point x="273" y="780" type="line"/>
      <point x="147" y="780" type="line"/>
      <point x="147" y="457" type="line"/>
      <point x="147" y="314"/>
      <point x="138" y="126"/>
      <point x="30" y="0" type="curve"/>
      <point x="56" y="-16"/>
      <point x="107" y="-65"/>
      <point x="126" y="-91" type="curve"/>
      <point x="252" y="52"/>
      <point x="273" y="293"/>
    </contour>
  </outline>
</glyph>
<glyph name="ety315_cid27966_H" format="1">
  <advance width="1000"/>
  <outline>
    <contour>
      <point x="373" y="806" type="line"/>
      <point x="107" y="806" type="line"/>
      <point x="107" y="680" type="line"/>
      <point x="240" y="680" type="line"/>
      <point x="240" y="217" type="line"/>
      <point x="107" y="217" type="line"/>
      <point x="107" y="90" type="line"/>
      <point x="373" y="90" type="line"/>
    </contour>
    <contour>
      <point x="180" y="807" type="line"/>
      <point x="50" y="807" type="line"/>
      <point x="50" y="10" type="line"/>
      <point x="180" y="10" type="line"/>
    </contour>
  </outline>
</glyph>
<glyph name="ety318_cid28213_H" format="1">
  <advance width="1000"/>
  <outline>
    <contour>
      <point x="667" y="341" type="line"/>
      <point x="491" y="341" type="line"/>
      <point x="491" y="227" type="line"/>
      <point x="667" y="227" type="line"/>
    </contour>
    <contour>
      <point x="610" y="-18" type="curve"/>
      <point x="610" y="18"/>
      <point x="700" y="95"/>
      <point x="700" y="95" type="curve"/>
      <point x="700" y="340" type="line"/>
      <point x="599" y="340" type="line"/>
      <point x="599" y="156" type="line"/>
      <point x="599" y="103"/>
      <point x="574" y="68"/>
      <point x="555" y="52" type="curve"/>
      <point x="572" y="37"/>
      <point x="600" y="2"/>
    </contour>
  </outline>
</glyph>
<glyph name="ety321_cid28270_H" format="1">
  <advance width="1000"/>
  <outline>
    <contour>
      <point x="431" y="197" type="line"/>
      <point x="315" y="197" type="line"/>
      <point x="315" y="-46" type="line"/>
      <point x="431" y="-46" type="line"/>
    </contour>
    <contour>
      <point x="688" y="194" type="line"/>
      <point x="393" y="194" type="line"/>
      <point x="393" y="112" type="line"/>
      <point x="568" y="112" type="line"/>
      <point x="568" y="58" type="line"/>
      <point x="393" y="58" type="line"/>
      <point x="393" y="-24" type="line"/>
      <point x="688" y="-24" type="line"/>
    </contour>
  </outline>
</glyph>
<glyph name="ety322_cid28286_EL" format="1">
  <advance width="1000"/>
  <outline>
    <contour>
      <point x="707" y="337" type="line"/>
      <point x="459" y="337" type="line"/>
      <point x="459" y="308" type="line"/>
      <point x="707" y="308" type="line"/>
    </contour>
    <contour>
      <point x="506" y="564" type="curve"/>
      <point x="476" y="564" type="line"/>
      <point x="471" y="483"/>
      <point x="460" y="374"/>
      <point x="449" y="307" type="curve"/>
      <point x="479" y="307" type="line"/>
      <point x="488" y="372"/>
      <point x="499" y="481"/>
    </contour>
  </outline>
</glyph>
<glyph name="ety324_cid28496_H" format="1">
  <advance width="1000"/>
  <outline>
    <contour>
      <point x="492" y="447" type="line"/>
      <point x="158" y="447" type="line"/>
      <point x="158" y="346" type="line"/>
      <point x="492" y="346" type="line"/>
    </contour>
    <contour>
      <point x="487" y="835" type="line"/>
      <point x="74" y="835" type="line"/>
      <point x="74" y="345" type="line"/>
      <point x="205" y="345" type="line"/>
      <point x="205" y="732" type="line"/>
      <point x="487" y="732" type="line"/>
    </contour>
  </outline>
</glyph>
<glyph name="ety325_cid28553_EL" format="1">
  <advance width="1000"/>
  <outline>
    <contour>
      <point x="860" y="450" type="line"/>
      <point x="479" y="450" type="line"/>
      <point x="479" y="421" type="line"/>
      <point x="860" y="421" type="line"/>
    </contour>
    <contour>
      <point x="505" y="451" type="curve"/>
      <point x="476" y="451" type="line"/>
      <point x="468" y="338"/>
      <point x="451" y="175"/>
      <point x="436" y="82" type="curve"/>
      <point x="466" y="82" type="line"/>
      <point x="478" y="173"/>
      <point x="495" y="334"/>
    </contour>
  </outline>
</glyph>
<glyph name="ety328_cid29157_H" format="1">
  <advance width="1000"/>
  <outline>
    <contour>
      <point x="572" y="710" type="curve"/>
      <point x="442" y="718" type="line"/>
      <point x="435" y="583"/>
      <point x="418" y="408"/>
      <point x="401" y="299" type="curve"/>
      <point x="539" y="299" type="line"/>
      <point x="551" y="402"/>
      <point x="564" y="574"/>
    </contour>
    <contour>
      <point x="878" y="434" type="line"/>
      <point x="472" y="434" type="line"/>
      <point x="459" y="300" type="line"/>
      <point x="878" y="300" type="line"/>
    </contour>
  </outline>
</glyph>
<glyph name="ety330_cid29367_H" format="1">
  <advance width="1000"/>
  <outline>
    <contour>
      <point x="661" y="855" type="line"/>
      <point x="557" y="855" type="line"/>
      <point x="557" y="495" type="line"/>
      <point x="705" y="495" type="line"/>
      <point x="705" y="605" type="line"/>
      <point x="661" y="605" type="line"/>
    </contour>
    <contour>
      <point x="749" y="342" type="curve"/>
      <point x="749" y="604" type="line"/>
      <point x="658" y="604" type="line"/>
      <point x="658" y="343" type="line"/>
      <point x="658" y="335"/>
      <point x="655" y="333"/>
      <point x="648" y="333" type="curve"/>
      <point x="641" y="333"/>
      <point x="622" y="333"/>
      <point x="604" y="333" type="curve"/>
      <point x="614" y="313"/>
      <point x="624" y="285"/>
      <point x="628" y="263" type="curve"/>
      <point x="667" y="263"/>
      <point x="697" y="263"/>
      <point x="720" y="275" type="curve"/>
      <point x="743" y="287"/>
      <point x="749" y="305"/>
    </contour>
  </outline>
</glyph>
<glyph name="ety331_cid29535_EL" format="1">
  <advance width="1000"/>
  <outline>
    <contour>
      <point x="460" y="321" type="line"/>
      <point x="173" y="321" type="line"/>
      <point x="173" y="291" type="line"/>
      <point x="460" y="291" type="line"/>
    </contour>
    <contour>
      <point x="183" y="320" type="line"/>
      <point x="154" y="320" type="line"/>
      <point x="154" y="-73" type="line"/>
      <point x="183" y="-73" type="line"/>
    </contour>
  </outline>
</glyph>
<glyph name="ety332_cid29613_H" format="1">
  <advance width="1000"/>
  <outline>
    <contour>
      <point x="406" y="80" type="line"/>
      <point x="180" y="80" type="line"/>
      <point x="180" y="18" type="line"/>
      <point x="406" y="18" type="line"/>
    </contour>
    <contour>
      <point x="395" y="244" type="line"/>
      <point x="106" y="244" type="line"/>
      <point x="106" y="19" type="line"/>
      <point x="235" y="19" type="line"/>
      <point x="235" y="182" type="line"/>
      <point x="395" y="182" type="line"/>
    </contour>
  </outline>
</glyph>
<glyph name="ety333_cid29796_EL" format="1">
  <advance width="1000"/>
  <outline>
    <contour>
      <point x="801" y="550" type="line"/>
      <point x="147" y="550" type="line"/>
      <point x="147" y="522" type="line"/>
      <point x="801" y="522" type="line"/>
    </contour>
    <contour>
      <point x="805" y="-14" type="curve"/>
      <point x="805" y="549" type="line"/>
      <point x="774" y="549" type="line"/>
      <point x="774" y="-15" type="line"/>
      <point x="774" y="-29"/>
      <point x="770" y="-34"/>
      <point x="754" y="-34" type="curve"/>
      <point x="737" y="-35"/>
      <point x="682" y="-36"/>
      <point x="614" y="-34" type="curve"/>
      <point x="620" y="-44"/>
      <point x="625" y="-57"/>
      <point x="627" y="-65" type="curve"/>
      <point x="705" y="-66"/>
      <point x="752" y="-66"/>
      <point x="775" y="-60" type="curve"/>
      <point x="798" y="-54"/>
      <point x="805" y="-41"/>
    </contour>
  </outline>
</glyph>
<glyph name="ety334_cid30119_EL" format="1">
  <advance width="1000"/>
  <outline>
    <contour>
      <point x="857" y="545" type="line"/>
      <point x="191" y="545" type="line"/>
      <point x="191" y="516" type="line"/>
      <point x="827" y="516" type="line"/>
      <point x="827" y="380" type="line"/>
      <point x="191" y="380" type="line"/>
      <point x="191" y="351" type="line"/>
      <point x="857" y="351" type="line"/>
    </contour>
    <contour>
      <point x="205" y="414" type="curve"/>
      <point x="205" y="546" type="line"/>
      <point x="176" y="546" type="line"/>
      <point x="176" y="414" type="line"/>
      <point x="176" y="271"/>
      <point x="166" y="95"/>
      <point x="52" y="-50" type="curve"/>
      <point x="60" y="-54"/>
      <point x="71" y="-62"/>
      <point x="76" y="-68" type="curve"/>
      <point x="192" y="82"/>
      <point x="205" y="262"/>
    </contour>
  </outline>
</glyph>
<glyph name="ety336_cid30357_H" format="1">
  <advance width="1000"/>
  <outline>
    <contour>
      <point x="395" y="21" type="curve"/>
      <point x="395" y="585" type="line"/>
      <point x="270" y="585" type="line"/>
      <point x="270" y="22" type="line"/>
      <point x="270" y="14"/>
      <point x="268" y="10"/>
      <point x="260" y="10" type="curve"/>
      <point x="253" y="10"/>
      <point x="235" y="10"/>
      <point x="220" y="11" type="curve"/>
      <point x="232" y="-15"/>
      <point x="246" y="-56"/>
      <point x="250" y="-84" type="curve"/>
      <point x="293" y="-85"/>
      <point x="331" y="-83"/>
      <point x="359" y="-67" type="curve"/>
      <point x="387" y="-50"/>
      <point x="395" y="-27"/>
    </contour>
    <contour>
      <point x="371" y="586" type="line"/>
      <point x="132" y="586" type="line"/>
      <point x="132" y="473" type="line"/>
      <point x="371" y="473" type="line"/>
    </contour>
  </outline>
</glyph>
<glyph name="ety337_cid30400_EL" format="1">
  <advance width="1000"/>
  <outline>
    <contour>
      <point x="849" y="564" type="line"/>
      <point x="663" y="564" type="line"/>
      <point x="663" y="534" type="line"/>
      <point x="849" y="534" type="line"/>
    </contour>
    <contour>
      <point x="865" y="563" type="curve"/>
      <point x="836" y="563" type="line"/>
      <point x="835" y="432"/>
      <point x="828" y="241"/>
      <point x="820" y="135" type="curve"/>
      <point x="850" y="135" type="line"/>
      <point x="857" y="239"/>
      <point x="863" y="429"/>
    </contour>
  </outline>
</glyph>
<glyph name="ety338_cid30401_H" format="1">
  <advance width="1000"/>
  <outline>
    <contour>
      <point x="490" y="622" type="line"/>
      <point x="373" y="622" type="line"/>
      <point x="373" y="353" type="line"/>
      <point x="584" y="353" type="line"/>
      <point x="584" y="444" type="line"/>
      <point x="490" y="444" type="line"/>
    </contour>
    <contour>
      <point x="650" y="286" type="curve"/>
      <point x="650" y="445" type="line"/>
      <point x="541" y="445" type="line"/>
      <point x="541" y="288" type="line"/>
      <point x="541" y="280"/>
      <point x="538" y="278"/>
      <point x="530" y="278" type="curve"/>
      <point x="522" y="277"/>
      <point x="496" y="277"/>
      <point x="473" y="278" type="curve"/>
      <point x="486" y="250"/>
      <point x="498" y="209"/>
      <point x="501" y="179" type="curve"/>
      <point x="548" y="179"/>
      <point x="584" y="180"/>
      <point x="613" y="196" type="curve"/>
      <point x="643" y="212"/>
      <point x="650" y="240"/>
    </contour>
  </outline>
</glyph>
<glyph name="ety341_cid30779_H" format="1">
  <advance width="1000"/>
  <outline>
    <contour>
      <point x="488" y="451" type="line"/>
      <point x="168" y="451" type="line"/>
      <point x="168" y="379" type="line"/>
      <point x="373" y="379" type="line"/>
      <point x="373" y="358" type="line"/>
      <point x="168" y="358" type="line"/>
      <point x="168" y="287" type="line"/>
      <point x="488" y="287" type="line"/>
    </contour>
    <contour>
      <point x="225" y="636" type="line"/>
      <point x="111" y="636" type="line"/>
      <point x="111" y="285" type="line"/>
      <point x="225" y="285" type="line"/>
    </contour>
  </outline>
</glyph>
